<svg xmlns="http://www.w3.org/2000/svg" width="74.141" height="74.15" viewBox="0 0 74.141 74.15">
  <g id="Group_6501" data-name="Group 6501" transform="translate(-3883.684 -1317.545)">
    <path id="Path_13519" data-name="Path 13519" d="M3886.728,1387.363l1.322-2.1,3.632,2.26,3.773-5.652-3.905-3.27,1.577-1.887,4.439,3.682c.222-1.514.427-2.9.63-4.285a7.467,7.467,0,0,0,.152-1.223,5.917,5.917,0,0,0-.28-1.139l-1.176,1.04-1.672-1.784,3.3-3.158a3.052,3.052,0,0,0-2.437-.855,33.789,33.789,0,0,0-4.223.249,7.264,7.264,0,0,0-5.7,7.225c-.02,6.231-.006,12.461-.006,18.692v.976h-2.471v-.82q0-9.269,0-18.537a9.9,9.9,0,0,1,10.284-10.245h1.216c-.722-3.422-.345-6.845-.338-10.247a4.78,4.78,0,0,1,4.677-4.568q2.547-.073,5.1,0a3.65,3.65,0,0,1,3.378,2.182,3.81,3.81,0,0,1-.4,4.015,2.558,2.558,0,0,0-.424,1.238c-.056,1.181.015,2.368-.029,3.552-.045,1.246-.164,2.491-.257,3.828.316,0,.791.008,1.265,0a6.335,6.335,0,0,1,5.352,2.557q3.765,4.749,7.581,9.459a2.838,2.838,0,0,0,1.082.8c2.636,1.089,5.29,2.134,7.936,3.2a6.168,6.168,0,0,1,4.233,6.245v1.224h4.883v-8.651h-.809c-2.523,0-5.045.007-7.568,0a3.706,3.706,0,0,1-3.917-3.929q-.011-7.182,0-14.367a3.709,3.709,0,0,1,3.975-3.946q11.468-.007,22.936,0a3.707,3.707,0,0,1,3.975,3.948q.011,7.182,0,14.366a3.7,3.7,0,0,1-3.919,3.928c-1.541.009-3.082,0-4.729,0v.861q0,6.141,0,12.281c0,1.3-.391,1.688-1.711,1.688h-28.728c-1.3,0-1.683-.39-1.686-1.713q0-1.39,0-2.781a1.5,1.5,0,0,0-1.886-1.524c-1.818.347-3.63.723-5.516,1.1v4.873H3907.2v-4.371l-4.752.931-3.027.6a5.408,5.408,0,0,1-3.9-.529C3892.584,1391.027,3889.7,1389.2,3886.728,1387.363Zm62.444-8.477c1.636,0,3.152.006,4.669,0,1.059-.006,1.5-.446,1.507-1.5q.008-7.141,0-14.281c0-1.065-.441-1.514-1.493-1.514q-11.46-.007-22.921,0c-1.1,0-1.529.437-1.53,1.553q-.005,7.1,0,14.2c0,1.106.435,1.538,1.545,1.54q3.858.008,7.717,0c.2,0,.391-.035.62-.056,0-2.313,0-4.575,0-6.836,0-1.381.365-1.754,1.717-1.755q3.2,0,6.406,0c1.406,0,1.76.361,1.761,1.79C3949.173,1374.284,3949.172,1376.542,3949.172,1378.885Zm-55.4,9.961a23.69,23.69,0,0,0,2.971,1.741,4.288,4.288,0,0,0,2.316.243c5.4-1.021,10.788-2.134,16.185-3.181a2.455,2.455,0,0,1,1.39.181c1.4.636,2.757,1.379,4.158,2.02a.724.724,0,0,0,.984-1.043c-.4-.8-.908-1.552-1.365-2.327a5.072,5.072,0,0,0-5.177-2.62c-4.972.4-9.948.78-14.921,1.184a2.028,2.028,0,0,1-1.693-.54c-.382-.366-.813-.681-1.258-1.048Zm52.869,4.84v-20.939h-4.835v20.939Zm-39.479-11.662c0-1.784.013-3.5-.006-5.224-.008-.7.127-1.3.863-1.548.7-.24,1.165.145,1.573.669.576.743,1.177,1.469,1.781,2.221l3.8-3.051c-1.41-1.727-2.757-3.444-4.183-5.093a3.157,3.157,0,0,0-2.434-.992c-.952-.012-1.908.05-2.854-.022a3.352,3.352,0,0,0-2.337.876l3.325,3.176-1.63,1.74-1.185-1.058a4.875,4.875,0,0,0-.243,1.26c.159,1.379.383,2.749.582,4.123.146,1.01.289,2.021.442,3.092Zm5.808-2c.869,1.446.869,1.439,2.356,1.354,2.868-.164,5.32.8,6.778,3.281a4.3,4.3,0,0,0,3.732,2.391,6.394,6.394,0,0,1,4.946,2.552c.2.259.633.337,1.092.564v-1.158c0-2.347-.7-3.386-2.9-4.27-2.43-.976-4.845-1.991-7.3-2.9a5.676,5.676,0,0,1-2.831-2.112c-.652-.933-1.417-1.787-2.141-2.687Zm-8.3-20.914a15.07,15.07,0,0,1-2.088-.016,4.431,4.431,0,0,0-4.013,1.608,4.07,4.07,0,0,0-1.305,3.52,3.779,3.779,0,0,0,3.611,3.535,3.646,3.646,0,0,0,3.775-3.328C3904.752,1362.695,3904.674,1360.949,3904.674,1359.112Zm-7.4-.747.194.142c.3-.337.624-.66.9-1.015a2.315,2.315,0,0,1,2.1-.868c1.46.057,2.927-.016,4.389.029.773.024.993-.425,1.052-1.031a1.359,1.359,0,0,0-1.445-1.448c-1.592-.019-3.185-.029-4.775,0a2.449,2.449,0,0,0-2.41,2.417C3897.261,1357.185,3897.279,1357.776,3897.279,1358.365Zm22.277,35.307h13.5v-1.137h-13.5Zm-18.419-18.491-.223-.049a.832.832,0,0,0-.087.2c-.325,2.231-.66,4.461-.947,6.7-.02.15.311.49.485.495a15.838,15.838,0,0,0,1.812-.147Zm38.105,18.5v-1.148h-3.6v1.148Zm-39.537-21.616a1.5,1.5,0,0,0,2.508.047l-1.2-1.289Zm11.347,9.653-1.374-1.7v1.816Zm16.26,8.269.034-.112-2.851-.565-.045.677Z" transform="translate(0 -4.492)"/>
    <path id="Path_13520" data-name="Path 13520" d="M3956.973,1352.132h-2.445v-.9q0-14.713,0-29.424c0-1.431-.355-1.793-1.76-1.793h-33.512c-1.435,0-1.8.352-1.8,1.756q0,17.416,0,34.831c0,1.355.375,1.722,1.752,1.723h9.313v2.472h-1.367c-2.729,0-5.457,0-8.186,0a3.719,3.719,0,0,1-3.983-4.017q0-17.609,0-35.217a3.716,3.716,0,0,1,3.981-4.017q17.026,0,34.053,0a3.7,3.7,0,0,1,3.97,3.795q.017,15.137,0,30.274C3957,1351.765,3956.984,1351.914,3956.973,1352.132Z" transform="translate(-4.12)"/>
    <path id="Path_13521" data-name="Path 13521" d="M3929.327,1328.931c2.368,0,4.736,0,7.1,0,1.109,0,1.543.433,1.545,1.541q.008,5.252,0,10.5c0,1.108-.437,1.543-1.543,1.545q-7.1.007-14.209,0c-1.108,0-1.541-.435-1.543-1.544q-.008-5.251,0-10.5c0-1.111.432-1.54,1.541-1.543C3924.591,1328.926,3926.959,1328.931,3929.327,1328.931Zm6.151,2.526h-12.262v3.772c.556-.372,1.021-.689,1.493-1a1.316,1.316,0,0,1,1.938.122c.438.358.889.7,1.3,1.091a.589.589,0,0,0,.917.028c1.071-.841,2.179-1.635,3.258-2.465a1.353,1.353,0,0,1,1.768-.056c.495.345,1.009.663,1.589,1.042Zm-5.127,5.979a25.746,25.746,0,0,1,2.308,1.958c.85.906,1.834.616,2.847.643,0-.953.023-1.8-.016-2.643a.9.9,0,0,0-.337-.6c-.66-.483-1.354-.919-2.076-1.4Zm-.787,2.571-4.018-3.351c-.478.316-.929.61-1.377.91-1.137.76-1.255,1.082-.906,2.441Z" transform="translate(-4.868 -1.498)" fill="#0c9eda"/>
    <path id="Path_13522" data-name="Path 13522" d="M3939.23,1354.589h15.958v2.385H3939.23Z" transform="translate(-7.31 -4.875)"/>
    <path id="Path_13523" data-name="Path 13523" d="M3944.018,1348.919v2.372h-14.757v-2.372Z" transform="translate(-5.998 -4.129)"/>
    <path id="Path_13524" data-name="Path 13524" d="M3922.143,1356.971v-2.378H3934.4v2.378Z" transform="translate(-5.061 -4.876)"/>
    <path id="Path_13525" data-name="Path 13525" d="M3943.483,1338.468v-2.373h8.58v2.373Z" transform="translate(-7.87 -2.441)" fill="#0c9eda"/>
    <path id="Path_13526" data-name="Path 13526" d="M3956.5,1351.3h-7.306v-2.4h7.306Z" transform="translate(-8.621 -4.126)"/>
    <path id="Path_13527" data-name="Path 13527" d="M3943.483,1344.161v-2.374h7.344v2.374Z" transform="translate(-7.87 -3.19)" fill="#0c9eda"/>
    <path id="Path_13528" data-name="Path 13528" d="M3956.712,1330.416v2.378h-6.08v-2.378Z" transform="translate(-8.811 -1.694)" fill="#0c9eda"/>
    <path id="Path_13529" data-name="Path 13529" d="M3925.776,1351.3h-3.611v-2.391h3.611Z" transform="translate(-5.064 -4.128)"/>
    <path id="Path_13530" data-name="Path 13530" d="M3947.127,1330.42v2.37h-3.638v-2.37Z" transform="translate(-7.871 -1.694)" fill="#0c9eda"/>
    <path id="Path_13531" data-name="Path 13531" d="M3957.279,1341.81v2.362h-2.4v-2.362Z" transform="translate(-9.369 -3.193)"/>
    <path id="Path_13532" data-name="Path 13532" d="M3920.488,1321.822a1.23,1.23,0,1,1-1.224,1.233A1.24,1.24,0,0,1,3920.488,1321.822Z" transform="translate(-4.682 -0.563)"/>
    <path id="Path_13533" data-name="Path 13533" d="M3925.991,1323.014a1.23,1.23,0,1,1-1.266-1.192A1.246,1.246,0,0,1,3925.991,1323.014Z" transform="translate(-5.244 -0.563)"/>
    <path id="Path_13534" data-name="Path 13534" d="M3930.259,1323.03a1.229,1.229,0,1,1-1.25-1.208A1.244,1.244,0,0,1,3930.259,1323.03Z" transform="translate(-5.806 -0.563)"/>
  </g>
</svg>
