<?xml version="1.0" encoding="utf-8"?>
<!-- Generator: Adobe Illustrator 25.0.0, SVG Export Plug-In . SVG Version: 6.00 Build 0)  -->
<svg version="1.1" id="Layer_1" xmlns="http://www.w3.org/2000/svg" xmlns:xlink="http://www.w3.org/1999/xlink" x="0px" y="0px"
	 viewBox="0 0 512 512" style="enable-background:new 0 0 512 512;" xml:space="preserve">
<style type="text/css">
	.st0{fill:#010101;}
	.st1{fill:#27AAE1;}
	.st2{fill:none;stroke:#000000;stroke-width:8;stroke-miterlimit:10;}
</style>
<path class="st0" d="M449.9,177.8h24.5c1.2,4.5,3.9,8.4,7.8,11c3.8,2.6,8.5,3.7,13.1,3.1c4.6-0.6,8.8-2.8,11.9-6.3
	c3.1-3.5,4.8-8,4.8-12.6s-1.7-9.1-4.8-12.6c-3.1-3.5-7.3-5.7-11.9-6.3c-4.6-0.6-9.3,0.5-13.1,3.1c-3.8,2.6-6.6,6.5-7.8,11h-24.5
	v-38.1h24.5c1.2,4.5,3.9,8.4,7.8,11c3.8,2.6,8.5,3.7,13.1,3.1c4.6-0.6,8.8-2.8,11.9-6.3c3.1-3.5,4.8-8,4.8-12.6
	c0-4.6-1.7-9.1-4.8-12.6c-3.1-3.5-7.3-5.7-11.9-6.3c-4.6-0.6-9.3,0.5-13.1,3.1c-3.8,2.6-6.6,6.5-7.8,11h-24.5c-2.5,0-5,1-6.7,2.8
	c-1.8,1.8-2.8,4.2-2.8,6.7v38.1h-24.5c-1.2-4.5-3.9-8.4-7.8-11c-3.8-2.6-8.5-3.7-13.1-3.1c-4.6,0.6-8.8,2.8-11.9,6.3
	s-4.8,8-4.8,12.6s1.7,9.1,4.8,12.6c3.1,3.5,7.3,5.7,11.9,6.3c4.6,0.6,9.3-0.5,13.1-3.1c3.8-2.6,6.6-6.5,7.8-11h24.5v38.1
	c0,2.5,1,5,2.8,6.7c1.8,1.8,4.2,2.8,6.7,2.8h24.5c1.2,4.5,3.9,8.4,7.8,11c3.8,2.6,8.5,3.7,13.1,3.1c4.6-0.6,8.8-2.8,11.9-6.3
	c3.1-3.5,4.8-8,4.8-12.6c0-4.6-1.7-9.1-4.8-12.6c-3.1-3.5-7.3-5.7-11.9-6.3c-4.6-0.6-9.3,0.5-13.1,3.1c-3.8,2.6-6.6,6.5-7.8,11
	h-24.5V177.8z M492.9,163.5c1.9,0,3.7,0.6,5.3,1.6c1.6,1,2.8,2.5,3.5,4.3c0.7,1.7,0.9,3.7,0.5,5.5c-0.4,1.8-1.3,3.5-2.6,4.9
	c-1.3,1.3-3,2.2-4.9,2.6c-1.8,0.4-3.8,0.2-5.5-0.5c-1.7-0.7-3.2-1.9-4.3-3.5s-1.6-3.4-1.6-5.3c0-2.5,1-5,2.8-6.7
	C487.9,164.5,490.3,163.5,492.9,163.5z M492.9,115.8c1.9,0,3.7,0.6,5.3,1.6c1.6,1,2.8,2.5,3.5,4.3c0.7,1.7,0.9,3.7,0.5,5.5
	c-0.4,1.8-1.3,3.5-2.6,4.9c-1.3,1.3-3,2.2-4.9,2.6c-1.8,0.4-3.8,0.2-5.5-0.5c-1.7-0.7-3.2-1.9-4.3-3.5s-1.6-3.4-1.6-5.3
	c0-2.5,1-5,2.8-6.7C487.9,116.8,490.3,115.8,492.9,115.8L492.9,115.8z M397.5,182.6c-1.9,0-3.7-0.6-5.3-1.6c-1.6-1-2.8-2.5-3.5-4.3
	c-0.7-1.7-0.9-3.7-0.5-5.5c0.4-1.8,1.3-3.5,2.6-4.9c1.3-1.3,3-2.2,4.9-2.6c1.8-0.4,3.8-0.2,5.5,0.5c1.7,0.7,3.2,1.9,4.3,3.5
	c1,1.6,1.6,3.4,1.6,5.3c0,2.5-1,5-2.8,6.7C402.5,181.5,400,182.6,397.5,182.6L397.5,182.6z M492.9,211.2c1.9,0,3.7,0.6,5.3,1.6
	c1.6,1,2.8,2.5,3.5,4.3c0.7,1.7,0.9,3.7,0.5,5.5c-0.4,1.8-1.3,3.5-2.6,4.9c-1.3,1.3-3,2.2-4.9,2.6c-1.8,0.4-3.8,0.2-5.5-0.5
	c-1.7-0.7-3.2-1.9-4.3-3.5c-1-1.6-1.6-3.4-1.6-5.3c0-2.5,1-5,2.8-6.7C487.9,212.2,490.3,211.2,492.9,211.2z"/>
<path class="st0" d="M62.1,177.8H37.5c-1.2,4.5-3.9,8.4-7.8,11c-3.8,2.6-8.5,3.7-13.1,3.1c-4.6-0.6-8.8-2.8-11.9-6.3S0,177.7,0,173
	c0-4.6,1.7-9.1,4.8-12.6c3.1-3.5,7.3-5.7,11.9-6.3c4.6-0.6,9.3,0.5,13.1,3.1c3.8,2.6,6.6,6.5,7.8,11h24.5v-38.1H37.5
	c-1.2,4.5-3.9,8.4-7.8,11c-3.8,2.6-8.5,3.7-13.1,3.1c-4.6-0.6-8.8-2.8-11.9-6.3S0,130,0,125.3c0-4.6,1.7-9.1,4.8-12.6
	c3.1-3.5,7.3-5.7,11.9-6.3c4.6-0.6,9.3,0.5,13.1,3.1c3.8,2.6,6.6,6.5,7.8,11h24.5c2.5,0,5,1,6.7,2.8c1.8,1.8,2.8,4.2,2.8,6.7v38.1
	h24.5c1.2-4.5,3.9-8.4,7.8-11c3.8-2.6,8.5-3.7,13.1-3.1c4.6,0.6,8.8,2.8,11.9,6.3c3.1,3.5,4.8,8,4.8,12.6c0,4.6-1.7,9.1-4.8,12.6
	c-3.1,3.5-7.3,5.7-11.9,6.3c-4.6,0.6-9.3-0.5-13.1-3.1c-3.8-2.6-6.6-6.5-7.8-11H71.6v38.1c0,2.5-1,5-2.8,6.7
	c-1.8,1.8-4.2,2.8-6.7,2.8H37.5c-1.2,4.5-3.9,8.4-7.8,11c-3.8,2.6-8.5,3.7-13.1,3.1c-4.6-0.6-8.8-2.8-11.9-6.3s-4.8-8-4.8-12.6
	s1.7-9.1,4.8-12.6c3.1-3.5,7.3-5.7,11.9-6.3c4.6-0.6,9.3,0.5,13.1,3.1c3.8,2.6,6.6,6.5,7.8,11h24.5V177.8z M19.1,163.5
	c-1.9,0-3.7,0.6-5.3,1.6s-2.8,2.5-3.5,4.3c-0.7,1.7-0.9,3.7-0.5,5.5c0.4,1.8,1.3,3.5,2.6,4.9c1.3,1.3,3,2.2,4.9,2.6
	c1.8,0.4,3.8,0.2,5.5-0.5c1.7-0.7,3.2-1.9,4.3-3.5c1-1.6,1.6-3.4,1.6-5.3c0-2.5-1-5-2.8-6.7C24.1,164.5,21.7,163.5,19.1,163.5z
	 M19.1,115.8c-1.9,0-3.7,0.6-5.3,1.6s-2.8,2.5-3.5,4.3c-0.7,1.7-0.9,3.7-0.5,5.5c0.4,1.8,1.3,3.5,2.6,4.9c1.3,1.3,3,2.2,4.9,2.6
	c1.8,0.4,3.8,0.2,5.5-0.5c1.7-0.7,3.2-1.9,4.3-3.5c1-1.6,1.6-3.4,1.6-5.3c0-2.5-1-5-2.8-6.7C24.1,116.8,21.7,115.8,19.1,115.8
	L19.1,115.8z M114.5,182.6c1.9,0,3.7-0.6,5.3-1.6c1.6-1,2.8-2.5,3.5-4.3c0.7-1.7,0.9-3.7,0.5-5.5c-0.4-1.8-1.3-3.5-2.6-4.9
	s-3-2.2-4.9-2.6c-1.8-0.4-3.8-0.2-5.5,0.5c-1.7,0.7-3.2,1.9-4.3,3.5c-1,1.6-1.6,3.4-1.6,5.3c0,2.5,1,5,2.8,6.7
	S112,182.6,114.5,182.6L114.5,182.6z M19.1,211.2c-1.9,0-3.7,0.6-5.3,1.6c-1.6,1-2.8,2.5-3.5,4.3c-0.7,1.7-0.9,3.7-0.5,5.5
	c0.4,1.8,1.3,3.5,2.6,4.9c1.3,1.3,3,2.2,4.9,2.6c1.8,0.4,3.8,0.2,5.5-0.5c1.7-0.7,3.2-1.9,4.3-3.5c1-1.6,1.6-3.4,1.6-5.3
	c0-2.5-1-5-2.8-6.7C24.1,212.2,21.7,211.2,19.1,211.2z"/>
<path class="st1" d="M256,251.1c-43.1,0-78.1-35-78.1-78.1c0-43.1,35-78.1,78.1-78.1c43.1,0,78.1,35,78.1,78.1
	C334.1,216.1,299.1,251.1,256,251.1z M256,235.5c16.6,0,32.5-6.6,44.2-18.3c11.7-11.7,18.3-27.6,18.3-44.2
	c0-16.6-6.6-32.5-18.3-44.2c-11.7-11.7-27.6-18.3-44.2-18.3c-16.6,0-32.5,6.6-44.2,18.3c-11.7,11.7-18.3,27.6-18.3,44.2
	c0,16.6,6.6,32.5,18.3,44.2C223.5,228.9,239.4,235.5,256,235.5L256,235.5z M248.2,204.3h-23.4v-62.5h23.4v-15.6h15.6v15.6h7.8
	c3.6,0,7.2,1,10.3,2.9c3.1,1.9,5.6,4.6,7.2,7.9c1.6,3.2,2.3,6.9,2,10.5c-0.3,3.6-1.7,7.1-3.8,10c2.2,2.9,3.5,6.3,3.8,10
	c0.3,3.6-0.4,7.2-2,10.5c-1.6,3.2-4.1,6-7.2,7.9s-6.6,2.9-10.3,2.9h-7.8v15.6h-15.6V204.3z M240.4,180.8v7.8h31.2c1,0,2-0.4,2.8-1.1
	c0.7-0.7,1.1-1.7,1.1-2.8c0-1-0.4-2-1.1-2.8c-0.7-0.7-1.7-1.1-2.8-1.1H240.4z M240.4,157.4v7.8h31.2c1,0,2-0.4,2.8-1.1
	c0.7-0.7,1.1-1.7,1.1-2.8c0-1-0.4-2-1.1-2.8c-0.7-0.7-1.7-1.1-2.8-1.1H240.4z"/>
<circle class="st2" cx="256" cy="173" r="121.1"/>
<circle class="st2" cx="256" cy="173" r="103"/>
<g>
	<path class="st0" d="M298.3,465.6h-24.2v-24.2h24.2V465.6z M280.2,459.6h12.1v-12.1h-12.1V459.6z"/>
	<path class="st0" d="M268.1,456.5h-36.3c-4.8,0-9.4-1.9-12.8-5.3c-3.4-3.4-5.3-8-5.3-12.8s1.9-9.4,5.3-12.8c3.4-3.4,8-5.3,12.8-5.3
		h6v6h-6c-3.2,0-6.3,1.3-8.6,3.5c-2.3,2.3-3.5,5.3-3.5,8.6s1.3,6.3,3.5,8.6c2.3,2.3,5.3,3.5,8.6,3.5h36.3V456.5z"/>
	<path class="st1" d="M268.1,435.4h-24.2v-24.2h24.2V435.4z M249.9,429.3H262v-12.1h-12.1V429.3z"/>
	<path class="st0" d="M280.2,426.3h-6v-6h6c3.2,0,6.3-1.3,8.6-3.5c2.3-2.3,3.5-5.3,3.5-8.6s-1.3-6.3-3.5-8.6
		c-2.3-2.3-5.3-3.5-8.6-3.5h-36.3v-6h36.3c4.8,0,9.4,1.9,12.8,5.3c3.4,3.4,5.3,8,5.3,12.8s-1.9,9.4-5.3,12.8
		C289.6,424.4,285,426.3,280.2,426.3L280.2,426.3z"/>
	<path class="st0" d="M237.9,405.1h-24.2v-24.2h24.2V405.1z M219.7,399.1h12.1V387h-12.1V399.1z"/>
</g>
<polygon class="st0" points="496.7,426.3 274.1,426.3 274.1,417.4 485.6,417.4 485.6,235.5 496.7,235.5 "/>
<polygon class="st0" points="12.6,427.3 237.9,427.3 237.9,418.4 23.8,418.4 23.8,236.5 12.6,236.5 "/>
</svg>
