<svg xmlns="http://www.w3.org/2000/svg" width="96.036" height="69.493" viewBox="0 0 96.036 69.493">
  <g id="Group_71" data-name="Group 71" transform="translate(-927 -2739)">
    <rect id="Rectangle_26" data-name="Rectangle 26" width="14" height="14" transform="translate(981.041 2767.221)" fill="#024"/>
    <g id="BACKGROUND" transform="translate(927 2739)">
      <path id="Path_121" data-name="Path 121" d="M29.163,37.068a1.373,1.373,0,0,0,1.406-1.406V22.406A1.373,1.373,0,0,0,29.163,21H15.706A1.373,1.373,0,0,0,14.3,22.406V35.662a1.373,1.373,0,0,0,1.406,1.406ZM17.313,23.812H27.757V34.256H17.313Z" transform="translate(12.212 5.713)" fill="#0c9eda"/>
      <path id="Path_122" data-name="Path 122" d="M42.362,21H29.106A1.373,1.373,0,0,0,27.7,22.406V35.662a1.373,1.373,0,0,0,1.406,1.406H42.362a1.373,1.373,0,0,0,1.406-1.406V22.406A1.373,1.373,0,0,0,42.362,21ZM40.755,34.256H30.311V23.812H40.755Z" transform="translate(25.725 5.713)" fill="#fff"/>
      <path id="Path_123" data-name="Path 123" d="M95.7,47.669H83.849V22.362a1.373,1.373,0,0,0-1.406-1.406H70.593V9.106A1.373,1.373,0,0,0,69.187,7.7H29.018a1.373,1.373,0,0,0-1.406,1.406v11.85H15.762a1.373,1.373,0,0,0-1.406,1.406V47.669H2.506A1.373,1.373,0,0,0,1.1,49.075V75.787a1.373,1.373,0,0,0,1.406,1.406H15.762a1.373,1.373,0,0,0,1.406-1.406V63.937H27.612v11.85a1.373,1.373,0,0,0,1.406,1.406H42.274a1.373,1.373,0,0,0,1.406-1.406V63.937H54.124v11.85a1.373,1.373,0,0,0,1.406,1.406H69.187a1.373,1.373,0,0,0,1.406-1.406V63.937H81.037v11.85a1.373,1.373,0,0,0,1.406,1.406H95.7A1.373,1.373,0,0,0,97.1,75.787V49.075C97.306,48.271,96.5,47.669,95.7,47.669ZM94.293,74.381H83.849V62.531a1.373,1.373,0,0,0-1.406-1.406H69.187a1.373,1.373,0,0,0-1.406,1.406v11.85H57.136V62.531a1.373,1.373,0,0,0-1.406-1.406H42.475a1.373,1.373,0,0,0-1.406,1.406v11.85H30.625V62.531a1.373,1.373,0,0,0-1.406-1.406H15.762a1.373,1.373,0,0,0-1.406,1.406v11.85H3.912V50.48h11.85a1.373,1.373,0,0,0,1.406-1.406V23.969h11.85a1.373,1.373,0,0,0,1.406-1.406V10.512H67.58v11.85a1.373,1.373,0,0,0,1.406,1.406h11.85V49.075a1.373,1.373,0,0,0,1.406,1.406h11.85v23.9Z" transform="translate(-1.1 -7.7)" fill="#0c9eda"/>
    </g>
  </g>
</svg>
