<svg xmlns="http://www.w3.org/2000/svg" width="50.711" height="50.69" viewBox="0 0 50.711 50.69">
  <g id="Group_6495" data-name="Group 6495" transform="translate(-2783.156 -457.266)">
    <path id="Path_13487" data-name="Path 13487" d="M2783.156,484.49a1.144,1.144,0,0,1,1.067-.739c2.59.008,5.182-.042,7.77.041a3.119,3.119,0,0,1,3.06,3.191c.006.144.017.288.027.457h1.416v-8.4c-1.2,0-2.387.015-3.571-.011a1.566,1.566,0,0,1-.825-.246.953.953,0,0,1-.024-1.475c.605-.631,1.233-1.24,1.852-1.858q3.345-3.341,6.691-6.679a2.944,2.944,0,0,1,.49-.412.964.964,0,0,1,1.181.147.945.945,0,0,1,.135,1.183,2.977,2.977,0,0,1-.417.486q-3.22,3.221-6.445,6.435c-.116.116-.249.215-.374.321l.041.127a10.615,10.615,0,0,1,1.589.013,3.366,3.366,0,0,0,3.118-1.277c3.823-3.923,7.73-7.763,11.607-11.634.812-.811,1.217-.811,2.03,0q6.287,6.279,12.569,12.563a1.021,1.021,0,0,0,.817.341c.966-.023,1.932-.008,2.84-.008l-17.284-17.353c-.114.109-.246.229-.372.354q-2.032,2.028-4.064,4.056a2.469,2.469,0,0,1-.534.434.967.967,0,0,1-1.282-1.329,2.414,2.414,0,0,1,.406-.494q2.465-2.47,4.938-4.932c.713-.711,1.184-.714,1.889-.009q9.686,9.669,19.373,19.339c.373.372.653.762.415,1.31a1.105,1.105,0,0,1-1.189.607c-1.137-.012-2.275,0-3.448,0v15.722a3.829,3.829,0,0,1,2.983.1,3.5,3.5,0,0,1,1.017,5.905c-2.16,1.882-4.433,3.644-6.747,5.337a10.274,10.274,0,0,1-4.988,1.752,1.967,1.967,0,0,0-.322.093h-16.637c-.108-.031-.215-.068-.324-.09-.916-.187-1.844-.324-2.745-.566a19.262,19.262,0,0,1-4.963-2.481c-.261-.159-.527-.309-.863-.506a3.519,3.519,0,0,1-.814,2.535,4.123,4.123,0,0,1-1.878,1.107h-9.21Zm11.938,4.971a1.955,1.955,0,0,0-.034.239c0,3.993-.006,7.985.01,11.978a.694.694,0,0,0,.3.482c1.117.7,2.248,1.38,3.381,2.053a12.333,12.333,0,0,0,6.4,1.762q7.128.006,14.257,0a9.048,9.048,0,0,0,3.991-.8,16.18,16.18,0,0,0,2.74-1.648c1.72-1.307,3.376-2.7,5.048-4.067a1.574,1.574,0,0,0-.351-2.772,1.846,1.846,0,0,0-2.038.266c-1.737,1.312-3.485,2.61-5.217,3.929a3.055,3.055,0,0,1-1.928.642q-5.742-.008-11.485,0a5.911,5.911,0,0,1-3.317-.98c-.648-.425-1.3-.845-1.949-1.267-.345-.225-.7-.438-1.035-.677a1,1,0,0,1-.353-1.415,1.018,1.018,0,0,1,1.446-.231c.1.058.195.124.292.187.87.566,1.746,1.125,2.611,1.7a4.143,4.143,0,0,0,2.376.7c3.763-.011,7.525,0,11.287-.005.751,0,1.074-.317,1.1-1.069a1.258,1.258,0,0,0-1.35-1.4c-2.442,0-4.884-.019-7.327.006a4.524,4.524,0,0,1-3.452-1.424c-1.589-1.63-3.215-3.226-4.814-4.846a4.184,4.184,0,0,0-2.735-1.33c-.033,0-.065-.011-.1-.011Zm29.476,8.2c.581-.436,1.119-.868,1.688-1.255a.816.816,0,0,0,.381-.776q-.017-8.018-.008-16.036v-.574a1.752,1.752,0,0,1-1.7-.7q-5.977-5.994-11.974-11.966c-.126-.126-.259-.244-.484-.456a3.566,3.566,0,0,1-.332.462q-5.914,5.917-11.832,11.829c-.5.5-.962,1.015-1.778.849v8.433c1.147,0,2.267-.031,3.383.011a14.722,14.722,0,0,1,2.448.262,9.751,9.751,0,0,1,1.661.671v-.549q0-3.267,0-6.533c0-1.085.3-1.392,1.376-1.393h10.247c1.147,0,1.448.3,1.448,1.428q0,6.558,0,13.116v.6c.822,0,1.579-.011,2.335,0a3.019,3.019,0,0,1,2.917,1.982C2824.428,497.246,2824.486,497.433,2824.57,497.659Zm-39.4-11.918v20.235c2.178,0,4.321,0,6.464,0a1.3,1.3,0,0,0,1.438-1.435c.006-1.171,0-2.342,0-3.513q0-6.927,0-13.854c0-.837-.436-1.41-1.185-1.42C2789.663,485.722,2787.438,485.741,2785.173,485.741Zm31.934-3.791h-9.1c0,2.753,0,5.472.008,8.191a.621.621,0,0,0,.19.374q1.946,1.972,3.906,3.931a2.13,2.13,0,0,0,1.6.642c.874-.011,1.748,0,2.623,0h.767Z"/>
    <path id="Path_13488" data-name="Path 13488" d="M2816.507,470.395a.989.989,0,0,1,.96.992,1,1,0,0,1-1,.961,1.021,1.021,0,0,1-.966-1A1,1,0,0,1,2816.507,470.395Z" transform="translate(-12.133 -4.925)"/>
    <path id="Path_13489" data-name="Path 13489" d="M2827.9,478.144a3.853,3.853,0,1,1-3.862,3.814A3.881,3.881,0,0,1,2827.9,478.144Zm.006,1.98a1.862,1.862,0,0,0-1.888,1.863,1.877,1.877,0,1,0,1.888-1.863Z" transform="translate(-15.335 -7.831)" fill="#0c9eda"/>
    <path id="Path_13490" data-name="Path 13490" d="M2847.889,507.444c0,.972,0,1.944,0,2.916,0,.747-.409,1.222-1.011,1.206-.587-.016-.965-.476-.967-1.2q-.007-2.916,0-5.832c0-.767.381-1.2,1.011-1.193.6.011.963.444.967,1.187C2847.893,505.5,2847.889,506.471,2847.889,507.444Z" transform="translate(-23.537 -17.282)" fill="#0c9eda"/>
    <path id="Path_13491" data-name="Path 13491" d="M2846.946,497.311a.97.97,0,1,1-1.022.928A.986.986,0,0,1,2846.946,497.311Z" transform="translate(-23.543 -15.02)" fill="#0c9eda"/>
    <path id="Path_13492" data-name="Path 13492" d="M2792.074,526.67a.982.982,0,0,1,.038,1.964.982.982,0,1,1-.038-1.964Z" transform="translate(-2.983 -26.033)" fill="#0c9eda"/>
    <path id="Path_13493" data-name="Path 13493" d="M2825.977,505.614a1.022,1.022,0,0,1,.966,1,1,1,0,0,1-1,.96.984.984,0,0,1-.957-.994A1,1,0,0,1,2825.977,505.614Z" transform="translate(-15.69 -18.135)"/>
  </g>
</svg>
