<svg xmlns="http://www.w3.org/2000/svg" width="51.329" height="51.313" viewBox="0 0 51.329 51.313">
  <g id="Group_6497" data-name="Group 6497" transform="translate(-3121.581 -784.053)">
    <path id="Path_13499" data-name="Path 13499" d="M3121.581,820.032c.063-.149.132-.3.19-.448a2.829,2.829,0,0,1,2.616-1.85c1.736-.017,3.473-.013,5.209,0a2.9,2.9,0,0,1,2.017.877.615.615,0,0,0,.5.117c.415-.113.813-.285,1.221-.437-.221-.914-.49-1.79-.64-2.686a17.128,17.128,0,0,1,4.546-15.28c2.181-2.326,4.49-4.532,6.755-6.778a.658.658,0,0,0,.19-.816c-.648-1.787-1.268-3.582-1.886-5.379a1.8,1.8,0,0,1,2.814-2.074c.724.568,1.1.555,1.8-.06a4.488,4.488,0,0,1,6.027,0c.7.614,1.068.625,1.8.053a1.788,1.788,0,0,1,2.183-.112,1.753,1.753,0,0,1,.673,2.079q-.927,2.749-1.9,5.48a.663.663,0,0,0,.179.821c1.727,1.7,3.432,3.416,5.143,5.13a3.086,3.086,0,0,1,.369.408.975.975,0,0,1-.145,1.276,1.01,1.01,0,0,1-1.247.089,3.254,3.254,0,0,1-.4-.373c-1.8-1.794-3.6-3.584-5.379-5.389a1.054,1.054,0,0,0-.833-.341q-3.431.019-6.863,0a1.059,1.059,0,0,0-.834.336c-2.327,2.349-4.743,4.615-6.988,7.039a15.175,15.175,0,0,0-3.55,15.46c.032.111.083.216.149.381.172-.054.341-.1.5-.161a12.775,12.775,0,0,1,10.3.472q3.275,1.557,6.54,3.136a3.874,3.874,0,0,1,2.5,4.318c0,.049,0,.1.013.275.564-.418,1.095-.756,1.563-1.168q3.874-3.408,7.715-6.853a1.322,1.322,0,0,0,.35-.579,15.394,15.394,0,0,0-.063-9.406c-.221-.694-.085-1.18.4-1.444a.967.967,0,0,1,1.436.617,24.258,24.258,0,0,1,.807,3.805c.14,1.5.033,3.022.033,4.469a9.92,9.92,0,0,1,1.9-.242,3.579,3.579,0,0,1,3.364,2.5,3.622,3.622,0,0,1-.927,4.05c-2.054,2.034-4.135,4.036-6.212,6.045-1.489,1.439-2.937,2.926-4.5,4.281a15.061,15.061,0,0,1-8.577,3.616,3.184,3.184,0,0,0-.386.084h-28.162c-.338-.162-.694-.3-1.014-.489a3.255,3.255,0,0,1-1.29-1.817Zm10.793,13.305c.073.006.2.022.332.022,6.111,0,12.224.023,18.336-.01a13.148,13.148,0,0,0,8.725-3.252c1.214-1.044,2.334-2.2,3.486-3.311q3.473-3.362,6.936-6.736a1.859,1.859,0,0,0,.648-1.84,1.828,1.828,0,0,0-3.106-.881q-4.892,4.336-9.779,8.678a9.246,9.246,0,0,1-3.169,1.872,7.644,7.644,0,0,1-4.854.36c-2.036-.638-4.066-1.292-6.1-1.939-1-.319-2-.629-3-.961a.971.971,0,0,1-.733-1.1.934.934,0,0,1,.854-.844,2.047,2.047,0,0,1,.728.129c3,.946,6.005,1.906,9.011,2.848a1.841,1.841,0,0,0,1.362-3.421c-2.418-1.166-4.832-2.342-7.269-3.467a10.354,10.354,0,0,0-5.468-.879c-2.451.247-4.592,1.448-6.939,2.155Zm-1.975-6.768q0-2.879,0-5.759c0-.761-.307-1.075-1.052-1.078q-2.354-.007-4.708,0c-.746,0-1.052.315-1.052,1.078q0,5.736,0,11.47c0,.778.309,1.078,1.1,1.08q2.3,0,4.607,0c.807,0,1.1-.3,1.1-1.131Q3130.4,829.4,3130.4,826.57Zm14.057-39.173c.006-.023-.016.013-.008.037.535,1.543,1.063,3.088,1.623,4.622a.564.564,0,0,0,.434.273c2.271.016,4.542,0,6.813.018a.471.471,0,0,0,.528-.39c.23-.714.483-1.42.729-2.128.286-.828.575-1.655.887-2.55a3.282,3.282,0,0,1-3.932-.612,2.406,2.406,0,0,0-3.322.08,2.983,2.983,0,0,1-2.2.922A12.911,12.911,0,0,1,3144.457,787.4Z"/>
    <path id="Path_13500" data-name="Path 13500" d="M3143.27,808.948c-.017-.845.325-1.283.882-1.342a1.023,1.023,0,0,1,1.1.93,1.338,1.338,0,0,0,2.028.986,1.025,1.025,0,0,0,.6-.915.944.944,0,0,0-.593-.911,2.785,2.785,0,0,0-.915-.2,3.3,3.3,0,0,1-3.077-2.565,3.11,3.11,0,0,1,1.959-3.412.71.71,0,0,0,.321-.41,1.04,1.04,0,0,1,1-.827.946.946,0,0,1,.959.792c.047.312.216.4.449.5a3.021,3.021,0,0,1,1.9,2.666,1,1,0,0,1-.938,1.139,1.026,1.026,0,0,1-1.057-.982,1.158,1.158,0,0,0-.958-1.074,1.373,1.373,0,0,0-1.449.449.948.948,0,0,0,.287,1.46,2.3,2.3,0,0,0,.948.248,3.294,3.294,0,0,1,3.135,2.617,3.112,3.112,0,0,1-1.966,3.361.734.734,0,0,0-.321.415,1.013,1.013,0,0,1-1.993-.016.78.78,0,0,0-.373-.426A3.078,3.078,0,0,1,3143.27,808.948Z" transform="translate(3.356 2.514)" fill="#0c9eda"/>
    <path id="Path_13501" data-name="Path 13501" d="M3157.063,800.548a.988.988,0,0,1,1.016-.957,1,1,0,1,1-.081,2A.991.991,0,0,1,3157.063,800.548Z" transform="translate(5.495 2.406)" fill="#0c9eda"/>
  </g>
</svg>
