<svg xmlns="http://www.w3.org/2000/svg" width="46.173" height="53.764" viewBox="0 0 46.173 53.764">
  <g id="Group_6500" data-name="Group 6500" transform="translate(-3701.85 -1200.871)">
    <path id="Path_13513" data-name="Path 13513" d="M3743.418,1200.871a1.355,1.355,0,0,1,.84,1.423c-.023,2.257-.013,4.514-.016,6.771,0,.105,0,.211,0,.315a1.093,1.093,0,1,1-2.179-.031c-.01-1.364,0-2.729,0-4.094v-.617c-.209.192-.349.31-.478.438q-5.882,5.885-11.762,11.771c-.874.874-1.278.875-2.141.006q-1.72-1.733-3.438-3.466c-.121-.122-.249-.238-.409-.391-1.49,1.5-2.954,2.976-4.425,4.447q-7.7,7.705-15.413,15.395a1.8,1.8,0,0,1-1.061.544,1.416,1.416,0,0,1-.917-.548.865.865,0,0,1,.053-1.077,3.274,3.274,0,0,1,.387-.426q10.151-10.154,20.3-20.3c.823-.823,1.34-.823,2.174,0q1.848,1.828,3.692,3.657a.434.434,0,0,0,.105.051l11.522-11.68h-.879q-1.654,0-3.308.005c-.83,0-1.243-.243-1.405-.821-.153-.547.084-.964.777-1.37Z" transform="translate(0)" fill="#0c9eda"/>
    <path id="Path_13514" data-name="Path 13514" d="M3744.524,1238.733l2.077-.265v-.637q0-8.162,0-16.324c0-1.049.33-1.389,1.372-1.394q1.864-.009,3.727,0c.98.006,1.311.349,1.312,1.34q0,9.133-.01,18.266a1.183,1.183,0,0,0,.5,1.041c3.566,2.93,4.97,6.708,3.836,11.172a10.227,10.227,0,0,1-8.757,7.99,10.8,10.8,0,0,1-10.71-16.536,1.636,1.636,0,0,0,.232-.822q.021-7.664.01-15.328c0-1.143.327-1.473,1.462-1.475,1.208,0,2.415,0,3.622,0,.964,0,1.329.373,1.33,1.335q0,5.486,0,10.971Zm2.4,19.14a8.607,8.607,0,1,0-8.608-8.559A8.6,8.6,0,0,0,3746.927,1257.873Zm3.858-18.715v-16.844h-2v15.455a3.1,3.1,0,0,0,.012.627.471.471,0,0,0,.253.312C3749.614,1238.876,3750.19,1239.008,3750.785,1239.158Zm-10.452-11.2v12.724c.561-.333,1.065-.678,1.611-.938a.672.672,0,0,0,.424-.729q-.015-5.266-.006-10.533v-.524Z" transform="translate(-9.696 -5.44)"/>
    <path id="Path_13515" data-name="Path 13515" d="M3733.48,1247.583q0,4.723,0,9.447c0,1.121-.351,1.465-1.48,1.467-1.207,0-2.414.007-3.622,0-.912-.006-1.317-.407-1.317-1.317q-.007-9.605,0-19.211c0-.931.413-1.335,1.354-1.34q1.863-.01,3.727,0c.944.006,1.335.4,1.337,1.35Q3733.486,1242.779,3733.48,1247.583Zm-2.208,8.717v-17.452h-2V1256.3Z" transform="translate(-7.128 -10.109)"/>
    <path id="Path_13516" data-name="Path 13516" d="M3721.515,1249.775q0,4.067,0,8.133c0,1.108-.365,1.47-1.483,1.473-1.189,0-2.378.006-3.567,0-.994-.007-1.367-.379-1.368-1.367q-.005-8.263,0-16.526c0-.988.384-1.363,1.367-1.364q1.837,0,3.673,0c.971,0,1.376.4,1.378,1.363Q3721.52,1245.63,3721.515,1249.775Zm-4.228-7.452v14.961h2.012v-14.961Z" transform="translate(-3.745 -11.099)"/>
    <path id="Path_13517" data-name="Path 13517" d="M3703.123,1258.073c0-1.223-.006-2.446,0-3.669a1.1,1.1,0,0,1,1.219-1.243q1.993-.018,3.984,0a1.1,1.1,0,0,1,1.206,1.214q.014,3.748,0,7.5a1.069,1.069,0,0,1-1.125,1.18q-2.1.041-4.193,0a1.032,1.032,0,0,1-1.087-1.149C3703.115,1260.624,3703.124,1259.349,3703.123,1258.073Zm4.191,2.912v-5.607h-1.979v5.607Z" transform="translate(-0.36 -14.783)"/>
    <path id="Path_13518" data-name="Path 13518" d="M3748.914,1263.887a3.589,3.589,0,0,1-2.523-2.591,3.418,3.418,0,0,1-.1-.881,1.032,1.032,0,0,1,.96-1.055,1.108,1.108,0,0,1,1.163.922,4.026,4.026,0,0,0,.125.665,1.324,1.324,0,0,0,1.523.826,1.362,1.362,0,0,0,1.092-1.3,1.347,1.347,0,0,0-1.094-1.346c-.361-.066-.735-.065-1.09-.151a3.529,3.529,0,0,1-.5-6.682.661.661,0,0,0,.489-.763,1.112,1.112,0,0,1,1.06-1.29,1.1,1.1,0,0,1,1.093,1.265,1.009,1.009,0,0,0,.6,1.056,3.306,3.306,0,0,1,1.637,2.611,1.159,1.159,0,0,1-.95,1.441c-.664.083-1.137-.367-1.239-1.176a1.356,1.356,0,0,0-2.478-.665,1.352,1.352,0,0,0,.022,1.573,1.558,1.558,0,0,0,1.281.59,3.526,3.526,0,0,1,2.663,5.632,2.109,2.109,0,0,1-.494.537c-.6.4-1.18.751-1.157,1.647.011.439-.619.735-1.1.683a1.082,1.082,0,0,1-.945-.915C3748.922,1264.315,3748.925,1264.105,3748.914,1263.887Z" transform="translate(-12.566 -13.96)" fill="#0c9eda"/>
  </g>
</svg>
