<svg xmlns="http://www.w3.org/2000/svg" width="67.772" height="67.772" viewBox="0 0 67.772 67.772">
  <g id="Group_5677" data-name="Group 5677" transform="translate(-308.611 -191.172)">
    <path id="Path_12219" data-name="Path 12219" d="M308.611,244.6a1.7,1.7,0,0,1,1.655-.695c.543.045,1.095.01,1.741.01v-.891q0-17.438-.006-34.875a6.767,6.767,0,0,1,6.2-7.081c2.415-.126,4.842-.042,7.306-.042v2.223h-.738c-1.941,0-3.883-.016-5.824,0a4.46,4.46,0,0,0-4.675,4.718q-.012,17.637,0,35.272c0,.2.018.39.031.672h.8c5.581,0,11.161.008,16.742-.011a1.8,1.8,0,0,1,1.625.677,4.093,4.093,0,0,0,3.865,1.631c3.99-.121,7.984-.029,11.977-.058a1.426,1.426,0,0,0,1.014-.422,4.84,4.84,0,0,1,4.475-1.86c5.005.127,10.014.044,15.02.044h.858c.014-.276.04-.506.04-.738q0-17.538,0-35.072a4.5,4.5,0,0,0-4.876-4.855c-1.875-.006-3.75,0-5.624,0h-.748V201.07c.056-.024.114-.073.172-.073,2.381.006,4.767-.073,7.143.048a6.63,6.63,0,0,1,6.171,6.308c.019.4.024.795.024,1.191v35.369c.729,0,1.4-.006,2.073,0,.922.013,1.317.411,1.323,1.343.007,1.059.013,2.118,0,3.177a4.5,4.5,0,0,1-4.514,4.5c-2.845.023-5.692.006-8.537.006H314.287c-3.4,0-4.372-.635-5.676-3.706Zm65.5,1.572h-.856c-5.932,0-11.866.061-17.8-.039-1.668-.027-3,.26-3.98,1.667a1.675,1.675,0,0,1-1.512.638c-4.433-.018-8.866.011-13.3-.016-3.148-.019-2.078.408-4.331-1.8a1.434,1.434,0,0,0-1.093-.463q-9.824.022-19.65.01h-.732v1.683c0,2.042.793,2.829,2.848,2.829h57.559c.243,0,.487.011.729-.008a2.244,2.244,0,0,0,2.105-2.092C374.153,247.814,374.114,247.042,374.114,246.17Z" transform="translate(0 6.001)" fill="#024"/>
    <path id="Path_12220" data-name="Path 12220" d="M336.4,191.172c.424.1.849.193,1.272.3a10.216,10.216,0,0,1,7.7,9.477c.042,1.066-.364,1.5-1.428,1.507-1.191.006-2.382,0-3.574,0-1.464,0-1.615-.131-1.817-1.557a3.373,3.373,0,0,0-6.29-1.214,2.348,2.348,0,0,0-.355.983c-.04,1.315-.016,2.632-.016,4.048h.75q6.683,0,13.368,0c2.542,0,3.883,1.336,3.883,3.869q0,3.608-.006,7.214a.952.952,0,0,1-.044.179h-2.205v-.717q0-3.407,0-6.815c0-1.054-.387-1.462-1.423-1.462q-11.019-.01-22.038,0c-1,0-1.4.413-1.4,1.419q0,7.609,0,15.22c0,1.04.4,1.43,1.451,1.431q5.1,0,10.191,0h.751v2.254h-.609q-5.194,0-10.389,0a3.4,3.4,0,0,1-3.65-3.693q0-7.578,0-15.154a3.43,3.43,0,0,1,3.741-3.745c.221,0,.44,0,.769,0,0-.308-.013-.584,0-.858a32.423,32.423,0,0,1,.334-4.929,9.96,9.96,0,0,1,8.284-7.636,2.172,2.172,0,0,0,.363-.121Zm6.641,9.024a7.77,7.77,0,0,0-4.736-6.116,7.554,7.554,0,0,0-7.866.966c-3.3,2.455-3.34,5.993-3.085,9.633h2.2c0-1.107-.016-2.181,0-3.253a5.659,5.659,0,0,1,11.074-1.723c.064.2.295.455.469.471C341.706,200.231,342.323,200.2,343.039,200.2Z" transform="translate(7.287 0)" fill="#024"/>
    <path id="Path_12221" data-name="Path 12221" d="M322.51,203.866v2.184h-.7c-1.567,0-3.132-.006-4.7,0-.945,0-1.333.387-1.333,1.322q0,14.885,0,29.773c0,.15.026.3.042.485H363.2V207.643c0-1.285-.308-1.591-1.6-1.593-1.694,0-3.388,0-5.126,0v-2.21c2.094,0,4.165-.089,6.226.031a3.186,3.186,0,0,1,2.737,2.973c.02.263.018.529.018.793V238.27c0,1.357-.308,1.662-1.681,1.662q-24.284,0-48.566,0c-1.377,0-1.685-.3-1.685-1.659q0-15.349,0-30.7c0-2.471,1.319-3.782,3.806-3.783,1.675,0,3.351.01,5.026.016A.618.618,0,0,1,322.51,203.866Z" transform="translate(3.005 7.722)" fill="#024"/>
    <path id="Path_12222" data-name="Path 12222" d="M337.569,215.776v2.184h-.83c-4.235,0-8.469-.021-12.7.011a3.381,3.381,0,1,0,.194,6.757q6.352,0,12.7,0c3.7,0,7.41-.047,11.115.018,1.97.035,3.458-.548,4.17-2.555l2.112.55a5.528,5.528,0,0,1-5.313,4.233c-2.845.029-5.69.008-8.536.008-5.426,0-10.85.01-16.276,0a5.622,5.622,0,0,1-5.729-6.419,5.481,5.481,0,0,1,4.973-4.805c4.651-.1,9.306-.037,13.96-.04A.62.62,0,0,1,337.569,215.776Z" transform="translate(6.011 15.012)" fill="#024"/>
    <path id="Path_12223" data-name="Path 12223" d="M346.806,216.051l2.1-.3c1.049,3-1.3,7.583-4.755,9.319a9.032,9.032,0,0,1-10.141-14.755,8.921,8.921,0,0,1,11.184-.664l-1.227,1.764c-3.664-1.786-6.707-1.411-8.94,1.082a6.772,6.772,0,0,0,7.062,10.986C345.166,222.539,346.878,219.882,346.806,216.051Z" transform="translate(13.724 10.295)" fill="#0c9eda"/>
    <path id="Path_12224" data-name="Path 12224" d="M332.475,214.339h-2.266c0-.537-.035-1.041.01-1.539a.947.947,0,0,0-.7-1.119,4.369,4.369,0,0,1-2.674-4.383,4.511,4.511,0,1,1,6.261,4.426c-.5.2-.682.435-.635.956S332.475,213.733,332.475,214.339Zm1.119-6.738a2.252,2.252,0,0,0-4.5-.027,2.252,2.252,0,1,0,4.5.027Z" transform="translate(11.152 7.285)" fill="#024"/>
    <path id="Path_12225" data-name="Path 12225" d="M345.287,209.6l1.562,1.63c-.081.09-.2.235-.334.368q-3.6,3.6-7.2,7.2c-.832.83-1.335.827-2.17,0-1.032-1.02-2.065-2.038-3.108-3.066l1.6-1.58,2.5,2.655Z" transform="translate(15.56 11.28)" fill="#0c9eda"/>
    <path id="Path_12226" data-name="Path 12226" d="M324.119,220.713h-2.17V218.53h2.17Z" transform="translate(8.163 16.743)" fill="#024"/>
    <path id="Path_12227" data-name="Path 12227" d="M324.744,218.525h2.167V220.7h-2.167Z" transform="translate(9.873 16.74)" fill="#024"/>
    <path id="Path_12228" data-name="Path 12228" d="M329.733,218.53V220.7h-2.176V218.53Z" transform="translate(11.595 16.743)" fill="#024"/>
    <path id="Path_12229" data-name="Path 12229" d="M330.372,218.528h2.167V220.7h-2.167Z" transform="translate(13.318 16.742)" fill="#024"/>
  </g>
</svg>
