<svg xmlns="http://www.w3.org/2000/svg" width="71.259" height="67.772" viewBox="0 0 71.259 67.772">
  <g id="Group_6517" data-name="Group 6517" transform="translate(-464 -1568.931)">
    <g id="Group_5675" data-name="Group 5675" transform="translate(-305.257 1216.321)">
      <path id="Path_13378" data-name="Path 13378" d="M794.412,377.44a14.347,14.347,0,0,1-3.512,7.115c-.456.555-.9,1.121-1.357,1.672a6.925,6.925,0,0,0-1.913,5.44,11.866,11.866,0,0,1-.036,3.009,5.74,5.74,0,0,1-4.524,4.975c0,1.217-.036,2.456.014,3.691.026.631.539.985,1.278.991,1.411.011,2.824,0,4.237.005a3.45,3.45,0,1,1,.025,6.89q-6.5.011-13,0c-.191,0-.383-.008-.574,0a1.154,1.154,0,0,0-1.182,1.18,1.132,1.132,0,0,0,1.179,1.106c1.413.021,2.825.006,4.238.009a3.472,3.472,0,0,1,3.771,3.742c0,1.024,0,2.048,0,3.111h-2.3c0-.977,0-1.972,0-2.966,0-1.229-.356-1.587-1.571-1.589-1.365,0-2.729.01-4.094,0a3.444,3.444,0,1,1,0-6.887c4.357-.012,8.714,0,13.071,0,.215,0,.432.011.646-.006a1.147,1.147,0,0,0,1.136-1.152,1.123,1.123,0,0,0-1.154-1.13c-1.436-.025-2.873-.006-4.309-.01a3.467,3.467,0,0,1-3.724-3.719c0-1.076,0-2.151,0-3.263-.245-.077-.469-.142-.689-.218a5.748,5.748,0,0,1-3.9-5.324,29.374,29.374,0,0,1,.011-3.087,5.514,5.514,0,0,0-1.268-3.925c-.923-1.222-1.887-2.411-2.833-3.616a12.6,12.6,0,0,1,17.187-18.124l.691.494a15.233,15.233,0,0,1,2.612-7.823,14.845,14.845,0,0,1,6.352-5.28c-.084.9-.116,1.681-.252,2.447-.039.219-.35.424-.579.569a12.509,12.509,0,0,0-5.227,14.35,20.148,20.148,0,0,0,2.294,4.271c1.331,2.041,2.867,3.948,4.175,6a1.7,1.7,0,0,0,1.7.991c2.776-.06,5.554-.015,8.331-.036a.96.96,0,0,0,.693-.309c1.328-1.9,2.583-3.846,3.936-5.725a18.082,18.082,0,0,0,3.1-5.615,12.606,12.606,0,0,0-6.541-14.56c-.494-.244-.633-.46-.409-.97a15.1,15.1,0,0,0,.5-1.552,15.03,15.03,0,0,1,9.2,13.016,38.516,38.516,0,0,1,4.08-1.979,12.557,12.557,0,0,1,14.423,18.909c-.769,1.123-1.655,2.166-2.484,3.249-.393.513-.8,1.019-1.163,1.549a5.182,5.182,0,0,0-1.087,3.55c.077.782.014,1.578.014,2.369,0,3.451-1.271,5.233-4.591,6.39,0,1.177-.024,2.372.009,3.566a1.113,1.113,0,0,0,1.249,1.1c1.413.015,2.825,0,4.238.006a3.455,3.455,0,1,1-.035,6.892q-6.427.006-12.856,0c-.191,0-.383-.006-.574,0a1.157,1.157,0,0,0-1.225,1.138,1.136,1.136,0,0,0,1.208,1.15c1.388.02,2.777.006,4.165.007a3.485,3.485,0,0,1,3.814,3.844c0,.979,0,1.96,0,2.995h-2.3c0-.963,0-1.935,0-2.908,0-1.283-.342-1.631-1.6-1.632-1.341,0-2.682.007-4.022,0a3.446,3.446,0,1,1-.015-6.888c4.357-.011,8.714,0,13.071,0,.192,0,.384.008.575,0a1.16,1.16,0,0,0,1.177-1.114,1.136,1.136,0,0,0-1.187-1.17c-1.413-.022-2.825-.006-4.238-.009a3.466,3.466,0,0,1-3.762-3.75c0-1.074,0-2.15,0-3.231a5.773,5.773,0,0,1-4.34-4.025,6.522,6.522,0,0,1-.246-1.622,22.983,22.983,0,0,1,.005-2.942,5.639,5.639,0,0,0-1.286-3.992c-.5-.672-1.012-1.336-1.547-1.979-1.878-2.26-3.543-4.629-3.959-7.793a23.2,23.2,0,0,0-3.457,5.248,2.031,2.031,0,0,0-.1.769c-.008,1.939-.014,3.877,0,5.817a3.54,3.54,0,0,1-1.931,3.352.859.859,0,0,0-.362.583,4.545,4.545,0,0,1-2.98,4.039.631.631,0,0,0-.483.73,6.1,6.1,0,0,1-.041,1.289,3.439,3.439,0,0,1-3.411,2.907c-1.1.017-2.2,0-3.3.007a2.3,2.3,0,1,0-.008,4.59c3.423.01,6.846-.015,10.27.011a5.725,5.725,0,0,1,2.279,10.959,9.026,9.026,0,0,1-2.147.506,8.639,8.639,0,0,1-1.361.017c-2.161,0-2.183.02-2.3,2.241h-2.177a3.554,3.554,0,0,1,3.62-4.539c.647,0,1.293.006,1.938,0a3.445,3.445,0,1,0,.019-6.888c-3.446-.015-6.894.027-10.34-.02a4.586,4.586,0,0,1-.008-9.17c1.077-.023,2.154,0,3.232-.008a1.615,1.615,0,0,0,1.41-2.356c-.065-.12-.264-.179-.413-.241a4.62,4.62,0,0,1-3.012-4.1.854.854,0,0,0-.382-.575,3.488,3.488,0,0,1-1.907-3.289c.008-1.963.013-3.925-.009-5.888a2.079,2.079,0,0,0-.235-1.022c-1-1.648-2.041-3.271-3.068-4.9Zm36.952,10.768.148.053c.081-.105.169-.205.241-.317.748-1.162,1.455-2.352,2.248-3.483.755-1.076,1.63-2.067,2.393-3.138a9.558,9.558,0,0,0,1.8-5.07,10.324,10.324,0,0,0-18.131-7.385,5.3,5.3,0,0,0-.742,1.355c-.466,1.07-.906,2.153-1.335,3.239a4.033,4.033,0,0,0-.408,1.348,15.948,15.948,0,0,0,.2,2.92,12.215,12.215,0,0,0,2.928,5.433A20.185,20.185,0,0,1,824.016,388c.043.1.179.171.36.335v-9.281c-.4,0-.76.007-1.116,0a3.445,3.445,0,1,1,3.461-3.44c.008.371,0,.742,0,1.107h2.3c0-.414-.009-.79,0-1.167a3.444,3.444,0,1,1,3.469,3.5c-.375.01-.75,0-1.131,0Zm-48.306-11.48c0-.463-.011-.846,0-1.228a3.445,3.445,0,1,1,3.557,3.551c-.4.016-.8,0-1.2,0v9.274c.161-.128.266-.169.3-.239a21.25,21.25,0,0,1,3.472-5.072,13.087,13.087,0,0,0,2.7-4.771,7.539,7.539,0,0,0,.139-4.318c-.473-1.443-1.133-2.825-1.72-4.23a2.316,2.316,0,0,0-.3-.484,10.33,10.33,0,0,0-18.225,8.506,13.21,13.21,0,0,0,2.9,5.375,20.642,20.642,0,0,1,3.389,4.957c.038.091.2.13.341.216v-9.212c-.421,0-.8.01-1.178,0a3.445,3.445,0,1,1,3.513-3.527c.013.4,0,.795,0,1.2Zm-.052,11.488v-9.1h-2.212v9.1Zm43.766-9.125v9.1h2.213v-9.1ZM800.326,385.9h9.1V383.69h-9.1Zm-.033,2.377c0,.388-.009.7,0,1.007a1.148,1.148,0,0,0,1.246,1.255c2.245.014,4.49.008,6.735,0a1.088,1.088,0,0,0,1.172-.943,7.688,7.688,0,0,0,.014-1.321Zm-14.978,4.536v-2.225h-6.806v2.225Zm39.145-.016h6.8v-2.217h-6.8Zm-39.423,2.386h-6.264a3.3,3.3,0,0,0,6.264,0Zm45.953.008h-6.261A3.3,3.3,0,0,0,828,397.439,3.221,3.221,0,0,0,830.99,395.193Zm-23.836-2.275H802.6a2.328,2.328,0,0,0,2.344,2.225A2.27,2.27,0,0,0,807.153,392.919Zm-28.7-16.167c0-.462.028-.843-.006-1.217a1.133,1.133,0,0,0-1.207-1.065,1.16,1.16,0,0,0-1.069,1.065,1.131,1.131,0,0,0,1.061,1.211C777.6,376.78,777.985,376.752,778.45,376.752Zm6.912.008c.351,0,.632,0,.914,0a2.313,2.313,0,0,0,.357-.012,1.144,1.144,0,0,0-.11-2.28,1.134,1.134,0,0,0-1.155,1.046C785.332,375.89,785.362,376.273,785.362,376.76Zm39.054-.011c0-.478.03-.861-.007-1.238a1.133,1.133,0,0,0-1.157-1.044,1.16,1.16,0,0,0-1.119,1.091,1.134,1.134,0,0,0,1.015,1.184A12.664,12.664,0,0,0,824.415,376.749Zm6.914,0a12.515,12.515,0,0,0,1.261-.008,1.135,1.135,0,0,0,1.021-1.178,1.159,1.159,0,0,0-1.113-1.1,1.135,1.135,0,0,0-1.163,1.038C831.3,375.882,831.329,376.266,831.329,376.75Z" fill="#024"/>
      <path id="Path_13379" data-name="Path 13379" d="M782.764,387.662h-2.212v-9.1h2.212Z" transform="translate(0.241 0.554)" fill="#fff"/>
      <path id="Path_13380" data-name="Path 13380" d="M825.569,378.538h2.213v9.1h-2.213Z" transform="translate(1.203 0.554)" fill="#fff"/>
    </g>
    <circle id="Ellipse_25" data-name="Ellipse 25" cx="7" cy="7" r="7" transform="translate(493 1574)" fill="#0c9eda"/>
  </g>
</svg>
