<svg xmlns="http://www.w3.org/2000/svg" width="51.148" height="50.195" viewBox="0 0 51.148 50.195">
  <g id="Group_5256" data-name="Group 5256" transform="translate(-305.375 -423.678)">
    <path id="Path_4452" data-name="Path 4452" d="M351.96,423.68q-21.014,0-42.024,0a4.443,4.443,0,0,0-.818.04,4.242,4.242,0,0,0-3.742,4.429V469.3a4.283,4.283,0,0,0,4.664,4.567l20.911,0,20.961,0a4.279,4.279,0,0,0,4.611-4.52q0-20.576,0-41.154A4.3,4.3,0,0,0,351.96,423.68Zm1.995,45.629c0,1.387-.657,2.033-2.07,2.033H310.017c-1.416,0-2.075-.644-2.075-2.027V438.149h46.012Zm0-33.745H307.947l0-2.334c0-1.816-.006-3.618.012-5.42a1.692,1.692,0,0,1,1.619-1.6c.127-.009.255-.008.382-.006l.138,0h41.714c1.5,0,2.145.63,2.145,2.107Z" transform="translate(0 0)" fill="#fff"/>
    <path id="Path_4453" data-name="Path 4453" d="M326.037,441.341l-1.9,4.44q-2.962,6.9-5.906,13.816a2.373,2.373,0,0,0-.18,1.172,1.285,1.285,0,0,0,1.17,1.037,1.4,1.4,0,0,0,1.475-.98q4.828-11.255,9.648-22.515a3.579,3.579,0,0,0,.152-.482c.014-.052.029-.1.042-.153l-.019-.126a2.392,2.392,0,0,0-.04-.24,1.379,1.379,0,0,0-1.2-1.06c-.052-.005-.1-.008-.154-.008a1.375,1.375,0,0,0-1.28.889Q326.934,439.234,326.037,441.341Z" transform="translate(6.696 3.909)" fill="#0c9eda"/>
    <path id="Path_4454" data-name="Path 4454" d="M321.149,453.854a1.345,1.345,0,0,0-.546-1.433q-1.6-1.285-3.2-2.563l-3.5-2.812.423-.351c.125-.1.234-.2.346-.287l1.772-1.415q2.082-1.662,4.156-3.33a1.379,1.379,0,0,0,.287-2.01,1.333,1.333,0,0,0-1.045-.516,1.5,1.5,0,0,0-.936.347c-3.033,2.408-5.679,4.526-8.088,6.471a1.34,1.34,0,0,0-.008,2.16c2.457,1.986,5.315,4.289,8.142,6.488a1.856,1.856,0,0,0,1.185.265A1.17,1.17,0,0,0,321.149,453.854Z" transform="translate(3.352 7.472)" fill="#0c9eda"/>
    <path id="Path_4455" data-name="Path 4455" d="M327.891,454.931a1.526,1.526,0,0,0,1.126-.356q4.014-3.189,8.006-6.4a1.365,1.365,0,0,0,0-2.268q-3.991-3.217-8.005-6.4a1.566,1.566,0,0,0-.968-.361,1.536,1.536,0,0,0-.155.008,1.337,1.337,0,0,0-.9.523,1.387,1.387,0,0,0,.322,2.008c.5.4.995.8,1.494,1.2L334,447.028l-.428.359c-.121.1-.223.187-.325.27l-1.861,1.489q-2.033,1.626-4.067,3.259a1.375,1.375,0,0,0-.315,2.006A1.317,1.317,0,0,0,327.891,454.931Z" transform="translate(10.655 7.468)" fill="#0c9eda"/>
    <path id="Path_4456" data-name="Path 4456" d="M337.681,427.546q-1.651,0-3.3,0H328.3a1.417,1.417,0,0,0-1.605,1.374,1.3,1.3,0,0,0,.369.947,1.685,1.685,0,0,0,1.212.445q4.689,0,9.38,0a1.678,1.678,0,0,0,1.211-.447,1.289,1.289,0,0,0,.366-.949A1.4,1.4,0,0,0,337.681,427.546Z" transform="translate(10.658 2.652)" fill="#fff"/>
    <path id="Path_4457" data-name="Path 4457" d="M310.76,427.4a1.628,1.628,0,1,1-1.6,1.641A1.647,1.647,0,0,1,310.76,427.4Z" transform="translate(2.597 2.553)" fill="#fff"/>
    <path id="Path_4458" data-name="Path 4458" d="M316.28,429.047a1.627,1.627,0,1,1-1.593-1.647A1.648,1.648,0,0,1,316.28,429.047Z" transform="translate(4.261 2.553)" fill="#fff"/>
    <path id="Path_4459" data-name="Path 4459" d="M318.537,427.4a1.628,1.628,0,1,1-1.647,1.593A1.645,1.645,0,0,1,318.537,427.4Z" transform="translate(6.414 2.553)" fill="#fff"/>
  </g>
</svg>
