<svg xmlns="http://www.w3.org/2000/svg" width="74.465" height="79.735" viewBox="0 0 74.465 79.735">
  <g id="Group_6502" data-name="Group 6502" transform="translate(-3984.234 -1416.451)">
    <path id="Path_13535" data-name="Path 13535" d="M4042.976,1470.871c3.415,0,6.653,0,9.894,0,1.42,0,1.838.413,1.838,1.818q0,7.892,0,15.786v1.011c.786,0,1.522,0,2.259,0,1.292.008,1.726.448,1.729,1.761q.006,2.242,0,4.487c0,1.29-.45,1.729-1.761,1.729q-16.284,0-32.569,0h-38.134c-1.638,0-1.994-.356-1.994-1.995,0-1.467-.008-2.936,0-4.4.008-1.088.487-1.562,1.574-1.577.771-.011,1.541,0,2.412,0v-16.645c0-1.6.364-1.969,1.935-1.97,3.21,0,6.421,0,9.787,0a25.133,25.133,0,0,1-3.062-19.064,24.5,24.5,0,0,1,11.138-15.6,25.13,25.13,0,0,1,29.648,2,24.718,24.718,0,0,1,8.718,15.321A25.246,25.246,0,0,1,4042.976,1470.871Zm-21.491,5.318c4.042,0,8.085.011,12.127-.017a2.1,2.1,0,0,0,1.2-.4c7.507-5.892,10.579-13.581,8.711-22.938a22.548,22.548,0,0,0-44.5,2.491c-.767,8.469,2.39,15.3,9.135,20.46a2.274,2.274,0,0,0,1.285.383C4013.455,1476.2,4017.47,1476.189,4021.485,1476.189Zm-30.562,13.238h61.06v-15.9c-3.556,0-7.044,0-10.533.007a.8.8,0,0,0-.523.161c-.754.783-1.48,1.592-2.339,2.527h5.444v2.578h-45.109v-2.657h5.383c-.731-.779-1.347-1.492-2.031-2.131a1.724,1.724,0,0,0-1.041-.464c-2.769-.037-5.539-.021-8.307-.021h-2ZM4056,1492.2h-69.035v2.563H4056Z" transform="translate(0 -1.278)"/>
    <path id="Path_13536" data-name="Path 13536" d="M4018.016,1422.619l1.792-1.761,2.775,2.925.249-.144v-7.188h2.661v7.321l2.947-3.066,1.8,1.989c-1.7,1.743-3.455,3.582-5.255,5.376a1.09,1.09,0,0,1-1.591,0C4021.582,1426.287,4019.818,1424.455,4018.016,1422.619Z" transform="translate(-2.724 0)"/>
    <path id="Path_13537" data-name="Path 13537" d="M4008.7,1428.449c-1.786,1.8-3.506,3.565-5.262,5.291a1.216,1.216,0,0,1-1.858.036c-1.779-1.74-3.522-3.517-5.3-5.3l1.959-1.967,2.9,3.137v-7.4h2.652v7.339l2.932-3.119Z" transform="translate(-0.972 -0.467)"/>
    <path id="Path_13538" data-name="Path 13538" d="M4047.236,1422.256v7.153l.178.109,2.747-3.018,1.864,1.986a3.317,3.317,0,0,1-.292.373q-2.316,2.325-4.642,4.642c-.908.9-1.517.9-2.41.01-1.667-1.658-3.326-3.323-5.024-5.021l1.987-1.822,2.874,2.994v-7.406Z" transform="translate(-4.469 -0.468)"/>
    <path id="Path_13539" data-name="Path 13539" d="M4007.109,1456.669h-2.643c.194-6.259,2.622-11.388,7.709-14.99,6.27-4.441,13.037-4.921,19.808-1.279,6.349,3.415,9.414,9.021,9.778,16.3h-2.671a15.968,15.968,0,0,0-6.376-12.709,15.345,15.345,0,0,0-10.651-3.211A16.038,16.038,0,0,0,4007.109,1456.669Z" transform="translate(-1.631 -1.735)" fill="#0c9eda"/>
    <path id="Path_13540" data-name="Path 13540" d="M4023.9,1449.669a9.305,9.305,0,1,1-9.294,9.212A9.331,9.331,0,0,1,4023.9,1449.669Zm6.658,9.363a6.647,6.647,0,1,0-6.729,6.59A6.656,6.656,0,0,0,4030.562,1459.032Z" transform="translate(-2.449 -2.678)" fill="#0c9eda"/>
    <path id="Path_13541" data-name="Path 13541" d="M4004.526,1463.843v-2.559h2.557v2.559Z" transform="translate(-1.636 -3.615)"/>
    <path id="Path_13542" data-name="Path 13542" d="M4042.146,1461.256h2.537v2.582h-2.537Z" transform="translate(-4.67 -3.613)"/>
    <path id="Path_13543" data-name="Path 13543" d="M4041.822,1467.07v2.558h-2.571v-2.558Z" transform="translate(-4.436 -4.082)"/>
    <path id="Path_13544" data-name="Path 13544" d="M4036.042,1471.431v2.546h-2.586v-2.546Z" transform="translate(-3.969 -4.433)"/>
    <path id="Path_13545" data-name="Path 13545" d="M4027.67,1476.87v-2.547h2.562v2.547Z" transform="translate(-3.502 -4.666)"/>
    <path id="Path_13546" data-name="Path 13546" d="M4054.832,1482.666h-2.556v-2.571h2.556Z" transform="translate(-5.486 -5.132)"/>
  </g>
</svg>
