<svg xmlns="http://www.w3.org/2000/svg" width="68.716" height="66.907" viewBox="0 0 68.716 66.907">
  <g id="Group_80" data-name="Group 80" transform="translate(-1239 -4934)">
    <g id="Group_58" data-name="Group 58" transform="translate(1239 4934)">
      <circle id="Ellipse_28" data-name="Ellipse 28" cx="8.703" cy="8.703" r="8.703" transform="translate(22.154 26.901)" fill="#0c9eda"/>
      <g id="molecular">
        <path id="Path_154" data-name="Path 154" d="M49.829,28.86V16.942a6.463,6.463,0,1,0-3.216,0V28.86a10.789,10.789,0,0,0-7.837,5.487l-7.072-5.5a4.67,4.67,0,1,0-2.056,2.475l7.994,6.215a10.713,10.713,0,0,0,1.921,8.346l-9.039,9.039A1.608,1.608,0,0,0,32.8,57.2l9.039-9.039a10.708,10.708,0,0,0,4.776,1.984V62.088a4.662,4.662,0,1,0,3.216,0V50.143a10.762,10.762,0,0,0,0-21.283Zm-22.519-.12a1.446,1.446,0,1,1,1.446-1.446A1.448,1.448,0,0,1,27.311,28.74ZM44.974,10.681a3.247,3.247,0,1,1,3.247,3.247A3.251,3.251,0,0,1,44.974,10.681Zm3.247,57.228a1.446,1.446,0,0,1-.291-2.863,1.541,1.541,0,0,0,.581,0,1.446,1.446,0,0,1-.291,2.863Zm0-20.862a7.542,7.542,0,0,1-7.242-9.661c.01-.033.02-.066.029-.1a7.546,7.546,0,1,1,7.214,9.761Z" transform="translate(-17.793 -4.218)"/>
        <path id="Path_155" data-name="Path 155" d="M220.172,95.953a6.47,6.47,0,0,0-6.463,6.463c0,.166.008.33.021.493L202.1,106.874a1.608,1.608,0,1,0,1.038,3.044l11.627-3.964a6.462,6.462,0,1,0,5.405-10Zm0,9.711a3.247,3.247,0,1,1,3.247-3.247A3.251,3.251,0,0,1,220.172,105.664Z" transform="translate(-157.919 -76.287)"/>
        <path id="Path_156" data-name="Path 156" d="M6.463,250.44a6.463,6.463,0,1,0,6.463,6.463A6.47,6.47,0,0,0,6.463,250.44Zm0,9.711A3.247,3.247,0,1,1,9.71,256.9,3.251,3.251,0,0,1,6.463,260.151Z" transform="translate(0 -197.655)"/>
      </g>
    </g>
  </g>
</svg>
