<svg xmlns="http://www.w3.org/2000/svg" width="59.049" height="54.224" viewBox="0 0 59.049 54.224">
  <g id="Group_60" data-name="Group 60" transform="translate(-1240.682 -5296.545)">
    <path id="Path_173" data-name="Path 173" d="M1468.327,5397.946v14.743h-11.446l-5.952,1.831-4.761,5.036-.916,6.135H1428.13s.641-16.208,11.171-22.067,8.607-5.128,8.607-5.128Z" transform="translate(-169.907 -87.558)" fill="#0c9eda"/>
    <circle id="Ellipse_29" data-name="Ellipse 29" cx="2.428" cy="2.428" r="2.428" transform="translate(1288.418 5315.309)" fill="#fff"/>
    <circle id="Ellipse_31" data-name="Ellipse 31" cx="2.428" cy="2.428" r="2.428" transform="translate(1276.277 5316.523)" fill="#fff"/>
    <circle id="Ellipse_30" data-name="Ellipse 30" cx="2.428" cy="2.428" r="2.428" transform="translate(1265.35 5327.45)" fill="#fff"/>
    <g id="rare-01" transform="translate(1240.682 5296.545)">
      <path id="Path_157" data-name="Path 157" d="M59.049,37.7a13.462,13.462,0,0,1-.984,2.368,5.547,5.547,0,0,1-4.921,2.6H35.891V46.71h1.415a5.791,5.791,0,0,1,6.059,6.166A1.175,1.175,0,0,1,42.057,54.2H16.976a1.167,1.167,0,0,1-1.292-1.292,5.8,5.8,0,0,1,6.059-6.212h1.4V42.666H6.12A5.8,5.8,0,0,1,0,36.561V6.053A5.779,5.779,0,0,1,6.074-.021H24.127a1.217,1.217,0,0,1,1.307.738,1.142,1.142,0,0,1-1.076,1.568c-.83.031-1.645,0-2.476,0H6.028A3.5,3.5,0,0,0,2.307,6.007V36.623a3.475,3.475,0,0,0,3.706,3.721H16.746c.154-1.492.2-2.937.446-4.336,1.984-10.826,8.15-18.207,18.5-21.989a26.2,26.2,0,0,1,9.057-1.461H56.711c.015-.215.031-.415.031-.6V6.13a3.507,3.507,0,0,0-3.875-3.844H35.229c-.169,0-.354.015-.523,0a1.181,1.181,0,0,1-1.123-1.107A1.158,1.158,0,0,1,34.691-.006c.938-.031,1.891-.015,2.829-.015H52.975a5.715,5.715,0,0,1,5.982,4.813.721.721,0,0,0,.092.138ZM56.711,14.864c-1.938,0-3.814-.031-5.69,0-3.245.046-6.5-.077-9.734.261a24.052,24.052,0,0,0-15.639,8.227,25.051,25.051,0,0,0-6.366,14.285c-.092.892-.108,1.784-.169,2.676H33.522c.015-.123.015-.215.031-.308A12.77,12.77,0,0,1,46.547,27.535H56.711Zm.015,14.993h-10.3a10.451,10.451,0,0,0-9.949,6.966,9.638,9.638,0,0,0-.6,3.521H53.159a3.393,3.393,0,0,0,3.552-3.214C56.788,34.747,56.727,32.333,56.727,29.857Zm-38.6,22H41c-.062-.215-.092-.4-.154-.584A3.408,3.408,0,0,0,37.613,49q-8.1-.023-16.192,0a3.585,3.585,0,0,0-.907.123A3.225,3.225,0,0,0,18.13,51.862ZM33.538,42.7H25.511v3.967h8.027Z" transform="translate(0 0.025)"/>
      <path id="Path_158" data-name="Path 158" d="M52.582,82.5h6.1c.861,0,1.415.461,1.384,1.184-.015.692-.538,1.123-1.384,1.123H46.477c-.877,0-1.415-.461-1.384-1.184.015-.692.538-1.123,1.384-1.123Z" transform="translate(-38.158 -69.81)"/>
      <path id="Path_159" data-name="Path 159" d="M83.627,54.891H80.121A1.169,1.169,0,0,1,78.8,53.769c-.015-.692.507-1.169,1.338-1.169h7.135a1.169,1.169,0,0,1,1.322,1.123c.015.692-.523,1.169-1.338,1.184C86.041,54.907,84.841,54.891,83.627,54.891Z" transform="translate(-66.681 -44.508)"/>
      <path id="Path_160" data-name="Path 160" d="M250.184,36.8A1.154,1.154,0,1,1,249,37.951,1.178,1.178,0,0,1,250.184,36.8Z" transform="translate(-210.711 -31.136)"/>
      <path id="Path_161" data-name="Path 161" d="M285.007,37.952a1.153,1.153,0,1,1-1.123-1.153A1.168,1.168,0,0,1,285.007,37.952Z" transform="translate(-239.229 -31.136)"/>
      <path id="Path_162" data-name="Path 162" d="M318.8,37.967a1.169,1.169,0,0,1-1.2,1.138,1.154,1.154,0,1,1,1.2-1.138Z" transform="translate(-267.829 -31.135)"/>
      <path id="Path_163" data-name="Path 163" d="M47.307,53.652A1.153,1.153,0,1,1,46.123,52.5,1.178,1.178,0,0,1,47.307,53.652Z" transform="translate(-38.08 -44.421)"/>
      <path id="Path_164" data-name="Path 164" d="M187.074,1.252a1.122,1.122,0,0,1-1.123,1.138A1.156,1.156,0,0,1,184.8,1.267,1.168,1.168,0,0,1,185.967.1,1.123,1.123,0,0,1,187.074,1.252Z" transform="translate(-156.381 -0.079)"/>
      <path id="Path_165" data-name="Path 165" d="M310.888,115.951a3.744,3.744,0,1,1-3.721-3.752A3.718,3.718,0,0,1,310.888,115.951Zm-3.752,1.415a1.43,1.43,0,1,0-1.43-1.415A1.414,1.414,0,0,0,307.136,117.366Z" transform="translate(-256.745 -94.942)"/>
      <path id="Path_166" data-name="Path 166" d="M229.088,128.736a3.708,3.708,0,0,1-3.721,3.737,3.737,3.737,0,1,1,3.721-3.737Zm-3.706-1.43a1.423,1.423,0,1,0,1.4,1.43A1.421,1.421,0,0,0,225.382,127.306Z" transform="translate(-187.523 -105.774)"/>
      <path id="Path_167" data-name="Path 167" d="M158.736,204.473a3.737,3.737,0,1,1,3.737-3.721A3.731,3.731,0,0,1,158.736,204.473Zm1.415-3.767a1.43,1.43,0,1,0-1.384,1.461A1.415,1.415,0,0,0,160.151,200.706Z" transform="translate(-131.165 -166.703)"/>
    </g>
  </g>
</svg>
