<svg xmlns="http://www.w3.org/2000/svg" xmlns:xlink="http://www.w3.org/1999/xlink" width="678" height="388" viewBox="0 0 678 388">
  <defs>
    <radialGradient id="radial-gradient" cx="0.475" cy="0.517" r="1.391" gradientUnits="objectBoundingBox">
      <stop offset="0" stop-color="#42e8e0"/>
      <stop offset="0.106" stop-color="#36b5bf"/>
      <stop offset="0.22" stop-color="#2c87a0"/>
      <stop offset="0.338" stop-color="#235f86"/>
      <stop offset="0.459" stop-color="#1b3e71"/>
      <stop offset="0.582" stop-color="#162560"/>
      <stop offset="0.711" stop-color="#121355"/>
      <stop offset="0.846" stop-color="#0f084e"/>
      <stop offset="1" stop-color="#0f054c"/>
    </radialGradient>
    <clipPath id="clip-path">
      <rect id="Rectangle_9830" data-name="Rectangle 9830" width="678" height="388" transform="translate(966 5082)" fill="none" stroke="#707070" stroke-width="1"/>
    </clipPath>
    <linearGradient id="linear-gradient" x1="0.282" y1="-0.091" x2="1.021" y2="0.99" gradientUnits="objectBoundingBox">
      <stop offset="0" stop-color="#b8bfe9"/>
      <stop offset="0.192" stop-color="#bdc3ec"/>
      <stop offset="0.283" stop-color="#c1c6ec"/>
      <stop offset="0.409" stop-color="#b9c0ea"/>
      <stop offset="0.434" stop-color="#b9c0ea"/>
      <stop offset="0.535" stop-color="#bec4ea"/>
      <stop offset="0.722" stop-color="#afb6e5"/>
      <stop offset="0.909" stop-color="#afb6e5"/>
      <stop offset="1" stop-color="#b8bfe9"/>
    </linearGradient>
    <linearGradient id="linear-gradient-2" x1="0.975" y1="0.311" x2="0.061" y2="0.401" gradientUnits="objectBoundingBox">
      <stop offset="0" stop-color="#0c9eda"/>
      <stop offset="1" stop-color="#07729e"/>
    </linearGradient>
    <linearGradient id="linear-gradient-3" x1="0.643" y1="0.828" x2="0.357" y2="0.172" xlink:href="#radial-gradient"/>
    <clipPath id="clip-path-2">
      <path id="Path_13401" data-name="Path 13401" d="M378.944,320.513l-125.5-72.477c-5.6-3.233-4.9-8.88,1.569-12.613l243.592-140.6c6.466-3.733,16.246-4.138,21.847-.9l125.5,72.477c5.6,3.233,4.9,8.88-1.569,12.613l-243.592,140.6C394.325,323.34,384.545,323.746,378.944,320.513Z" transform="translate(-249.666 -91.735)" opacity="0.5" fill="url(#radial-gradient)" style="mix-blend-mode: lighten;isolation: isolate"/>
    </clipPath>
    <clipPath id="clip-path-3">
      <path id="Path_13452" data-name="Path 13452" d="M434.539,209.485,419,218.44l-61.87-35.721V114.025l77.406,44.691Z" transform="translate(-357.133 -114.025)" fill="none"/>
    </clipPath>
    <linearGradient id="linear-gradient-4" x1="0.005" y1="0.5" x2="0.989" y2="0.5" gradientUnits="objectBoundingBox">
      <stop offset="0" stop-color="#ff9e6e"/>
      <stop offset="0.192" stop-color="#ffe585"/>
      <stop offset="0.303" stop-color="#ffe4a7"/>
      <stop offset="0.429" stop-color="#ffe585"/>
      <stop offset="0.566" stop-color="#ff9e6e"/>
      <stop offset="0.677" stop-color="#ffa16f"/>
      <stop offset="0.774" stop-color="#ffac72"/>
      <stop offset="0.865" stop-color="#ffbd78"/>
      <stop offset="0.904" stop-color="#ffc87c"/>
      <stop offset="1" stop-color="#ff9e6e"/>
    </linearGradient>
    <linearGradient id="linear-gradient-5" x1="1.037" y1="-0.429" x2="0.059" y2="1.261" gradientUnits="objectBoundingBox">
      <stop offset="0.035" stop-color="#ff9e6e"/>
      <stop offset="0.304" stop-color="#ffad72"/>
      <stop offset="0.821" stop-color="#ffd580"/>
      <stop offset="1" stop-color="#ffe585"/>
    </linearGradient>
    <linearGradient id="linear-gradient-6" x1="-4790.923" y1="-1985.785" x2="7723.74" y2="3202.709" gradientUnits="objectBoundingBox">
      <stop offset="0.006" stop-color="#ffc816"/>
      <stop offset="0.061" stop-color="#fbce31"/>
      <stop offset="0.213" stop-color="#f1e078"/>
      <stop offset="0.284" stop-color="#eee795"/>
      <stop offset="0.367" stop-color="#e6d377"/>
      <stop offset="0.549" stop-color="#d4a02b"/>
      <stop offset="0.596" stop-color="#d09317"/>
      <stop offset="0.867" stop-color="#f2d372"/>
      <stop offset="0.871" stop-color="#f3d574"/>
      <stop offset="1" stop-color="#fcf7bd"/>
    </linearGradient>
    <linearGradient id="linear-gradient-7" x1="-4790.624" y1="-1986.073" x2="7724.039" y2="3202.421" xlink:href="#linear-gradient-6"/>
    <linearGradient id="linear-gradient-8" x1="-2489.416" y1="-2963.929" x2="2490.335" y2="2964.338" xlink:href="#linear-gradient-6"/>
    <linearGradient id="linear-gradient-9" x1="-2489.957" y1="-2964.078" x2="2489.793" y2="2964.19" xlink:href="#linear-gradient-6"/>
    <linearGradient id="linear-gradient-12" x1="-1.323" y1="-0.294" x2="1.775" y2="1.565" xlink:href="#linear-gradient-6"/>
    <linearGradient id="linear-gradient-18" x1="0.814" y1="0.5" x2="1.798" y2="0.5" gradientUnits="objectBoundingBox">
      <stop offset="0" stop-color="#dcdff6"/>
      <stop offset="0.318" stop-color="#e5e9ff"/>
      <stop offset="1" stop-color="#bdc3ec"/>
    </linearGradient>
    <linearGradient id="linear-gradient-19" y1="0.5" x2="1" y2="0.5" gradientUnits="objectBoundingBox">
      <stop offset="0" stop-color="#e9e9fd"/>
      <stop offset="0.36" stop-color="#d2d2f9"/>
      <stop offset="0.706" stop-color="#c4c3f6"/>
      <stop offset="1" stop-color="#c0bff6"/>
    </linearGradient>
    <linearGradient id="linear-gradient-20" x1="74.616" y1="-0.581" x2="75.408" y2="0.877" gradientUnits="objectBoundingBox">
      <stop offset="0" stop-color="#ced3f3"/>
      <stop offset="0.552" stop-color="#f4f4fb"/>
      <stop offset="1" stop-color="#f7f6fb"/>
    </linearGradient>
  </defs>
  <g id="Mask_Group_5" data-name="Mask Group 5" transform="translate(-966 -5082)" clip-path="url(#clip-path)">
    <g id="Group_6505" data-name="Group 6505" transform="translate(2456 4908.009)">
      <path id="Path_3765" data-name="Path 3765" d="M0,0,374.428,102.162,476.59,476.59,102.162,374.428Z" transform="translate(-1488 367.924) rotate(-45)" fill="none" stroke="#d2d2d2" stroke-width="0.5"/>
      <line id="Line_88" data-name="Line 88" y1="192.522" x2="337" transform="translate(-1167.047 358.756)" fill="none" stroke="#d2d2d2" stroke-width="0.5"/>
      <line id="Line_89" data-name="Line 89" y1="192.522" x2="337" transform="translate(-1183.095 349.588)" fill="none" stroke="#d2d2d2" stroke-width="0.5"/>
      <line id="Line_90" data-name="Line 90" y1="192.522" x2="337" transform="translate(-1199.142 340.42)" fill="none" stroke="#d2d2d2" stroke-width="0.5"/>
      <line id="Line_91" data-name="Line 91" y1="192.522" x2="337" transform="translate(-1215.19 331.253)" fill="none" stroke="#d2d2d2" stroke-width="0.5"/>
      <line id="Line_92" data-name="Line 92" y1="192.522" x2="337" transform="translate(-1231.238 322.085)" fill="none" stroke="#d2d2d2" stroke-width="0.5"/>
      <line id="Line_93" data-name="Line 93" y1="192.522" x2="337" transform="translate(-1247.285 312.918)" fill="none" stroke="#d2d2d2" stroke-width="0.5"/>
      <line id="Line_94" data-name="Line 94" y1="192.522" x2="337" transform="translate(-1263.333 303.75)" fill="none" stroke="#d2d2d2" stroke-width="0.5"/>
      <line id="Line_95" data-name="Line 95" y1="192.522" x2="337" transform="translate(-1279.381 294.582)" fill="none" stroke="#d2d2d2" stroke-width="0.5"/>
      <line id="Line_96" data-name="Line 96" y1="192.522" x2="337" transform="translate(-1295.428 285.414)" fill="none" stroke="#d2d2d2" stroke-width="0.5"/>
      <line id="Line_97" data-name="Line 97" y1="192.522" x2="337" transform="translate(-1311.476 276.247)" fill="none" stroke="#d2d2d2" stroke-width="0.5"/>
      <line id="Line_98" data-name="Line 98" y1="192.522" x2="337" transform="translate(-1327.523 267.079)" fill="none" stroke="#d2d2d2" stroke-width="0.5"/>
      <line id="Line_99" data-name="Line 99" y1="192.522" x2="337" transform="translate(-1343.571 257.911)" fill="none" stroke="#d2d2d2" stroke-width="0.5"/>
      <line id="Line_100" data-name="Line 100" y1="192.522" x2="337" transform="translate(-1359.619 248.744)" fill="none" stroke="#d2d2d2" stroke-width="0.5"/>
      <line id="Line_101" data-name="Line 101" y1="192.522" x2="337" transform="translate(-1375.666 239.576)" fill="none" stroke="#d2d2d2" stroke-width="0.5"/>
      <line id="Line_102" data-name="Line 102" y1="192.522" x2="337" transform="translate(-1391.714 230.408)" fill="none" stroke="#d2d2d2" stroke-width="0.5"/>
      <line id="Line_103" data-name="Line 103" y1="192.522" x2="337" transform="translate(-1407.762 221.241)" fill="none" stroke="#d2d2d2" stroke-width="0.5"/>
      <line id="Line_104" data-name="Line 104" y1="192.522" x2="337" transform="translate(-1423.809 212.073)" fill="none" stroke="#d2d2d2" stroke-width="0.5"/>
      <line id="Line_105" data-name="Line 105" y1="192.522" x2="337" transform="translate(-1439.857 202.905)" fill="none" stroke="#d2d2d2" stroke-width="0.5"/>
      <line id="Line_106" data-name="Line 106" y1="192.522" x2="337" transform="translate(-1455.904 193.737)" fill="none" stroke="#d2d2d2" stroke-width="0.5"/>
      <line id="Line_107" data-name="Line 107" y1="192.522" x2="337" transform="translate(-1471.952 184.57)" fill="none" stroke="#d2d2d2" stroke-width="0.5"/>
      <line id="Line_108" data-name="Line 108" x2="337" y2="192.522" transform="translate(-1167.047 184.57)" fill="none" stroke="#d2d2d2" stroke-width="0.5"/>
      <line id="Line_109" data-name="Line 109" x2="337" y2="192.522" transform="translate(-1183.095 193.737)" fill="none" stroke="#d2d2d2" stroke-width="0.5"/>
      <line id="Line_110" data-name="Line 110" x2="337" y2="192.522" transform="translate(-1199.142 202.905)" fill="none" stroke="#d2d2d2" stroke-width="0.5"/>
      <line id="Line_111" data-name="Line 111" x2="337" y2="192.522" transform="translate(-1215.19 212.073)" fill="none" stroke="#d2d2d2" stroke-width="0.5"/>
      <line id="Line_112" data-name="Line 112" x2="337" y2="192.522" transform="translate(-1231.238 221.241)" fill="none" stroke="#d2d2d2" stroke-width="0.5"/>
      <line id="Line_113" data-name="Line 113" x2="337" y2="192.522" transform="translate(-1247.285 230.408)" fill="none" stroke="#d2d2d2" stroke-width="0.5"/>
      <line id="Line_114" data-name="Line 114" x2="337" y2="192.522" transform="translate(-1263.333 239.576)" fill="none" stroke="#d2d2d2" stroke-width="0.5"/>
      <line id="Line_115" data-name="Line 115" x2="337" y2="192.522" transform="translate(-1279.381 248.744)" fill="none" stroke="#d2d2d2" stroke-width="0.5"/>
      <line id="Line_116" data-name="Line 116" x2="337" y2="192.522" transform="translate(-1295.428 257.911)" fill="none" stroke="#d2d2d2" stroke-width="0.5"/>
      <line id="Line_117" data-name="Line 117" x2="337" y2="192.522" transform="translate(-1311.476 267.079)" fill="none" stroke="#d2d2d2" stroke-width="0.5"/>
      <line id="Line_118" data-name="Line 118" x2="337" y2="192.522" transform="translate(-1327.523 276.247)" fill="none" stroke="#d2d2d2" stroke-width="0.5"/>
      <line id="Line_119" data-name="Line 119" x2="337" y2="192.522" transform="translate(-1343.571 285.414)" fill="none" stroke="#d2d2d2" stroke-width="0.5"/>
      <line id="Line_120" data-name="Line 120" x2="337" y2="192.522" transform="translate(-1359.619 294.582)" fill="none" stroke="#d2d2d2" stroke-width="0.5"/>
      <line id="Line_121" data-name="Line 121" x2="337" y2="192.522" transform="translate(-1375.666 303.75)" fill="none" stroke="#d2d2d2" stroke-width="0.5"/>
      <line id="Line_122" data-name="Line 122" x2="337" y2="192.522" transform="translate(-1391.714 312.918)" fill="none" stroke="#d2d2d2" stroke-width="0.5"/>
      <line id="Line_123" data-name="Line 123" x2="337" y2="192.522" transform="translate(-1407.762 322.085)" fill="none" stroke="#d2d2d2" stroke-width="0.5"/>
      <line id="Line_124" data-name="Line 124" x2="337" y2="192.522" transform="translate(-1423.809 331.253)" fill="none" stroke="#d2d2d2" stroke-width="0.5"/>
      <line id="Line_125" data-name="Line 125" x2="337" y2="192.522" transform="translate(-1439.857 340.42)" fill="none" stroke="#d2d2d2" stroke-width="0.5"/>
      <line id="Line_126" data-name="Line 126" x2="337" y2="192.522" transform="translate(-1455.904 349.588)" fill="none" stroke="#d2d2d2" stroke-width="0.5"/>
      <line id="Line_127" data-name="Line 127" x2="337" y2="192.522" transform="translate(-1471.952 358.756)" fill="none" stroke="#d2d2d2" stroke-width="0.5"/>
    </g>
    <g id="Group_5678" data-name="Group 5678" transform="translate(1104.868 5168.116)">
      <path id="Path_13393" data-name="Path 13393" d="M390.043,353.88a20.259,20.259,0,0,1-9.943-2.286L249.962,276.46c-2.609-1.505-4.047-3.6-4.047-5.9,0-2.761,2.067-5.537,5.668-7.615l248.2-143.3c6.748-3.9,17-4.317,22.857-.936l130.136,75.134c2.609,1.507,4.047,3.6,4.047,5.9,0,2.761-2.065,5.537-5.667,7.615l-248.2,143.3A26.54,26.54,0,0,1,390.043,353.88Zm-9.663-2.771c5.7,3.291,15.7,2.874,22.3-.936l248.2-143.3c3.424-1.976,5.387-4.576,5.387-7.13,0-2.092-1.337-4.016-3.766-5.418L522.356,119.193c-5.7-3.288-15.7-2.871-22.3.936l-248.2,143.3c-3.422,1.978-5.387,4.576-5.387,7.13,0,2.092,1.337,4.016,3.766,5.418Z" transform="translate(-245.915 -116.424)" fill="#0c9eda"/>
    </g>
    <g id="Group_5679" data-name="Group 5679" transform="translate(1105.149 5133.485)" style="mix-blend-mode: normal;isolation: isolate">
      <path id="Path_13394" data-name="Path 13394" d="M656.458,170.02l-18.695,3.219-115.349-66.6c-5.787-3.34-15.9-2.922-22.577.937L279.162,234.985l-33.046,5.69v11.717l.014,0c-.016,2.136,1.254,4.178,3.892,5.7l130.138,75.134c5.787,3.342,15.894,2.922,22.576-.936l248.2-143.3c3.6-2.077,5.451-4.726,5.51-7.252l.018,0Z" transform="translate(-246.114 -86.771)" fill="url(#linear-gradient)"/>
      <path id="Path_13395" data-name="Path 13395" d="M380.157,326.582,250.02,251.448c-5.786-3.342-5.061-9.177,1.621-13.035l248.2-143.3c6.682-3.859,16.79-4.277,22.578-.936l130.136,75.134c5.787,3.34,5.061,9.177-1.621,13.035l-248.2,143.3C396.052,329.5,385.945,329.923,380.157,326.582Z" transform="translate(-246.114 -91.925)" fill="#0c6fb0"/>
      <path id="Path_13396" data-name="Path 13396" d="M650.927,157.818l-248.2,143.3c-6.682,3.858-16.789,4.276-22.576.936L250.017,226.917c-2.32-1.34-3.575-3.083-3.838-4.938-.358,2.406.891,4.755,3.838,6.457L380.155,303.57c5.787,3.342,15.894,2.922,22.576-.936l248.2-143.3c4-2.31,5.851-5.329,5.459-8.1C656.042,153.556,654.207,155.926,650.927,157.818Z" transform="translate(-246.111 -67.393)" fill="#fff"/>
      <path id="Path_13397" data-name="Path 13397" d="M378.944,322.8l-125.5-72.477c-5.6-3.233-4.9-8.88,1.569-12.613l243.592-140.6c6.466-3.733,16.246-4.139,21.847-.9l125.5,72.477c5.6,3.233,4.9,8.88-1.569,12.613L400.791,321.9C394.325,325.63,384.545,326.035,378.944,322.8Z" transform="translate(-244.645 -91.057)" fill="url(#linear-gradient-2)"/>
    </g>
    <g id="Group_5680" data-name="Group 5680" transform="translate(1109.766 5132.822)">
      <path id="Path_13398" data-name="Path 13398" d="M388.547,323.205a19.771,19.771,0,0,1-9.687-2.225L253.362,248.5c-2.568-1.483-3.982-3.554-3.982-5.828,0-2.721,2.023-5.448,5.55-7.486l243.594-140.6c6.566-3.79,16.547-4.2,22.251-.9l125.5,72.477c2.568,1.483,3.982,3.554,3.982,5.828,0,2.72-2.023,5.449-5.551,7.486l-243.592,140.6A25.823,25.823,0,0,1,388.547,323.205Zm-9.281-2.926c5.479,3.165,15.1,2.758,21.441-.906L644.3,178.772c3.271-1.889,5.147-4.362,5.147-6.785,0-1.973-1.271-3.794-3.578-5.127L520.37,94.383c-5.48-3.165-15.1-2.758-21.442.9l-243.592,140.6c-3.271,1.889-5.147,4.361-5.147,6.785,0,1.975,1.271,3.8,3.578,5.127Z" transform="translate(-249.38 -91.456)" opacity="0.8" fill="url(#linear-gradient-3)"/>
    </g>
    <g id="Group_5683" data-name="Group 5683" transform="translate(1110.171 5133.216)" opacity="0.1">
      <g id="Group_5682" data-name="Group 5682" clip-path="url(#clip-path-2)">
        <g id="Group_5681" data-name="Group 5681" transform="translate(203.498 149.694)">
          <path id="Path_13400" data-name="Path 13400" d="M453.649,247.84c0-15.763-11.067-34.931-24.719-42.811-6.839-3.948-13.028-4.314-17.5-1.716h0l-4.673,2.734,1.357.127c-2.464,3.017-3.9,7.462-3.9,13.126,0,15.763,11.067,34.931,24.718,42.811,4.692,2.708,9.077,3.732,12.813,3.268l-.1,1.254,4.744-2.776.058-.035.192-.112-.011,0C450.967,261.071,453.649,255.592,453.649,247.84Z" transform="translate(-389.248 -195.97)" fill="#9ffff8"/>
          <ellipse id="Ellipse_26" data-name="Ellipse 26" cx="20.182" cy="34.956" rx="20.182" ry="34.956" transform="translate(0 20.183) rotate(-30.002)" fill="#42e8e0"/>
        </g>
      </g>
    </g>
    <path id="Path_13402" data-name="Path 13402" d="M513.5,154.475a7.663,7.663,0,0,1-6.938,0c-1.915-1.105-1.915-2.9,0-4a7.669,7.669,0,0,1,6.936,0C515.414,151.577,515.414,153.37,513.5,154.475Z" transform="translate(966.155 5065.43)" fill="#24126a" opacity="0.4"/>
    <path id="Path_13403" data-name="Path 13403" d="M494.674,139.6l13.579,7.841c1.66.957,1.452,2.631-.464,3.736h0a7.2,7.2,0,0,1-6.473.269l-13.58-7.841c-1.658-.957-1.45-2.629.465-3.736h0A7.2,7.2,0,0,1,494.674,139.6Z" transform="translate(958.501 5061.011)" fill="#24126a" opacity="0.4"/>
    <path id="Path_13404" data-name="Path 13404" d="M439.874,106.336l13.579,7.84c1.659.958,1.452,2.631-.465,3.737h0a7.191,7.191,0,0,1-6.471.267l-13.58-7.84c-1.658-.958-1.45-2.631.465-3.736h0A7.19,7.19,0,0,1,439.874,106.336Z" transform="translate(935.837 5047.252)" fill="#24126a" opacity="0.4"/>
    <path id="Path_13405" data-name="Path 13405" d="M513.5,151.033a7.672,7.672,0,0,1-6.938,0c-1.915-1.107-1.915-2.9,0-4.006a7.669,7.669,0,0,1,6.936,0C515.414,148.133,515.414,149.926,513.5,151.033Z" transform="translate(966.155 5064.005)" fill="#0c9eda"/>
    <path id="Path_13406" data-name="Path 13406" d="M494.674,136.158,508.253,144c1.66.957,1.452,2.631-.464,3.736h0a7.191,7.191,0,0,1-6.473.269l-13.58-7.84c-1.658-.958-1.45-2.631.465-3.738h0A7.2,7.2,0,0,1,494.674,136.158Z" transform="translate(958.501 5059.586)" fill="#0c9eda"/>
    <path id="Path_13407" data-name="Path 13407" d="M439.874,102.892l13.579,7.84c1.659.958,1.452,2.631-.465,3.737h0a7.2,7.2,0,0,1-6.471.269l-13.58-7.841c-1.658-.957-1.45-2.631.465-3.736h0A7.19,7.19,0,0,1,439.874,102.892Z" transform="translate(935.837 5045.828)" fill="#0c9eda"/>
    <g id="Group_5718" data-name="Group 5718" transform="translate(1264.233 5214.563)" opacity="0.1">
      <path id="Path_13447" data-name="Path 13447" d="M418.675,199.489c0-15.763-11.067-34.931-24.718-42.811-6.839-3.948-13.029-4.314-17.5-1.716h0l-4.673,2.734,1.357.127c-2.464,3.017-3.9,7.462-3.9,13.126,0,15.763,11.067,34.931,24.718,42.811,4.69,2.708,9.076,3.732,12.813,3.268l-.1,1.254,4.744-2.776.059-.034.192-.113-.011,0C416,212.72,418.675,207.241,418.675,199.489Z" transform="translate(-354.276 -147.619)" fill="#9ffff8"/>
      <ellipse id="Ellipse_29" data-name="Ellipse 29" cx="20.182" cy="34.956" rx="20.182" ry="34.956" transform="translate(0 20.183) rotate(-30.001)" fill="#42e8e0"/>
    </g>
    <path id="Path_13448" data-name="Path 13448" d="M404.018,226.741c-17.053,0-34.105-3.747-47.086-11.242-12.625-7.288-19.577-16.994-19.577-27.329s6.952-20.037,19.575-27.324c25.962-14.991,68.206-14.99,94.171,0,12.623,7.288,19.577,16.994,19.575,27.327S463.725,208.212,451.1,215.5l-.123-.212.123.212C438.121,222.994,421.07,226.741,404.018,226.741Zm0-76.654c-16.963,0-33.927,3.726-46.84,11.184-12.465,7.2-19.329,16.749-19.329,26.9s6.864,19.708,19.331,26.9c25.829,14.916,67.853,14.916,93.682,0h0c12.465-7.2,19.329-16.748,19.329-26.9s-6.866-19.705-19.331-26.9C437.94,153.814,420.978,150.088,404.015,150.088Z" transform="translate(896.77 5065.414)" fill="#42e8e0" opacity="0.4"/>
    <path id="Path_13449" data-name="Path 13449" d="M409.26,240.1c-21.643,0-43.279-4.754-59.755-14.267-16.006-9.242-24.822-21.543-24.822-34.64s8.815-25.4,24.821-34.64c32.947-19.022,86.556-19.021,119.5,0C485.014,165.8,493.83,178.1,493.83,191.2s-8.815,25.4-24.821,34.64C452.538,235.348,430.9,240.1,409.26,240.1Zm-.006-97.329c-21.551,0-43.1,4.735-59.506,14.208-15.848,9.15-24.575,21.3-24.575,34.214s8.727,25.065,24.576,34.214c32.813,18.948,86.2,18.949,119.014,0,15.848-9.149,24.575-21.3,24.575-34.214s-8.727-25.064-24.576-34.214C452.357,147.511,430.8,142.775,409.254,142.775Z" transform="translate(891.53 5062.39)" fill="#42e8e0" opacity="0.2"/>
    <path id="Path_13450" data-name="Path 13450" d="M399.888,216.216c-13.437,0-26.876-2.953-37.108-8.86-9.957-5.749-15.442-13.408-15.442-21.567s5.483-15.815,15.44-21.565c20.463-11.81,53.755-11.81,74.215,0,9.959,5.75,15.443,13.409,15.443,21.567S446.952,201.607,437,207.356l-.123-.212.123.212C426.765,213.263,413.326,216.216,399.888,216.216Zm0-60.368c-13.35,0-26.7,2.933-36.863,8.8-9.8,5.657-15.2,13.166-15.2,21.14s5.4,15.483,15.2,21.141c20.327,11.738,53.4,11.736,73.726,0,9.8-5.657,15.2-13.165,15.2-21.14s-5.4-15.483-15.2-21.141C426.586,158.781,413.236,155.848,399.886,155.848Z" transform="translate(900.899 5067.797)" fill="#0c9eda"/>
    <g id="Group_5721" data-name="Group 5721" transform="translate(1262.083 5164.725)" style="mix-blend-mode: normal;isolation: isolate">
      <g id="Group_5720" data-name="Group 5720" clip-path="url(#clip-path-3)">
        <g id="Group_5719" data-name="Group 5719" transform="translate(2.15 49.838)">
          <path id="Path_13451" data-name="Path 13451" d="M418.675,199.489c0-15.763-11.067-34.931-24.718-42.811-6.839-3.948-13.029-4.314-17.5-1.716h0l-4.673,2.734,1.357.127c-2.464,3.017-3.9,7.462-3.9,13.126,0,15.763,11.067,34.931,24.718,42.811,4.69,2.708,9.076,3.732,12.813,3.268l-.1,1.254,4.744-2.776.059-.034.192-.113-.011,0C416,212.72,418.675,207.241,418.675,199.489Z" transform="translate(-354.276 -147.619)" fill="url(#linear-gradient-4)"/>
          <ellipse id="Ellipse_30" data-name="Ellipse 30" cx="20.182" cy="34.956" rx="20.182" ry="34.956" transform="translate(0 20.183) rotate(-30.001)" fill="url(#linear-gradient-5)"/>
        </g>
      </g>
    </g>
    <g id="Group_5722" data-name="Group 5722" transform="translate(1154.772 5264.044)" style="mix-blend-mode: normal;isolation: isolate">
      <path id="Path_13453" data-name="Path 13453" d="M360.765,251.592l-77.632-44.82a3.435,3.435,0,0,1,0-5.95l11.851-6.9a12.8,12.8,0,0,1,12.8,0l77.63,44.82a3.435,3.435,0,0,1,0,5.95l-11.851,6.9A12.8,12.8,0,0,1,360.765,251.592Z" transform="translate(-281.136 -181.011)" fill="#024" opacity="0.4"/>
      <path id="Path_13454" data-name="Path 13454" d="M313.692,204.325l-12.426-7.174,2.471-1.427,12.425,7.174Z" transform="translate(-272.926 -179.556)" fill="#0c9eda"/>
      <path id="Path_13455" data-name="Path 13455" d="M335.952,217.533l-3.816-2.2,2.471-1.427,3.816,2.2Z" transform="translate(-260.16 -172.037)" fill="#0c9eda"/>
      <path id="Path_13456" data-name="Path 13456" d="M316.265,205.887l-3.816-2.2,2.471-1.427,3.816,2.2Z" transform="translate(-268.302 -176.854)" fill="#0c9eda"/>
      <path id="Path_13457" data-name="Path 13457" d="M367.248,245.94a13.073,13.073,0,0,1-6.542-1.749l-77.63-44.819a3.716,3.716,0,0,1,0-6.436l11.85-6.9a13.117,13.117,0,0,1,13.085,0l77.632,44.822a3.715,3.715,0,0,1,0,6.435l-11.851,6.9A13.074,13.074,0,0,1,367.248,245.94Zm-65.779-61.093a12.519,12.519,0,0,0-6.262,1.674l-11.851,6.9a3.155,3.155,0,0,0,0,5.465l77.632,44.82a12.554,12.554,0,0,0,12.523,0l11.851-6.9a3.153,3.153,0,0,0,0-5.462l-77.631-44.822A12.519,12.519,0,0,0,301.469,184.847Z" transform="translate(-281.218 -184.286)" fill="#0c9eda"/>
    </g>
    <g id="Group_6252" data-name="Group 6252" transform="translate(1297.911 5236.642)">
      <g id="Group_6247" data-name="Group 6247">
        <path id="Path_13459" data-name="Path 13459" d="M0,0V0Z" fill="url(#linear-gradient-6)"/>
        <path id="Path_13460" data-name="Path 13460" d="M0,0V0Z" transform="translate(0.001)" fill="url(#linear-gradient-7)"/>
        <path id="Path_13461" data-name="Path 13461" d="M0,0V0H0Z" transform="translate(0.001 18.873)" fill="url(#linear-gradient-8)"/>
        <path id="Path_13463" data-name="Path 13463" d="M0,0H0Z" transform="translate(0 18.873)" fill="url(#linear-gradient-9)"/>
      </g>
    </g>
    <g id="Group_6510" data-name="Group 6510" transform="translate(-44.69 31.109)">
      <path id="Path_13445" data-name="Path 13445" d="M460.423,180.6c0-17.923-12.583-39.716-28.106-48.678-7.776-4.489-14.813-4.905-19.9-1.951v0l-5.314,3.108,1.543.145c-2.8,3.43-4.433,8.485-4.433,14.925,0,17.923,12.583,39.717,28.1,48.679,5.335,3.078,10.32,4.242,14.568,3.716l-.117,1.424,5.394-3.157.066-.039.219-.129-.013,0C457.374,195.648,460.423,189.42,460.423,180.6Z" transform="translate(971.082 5001.554)" fill="url(#linear-gradient-4)"/>
      <ellipse id="Ellipse_27" data-name="Ellipse 27" cx="22.947" cy="39.746" rx="22.947" ry="39.746" transform="translate(1358.279 5146.128) rotate(-30.002)" fill="url(#linear-gradient-5)"/>
    </g>
    <g id="Group_6251" data-name="Group 6251" transform="translate(1344.5 5185.628)" style="mix-blend-mode: normal;isolation: isolate">
      <g id="Group_6247-2" data-name="Group 6247" transform="translate(0 0.005)">
        <path id="Path_13458" data-name="Path 13458" d="M5.89,15.785,0,.146V21.6Z" transform="translate(5.782 0)" fill="url(#linear-gradient-12)"/>
        <path id="Path_13459-2" data-name="Path 13459" d="M0,0V0Z" transform="translate(5.781 0.141)" fill="url(#linear-gradient-6)"/>
        <path id="Path_13460-2" data-name="Path 13460" d="M0,0V0Z" transform="translate(5.781 0.14)" fill="url(#linear-gradient-7)"/>
        <path id="Path_13461-2" data-name="Path 13461" d="M0,0V0H0Z" transform="translate(5.781 21.599)" fill="url(#linear-gradient-8)"/>
        <path id="Path_13462" data-name="Path 13462" d="M0,0,5.707,13.394v0L11.523.04,5.708,5.627Z" transform="translate(0.073 17.754)" fill="#ffe585"/>
        <path id="Path_13463-2" data-name="Path 13463" d="M0,0H0Z" transform="translate(5.781 21.6)" fill="url(#linear-gradient-9)"/>
        <path id="Path_13464" data-name="Path 13464" d="M5.781,21.454V0L0,15.636Z" transform="translate(0 0.146)" fill="#ffe585"/>
      </g>
      <g id="Group_6248" data-name="Group 6248" transform="translate(5.781)">
        <path id="Path_13465" data-name="Path 13465" d="M5.892,15.79,0,.146V21.607Z" fill="#ffe585"/>
        <path id="Path_13466" data-name="Path 13466" d="M0,13.374v0L5.815.02,0,5.607Z" transform="translate(0 17.779)" fill="#ffe585"/>
      </g>
      <g id="Group_6249" data-name="Group 6249" transform="translate(0 11.888)">
        <path id="Path_13467" data-name="Path 13467" d="M0,0H0Z" transform="translate(5.781 0.034)" fill="#ff9e6e" style="mix-blend-mode: multiply;isolation: isolate"/>
        <path id="Path_13468" data-name="Path 13468" d="M0,0H0Z" transform="translate(5.781 9.718)" fill="#ff9e6e" style="mix-blend-mode: multiply;isolation: isolate"/>
        <path id="Path_13469" data-name="Path 13469" d="M5.782.035,0,3.9,5.782,9.718,11.672,3.9Z" fill="url(#linear-gradient-5)"/>
      </g>
    </g>
    <g id="Group_6512" data-name="Group 6512" transform="translate(82 47.732)">
      <g id="Group_6511" data-name="Group 6511" transform="translate(-11.713 -1.768)">
        <path id="Path_13418" data-name="Path 13418" d="M476.092,297.275v-4.419l-1.223-.679c-.345,2.085-2.8,3.46-4.852,3.745l-13.974,8.172-6.1,2.2L430.479,296.25l.45-.259c-1.663-.777-2.559-2.555-3.46-4.177l-1.31.782-.779.219v4.531h0a2.906,2.906,0,0,0,1.713,2.391L446.6,311a9.168,9.168,0,0,0,8.283,0l19.5-11.259a2.932,2.932,0,0,0,1.712-2.349c0-.038,0-.076,0-.113Z" transform="translate(553.057 4929.984)" fill="url(#linear-gradient-18)"/>
        <g id="Group_5694" data-name="Group 5694" transform="translate(978.437 5208.201)">
          <path id="Path_13420" data-name="Path 13420" d="M446.6,306.312l-19.5-11.259c-2.283-1.318-2.283-3.464,0-4.782l19.5-11.259a9.168,9.168,0,0,1,8.283,0l19.5,11.259c2.283,1.318,2.283,3.464,0,4.782l-19.5,11.259A9.162,9.162,0,0,1,446.6,306.312Z" transform="translate(-425.38 -278.023)" fill="url(#linear-gradient-19)"/>
        </g>
        <g id="Group_5695" data-name="Group 5695" transform="translate(978.437 5208.201)" opacity="0.3">
          <path id="Path_13421" data-name="Path 13421" d="M446.6,306.312l-19.5-11.259c-2.283-1.318-2.283-3.464,0-4.782l19.5-11.259a9.168,9.168,0,0,1,8.283,0l19.5,11.259c2.283,1.318,2.283,3.464,0,4.782l-19.5,11.259A9.162,9.162,0,0,1,446.6,306.312Z" transform="translate(-425.38 -278.023)" fill="url(#linear-gradient-20)"/>
        </g>
      </g>
      <g id="Group_5704" data-name="Group 5704" transform="translate(966.724 5174.667)">
        <g id="Group_5703" data-name="Group 5703">
          <path id="Path_13422" data-name="Path 13422" d="M450.745,289.692a7.519,7.519,0,0,1-3.676-.877l-19.5-11.26a2.355,2.355,0,0,1,0-4.442l19.5-11.259a8.141,8.141,0,0,1,7.351,0l19.5,11.259a2.356,2.356,0,0,1,0,4.442l-19.5,11.259A7.515,7.515,0,0,1,450.745,289.692Zm-3.5-1.173a7.763,7.763,0,0,0,7.01,0l19.5-11.259a2.024,2.024,0,0,0,0-3.85l-19.5-11.259a7.759,7.759,0,0,0-7.011,0l-19.5,11.259a2.024,2.024,0,0,0,0,3.85Z" transform="translate(-425.389 -246.018)" fill="#12b2f3" opacity="0.95"/>
          <g id="Group_5702" data-name="Group 5702">
            <path id="Path_13423" data-name="Path 13423" d="M476.092,271.046v-6.679l-1.223-.68c-.345,2.086-2.8,3.46-4.852,3.746L456.045,275.6l-6.1,2.2-19.466-10.046.45-.259c-1.663-.778-2.559-2.556-3.46-4.177l-1.31.782-.779.219v6.791h0a2.909,2.909,0,0,0,1.713,2.391l19.5,11.259a9.162,9.162,0,0,0,8.283,0l19.5-11.259a2.93,2.93,0,0,0,1.712-2.349c0-.038,0-.076,0-.114Z" transform="translate(-425.38 -246.051)" fill="#024"/>
            <g id="Group_5701" data-name="Group 5701">
              <g id="Group_5700" data-name="Group 5700">
                <path id="Path_13424" data-name="Path 13424" d="M476.092,265.057v-4.419l-1.223-.68c-.345,2.086-2.8,3.46-4.852,3.746l-13.974,8.171-6.1,2.2-19.466-10.046.45-.259c-1.663-.778-2.559-2.556-3.46-4.177l-1.31.782-.779.219v4.531h0a2.909,2.909,0,0,0,1.713,2.391l19.5,11.259a9.162,9.162,0,0,0,8.283,0l19.5-11.259a2.93,2.93,0,0,0,1.712-2.348c0-.037,0-.076,0-.114Z" transform="translate(-425.38 -245.998)" fill="url(#linear-gradient-20)"/>
                <path id="Path_13425" data-name="Path 13425" d="M470.38,263.709l-13.974,8.171L451.1,273.8v5.974a8.468,8.468,0,0,0,4.142-.989l19.5-11.259a2.93,2.93,0,0,0,1.712-2.349c0-.037,0-.076,0-.114l0,0v-4.419l-1.117-.621h-.117C474.839,262.075,472.413,263.426,470.38,263.709Z" transform="translate(-425.742 -246.004)" fill="#0f054c" opacity="0.3"/>
                <g id="Group_5697" data-name="Group 5697">
                  <path id="Path_13426" data-name="Path 13426" d="M446.6,274.094l-19.5-11.259c-2.283-1.319-2.283-3.464,0-4.782l19.5-11.26a9.165,9.165,0,0,1,8.283,0l19.5,11.259c2.283,1.318,2.283,3.464,0,4.782l-19.5,11.259A9.169,9.169,0,0,1,446.6,274.094Z" transform="translate(-425.38 -245.804)" fill="url(#linear-gradient-2)"/>
                </g>
                <g id="Group_5698" data-name="Group 5698" transform="translate(5.375 3.035)">
                  <path id="Path_13427" data-name="Path 13427" d="M450.813,272.093a6.8,6.8,0,0,1-3.321-.792l-15.237-8.8a2.14,2.14,0,0,1,0-4.032l15.237-8.8a7.358,7.358,0,0,1,6.641,0l15.237,8.8a2.14,2.14,0,0,1,0,4.032l-15.237,8.8A6.8,6.8,0,0,1,450.813,272.093ZM447.663,271a6.974,6.974,0,0,0,6.3,0l15.237-8.8a1.806,1.806,0,0,0,0-3.439l-15.236-8.8a6.973,6.973,0,0,0-6.3,0l-15.237,8.8a1.806,1.806,0,0,0,0,3.439Z" transform="translate(-430.832 -248.882)" fill="#024"/>
                </g>
                <g id="Group_5699" data-name="Group 5699" transform="translate(0.001 14.915)">
                  <path id="Path_13428" data-name="Path 13428" d="M474.38,263.048l-19.5,11.259a9.169,9.169,0,0,1-8.283,0l-19.5-11.259a3.079,3.079,0,0,1-1.692-2.116,2.761,2.761,0,0,0,1.692,2.666l19.5,11.26a9.168,9.168,0,0,0,8.283,0l19.5-11.259a2.764,2.764,0,0,0,1.692-2.667A3.079,3.079,0,0,1,474.38,263.048Z" transform="translate(-425.381 -260.932)" fill="#fff"/>
                </g>
              </g>
            </g>
          </g>
        </g>
      </g>
    </g>
    <g id="Group_6513" data-name="Group 6513" transform="translate(293.752 -72.004)">
      <g id="Group_6511-2" data-name="Group 6511" transform="translate(-11.713 -1.768)">
        <path id="Path_13418-2" data-name="Path 13418" d="M476.092,297.275v-4.419l-1.223-.679c-.345,2.085-2.8,3.46-4.852,3.745l-13.974,8.172-6.1,2.2L430.479,296.25l.45-.259c-1.663-.777-2.559-2.555-3.46-4.177l-1.31.782-.779.219v4.531h0a2.906,2.906,0,0,0,1.713,2.391L446.6,311a9.168,9.168,0,0,0,8.283,0l19.5-11.259a2.932,2.932,0,0,0,1.712-2.349c0-.038,0-.076,0-.113Z" transform="translate(553.057 4929.984)" fill="url(#linear-gradient-18)"/>
        <g id="Group_5694-2" data-name="Group 5694" transform="translate(978.437 5208.201)">
          <path id="Path_13420-2" data-name="Path 13420" d="M446.6,306.312l-19.5-11.259c-2.283-1.318-2.283-3.464,0-4.782l19.5-11.259a9.168,9.168,0,0,1,8.283,0l19.5,11.259c2.283,1.318,2.283,3.464,0,4.782l-19.5,11.259A9.162,9.162,0,0,1,446.6,306.312Z" transform="translate(-425.38 -278.023)" fill="url(#linear-gradient-19)"/>
        </g>
        <g id="Group_5695-2" data-name="Group 5695" transform="translate(978.437 5208.201)" opacity="0.3">
          <path id="Path_13421-2" data-name="Path 13421" d="M446.6,306.312l-19.5-11.259c-2.283-1.318-2.283-3.464,0-4.782l19.5-11.259a9.168,9.168,0,0,1,8.283,0l19.5,11.259c2.283,1.318,2.283,3.464,0,4.782l-19.5,11.259A9.162,9.162,0,0,1,446.6,306.312Z" transform="translate(-425.38 -278.023)" fill="url(#linear-gradient-20)"/>
        </g>
      </g>
      <g id="Group_5704-2" data-name="Group 5704" transform="translate(966.724 5174.667)">
        <g id="Group_5703-2" data-name="Group 5703">
          <path id="Path_13422-2" data-name="Path 13422" d="M450.745,289.692a7.519,7.519,0,0,1-3.676-.877l-19.5-11.26a2.355,2.355,0,0,1,0-4.442l19.5-11.259a8.141,8.141,0,0,1,7.351,0l19.5,11.259a2.356,2.356,0,0,1,0,4.442l-19.5,11.259A7.515,7.515,0,0,1,450.745,289.692Zm-3.5-1.173a7.763,7.763,0,0,0,7.01,0l19.5-11.259a2.024,2.024,0,0,0,0-3.85l-19.5-11.259a7.759,7.759,0,0,0-7.011,0l-19.5,11.259a2.024,2.024,0,0,0,0,3.85Z" transform="translate(-425.389 -246.018)" fill="#12b2f3" opacity="0.95"/>
          <g id="Group_5702-2" data-name="Group 5702">
            <path id="Path_13423-2" data-name="Path 13423" d="M476.092,271.046v-6.679l-1.223-.68c-.345,2.086-2.8,3.46-4.852,3.746L456.045,275.6l-6.1,2.2-19.466-10.046.45-.259c-1.663-.778-2.559-2.556-3.46-4.177l-1.31.782-.779.219v6.791h0a2.909,2.909,0,0,0,1.713,2.391l19.5,11.259a9.162,9.162,0,0,0,8.283,0l19.5-11.259a2.93,2.93,0,0,0,1.712-2.349c0-.038,0-.076,0-.114Z" transform="translate(-425.38 -246.051)" fill="#024"/>
            <g id="Group_5701-2" data-name="Group 5701">
              <g id="Group_5700-2" data-name="Group 5700">
                <path id="Path_13424-2" data-name="Path 13424" d="M476.092,265.057v-4.419l-1.223-.68c-.345,2.086-2.8,3.46-4.852,3.746l-13.974,8.171-6.1,2.2-19.466-10.046.45-.259c-1.663-.778-2.559-2.556-3.46-4.177l-1.31.782-.779.219v4.531h0a2.909,2.909,0,0,0,1.713,2.391l19.5,11.259a9.162,9.162,0,0,0,8.283,0l19.5-11.259a2.93,2.93,0,0,0,1.712-2.348c0-.037,0-.076,0-.114Z" transform="translate(-425.38 -245.998)" fill="url(#linear-gradient-20)"/>
                <path id="Path_13425-2" data-name="Path 13425" d="M470.38,263.709l-13.974,8.171L451.1,273.8v5.974a8.468,8.468,0,0,0,4.142-.989l19.5-11.259a2.93,2.93,0,0,0,1.712-2.349c0-.037,0-.076,0-.114l0,0v-4.419l-1.117-.621h-.117C474.839,262.075,472.413,263.426,470.38,263.709Z" transform="translate(-425.742 -246.004)" fill="#0f054c" opacity="0.3"/>
                <g id="Group_5697-2" data-name="Group 5697">
                  <path id="Path_13426-2" data-name="Path 13426" d="M446.6,274.094l-19.5-11.259c-2.283-1.319-2.283-3.464,0-4.782l19.5-11.26a9.165,9.165,0,0,1,8.283,0l19.5,11.259c2.283,1.318,2.283,3.464,0,4.782l-19.5,11.259A9.169,9.169,0,0,1,446.6,274.094Z" transform="translate(-425.38 -245.804)" fill="url(#linear-gradient-2)"/>
                </g>
                <g id="Group_5698-2" data-name="Group 5698" transform="translate(5.375 3.035)">
                  <path id="Path_13427-2" data-name="Path 13427" d="M450.813,272.093a6.8,6.8,0,0,1-3.321-.792l-15.237-8.8a2.14,2.14,0,0,1,0-4.032l15.237-8.8a7.358,7.358,0,0,1,6.641,0l15.237,8.8a2.14,2.14,0,0,1,0,4.032l-15.237,8.8A6.8,6.8,0,0,1,450.813,272.093ZM447.663,271a6.974,6.974,0,0,0,6.3,0l15.237-8.8a1.806,1.806,0,0,0,0-3.439l-15.236-8.8a6.973,6.973,0,0,0-6.3,0l-15.237,8.8a1.806,1.806,0,0,0,0,3.439Z" transform="translate(-430.832 -248.882)" fill="#024"/>
                </g>
                <g id="Group_5699-2" data-name="Group 5699" transform="translate(0.001 14.915)">
                  <path id="Path_13428-2" data-name="Path 13428" d="M474.38,263.048l-19.5,11.259a9.169,9.169,0,0,1-8.283,0l-19.5-11.259a3.079,3.079,0,0,1-1.692-2.116,2.761,2.761,0,0,0,1.692,2.666l19.5,11.26a9.168,9.168,0,0,0,8.283,0l19.5-11.259a2.764,2.764,0,0,0,1.692-2.667A3.079,3.079,0,0,1,474.38,263.048Z" transform="translate(-425.381 -260.932)" fill="#fff"/>
                </g>
              </g>
            </g>
          </g>
        </g>
      </g>
    </g>
    <g id="Group_6514" data-name="Group 6514" transform="translate(350.217 187.013)">
      <g id="Group_6511-3" data-name="Group 6511" transform="translate(-11.713 -1.768)">
        <path id="Path_13418-3" data-name="Path 13418" d="M476.092,297.275v-4.419l-1.223-.679c-.345,2.085-2.8,3.46-4.852,3.745l-13.974,8.172-6.1,2.2L430.479,296.25l.45-.259c-1.663-.777-2.559-2.555-3.46-4.177l-1.31.782-.779.219v4.531h0a2.906,2.906,0,0,0,1.713,2.391L446.6,311a9.168,9.168,0,0,0,8.283,0l19.5-11.259a2.932,2.932,0,0,0,1.712-2.349c0-.038,0-.076,0-.113Z" transform="translate(553.057 4929.984)" fill="url(#linear-gradient-18)"/>
        <g id="Group_5694-3" data-name="Group 5694" transform="translate(978.437 5208.201)">
          <path id="Path_13420-3" data-name="Path 13420" d="M446.6,306.312l-19.5-11.259c-2.283-1.318-2.283-3.464,0-4.782l19.5-11.259a9.168,9.168,0,0,1,8.283,0l19.5,11.259c2.283,1.318,2.283,3.464,0,4.782l-19.5,11.259A9.162,9.162,0,0,1,446.6,306.312Z" transform="translate(-425.38 -278.023)" fill="url(#linear-gradient-19)"/>
        </g>
        <g id="Group_5695-3" data-name="Group 5695" transform="translate(978.437 5208.201)" opacity="0.3">
          <path id="Path_13421-3" data-name="Path 13421" d="M446.6,306.312l-19.5-11.259c-2.283-1.318-2.283-3.464,0-4.782l19.5-11.259a9.168,9.168,0,0,1,8.283,0l19.5,11.259c2.283,1.318,2.283,3.464,0,4.782l-19.5,11.259A9.162,9.162,0,0,1,446.6,306.312Z" transform="translate(-425.38 -278.023)" fill="url(#linear-gradient-20)"/>
        </g>
      </g>
      <g id="Group_5704-3" data-name="Group 5704" transform="translate(966.724 5174.667)">
        <g id="Group_5703-3" data-name="Group 5703">
          <path id="Path_13422-3" data-name="Path 13422" d="M450.745,289.692a7.519,7.519,0,0,1-3.676-.877l-19.5-11.26a2.355,2.355,0,0,1,0-4.442l19.5-11.259a8.141,8.141,0,0,1,7.351,0l19.5,11.259a2.356,2.356,0,0,1,0,4.442l-19.5,11.259A7.515,7.515,0,0,1,450.745,289.692Zm-3.5-1.173a7.763,7.763,0,0,0,7.01,0l19.5-11.259a2.024,2.024,0,0,0,0-3.85l-19.5-11.259a7.759,7.759,0,0,0-7.011,0l-19.5,11.259a2.024,2.024,0,0,0,0,3.85Z" transform="translate(-425.389 -246.018)" fill="#12b2f3" opacity="0.95"/>
          <g id="Group_5702-3" data-name="Group 5702">
            <path id="Path_13423-3" data-name="Path 13423" d="M476.092,271.046v-6.679l-1.223-.68c-.345,2.086-2.8,3.46-4.852,3.746L456.045,275.6l-6.1,2.2-19.466-10.046.45-.259c-1.663-.778-2.559-2.556-3.46-4.177l-1.31.782-.779.219v6.791h0a2.909,2.909,0,0,0,1.713,2.391l19.5,11.259a9.162,9.162,0,0,0,8.283,0l19.5-11.259a2.93,2.93,0,0,0,1.712-2.349c0-.038,0-.076,0-.114Z" transform="translate(-425.38 -246.051)" fill="#024"/>
            <g id="Group_5701-3" data-name="Group 5701">
              <g id="Group_5700-3" data-name="Group 5700">
                <path id="Path_13424-3" data-name="Path 13424" d="M476.092,265.057v-4.419l-1.223-.68c-.345,2.086-2.8,3.46-4.852,3.746l-13.974,8.171-6.1,2.2-19.466-10.046.45-.259c-1.663-.778-2.559-2.556-3.46-4.177l-1.31.782-.779.219v4.531h0a2.909,2.909,0,0,0,1.713,2.391l19.5,11.259a9.162,9.162,0,0,0,8.283,0l19.5-11.259a2.93,2.93,0,0,0,1.712-2.348c0-.037,0-.076,0-.114Z" transform="translate(-425.38 -245.998)" fill="url(#linear-gradient-20)"/>
                <path id="Path_13425-3" data-name="Path 13425" d="M470.38,263.709l-13.974,8.171L451.1,273.8v5.974a8.468,8.468,0,0,0,4.142-.989l19.5-11.259a2.93,2.93,0,0,0,1.712-2.349c0-.037,0-.076,0-.114l0,0v-4.419l-1.117-.621h-.117C474.839,262.075,472.413,263.426,470.38,263.709Z" transform="translate(-425.742 -246.004)" fill="#0f054c" opacity="0.3"/>
                <g id="Group_5697-3" data-name="Group 5697">
                  <path id="Path_13426-3" data-name="Path 13426" d="M446.6,274.094l-19.5-11.259c-2.283-1.319-2.283-3.464,0-4.782l19.5-11.26a9.165,9.165,0,0,1,8.283,0l19.5,11.259c2.283,1.318,2.283,3.464,0,4.782l-19.5,11.259A9.169,9.169,0,0,1,446.6,274.094Z" transform="translate(-425.38 -245.804)" fill="url(#linear-gradient-2)"/>
                </g>
                <g id="Group_5698-3" data-name="Group 5698" transform="translate(5.375 3.035)">
                  <path id="Path_13427-3" data-name="Path 13427" d="M450.813,272.093a6.8,6.8,0,0,1-3.321-.792l-15.237-8.8a2.14,2.14,0,0,1,0-4.032l15.237-8.8a7.358,7.358,0,0,1,6.641,0l15.237,8.8a2.14,2.14,0,0,1,0,4.032l-15.237,8.8A6.8,6.8,0,0,1,450.813,272.093ZM447.663,271a6.974,6.974,0,0,0,6.3,0l15.237-8.8a1.806,1.806,0,0,0,0-3.439l-15.236-8.8a6.973,6.973,0,0,0-6.3,0l-15.237,8.8a1.806,1.806,0,0,0,0,3.439Z" transform="translate(-430.832 -248.882)" fill="#024"/>
                </g>
                <g id="Group_5699-3" data-name="Group 5699" transform="translate(0.001 14.915)">
                  <path id="Path_13428-3" data-name="Path 13428" d="M474.38,263.048l-19.5,11.259a9.169,9.169,0,0,1-8.283,0l-19.5-11.259a3.079,3.079,0,0,1-1.692-2.116,2.761,2.761,0,0,0,1.692,2.666l19.5,11.26a9.168,9.168,0,0,0,8.283,0l19.5-11.259a2.764,2.764,0,0,0,1.692-2.667A3.079,3.079,0,0,1,474.38,263.048Z" transform="translate(-425.381 -260.932)" fill="#fff"/>
                </g>
              </g>
            </g>
          </g>
        </g>
      </g>
    </g>
    <g id="Group_6515" data-name="Group 6515" transform="translate(543.512 71.411)">
      <g id="Group_6511-4" data-name="Group 6511" transform="translate(-11.713 -1.768)">
        <path id="Path_13418-4" data-name="Path 13418" d="M476.092,297.275v-4.419l-1.223-.679c-.345,2.085-2.8,3.46-4.852,3.745l-13.974,8.172-6.1,2.2L430.479,296.25l.45-.259c-1.663-.777-2.559-2.555-3.46-4.177l-1.31.782-.779.219v4.531h0a2.906,2.906,0,0,0,1.713,2.391L446.6,311a9.168,9.168,0,0,0,8.283,0l19.5-11.259a2.932,2.932,0,0,0,1.712-2.349c0-.038,0-.076,0-.113Z" transform="translate(553.057 4929.984)" fill="url(#linear-gradient-18)"/>
        <g id="Group_5694-4" data-name="Group 5694" transform="translate(978.437 5208.201)">
          <path id="Path_13420-4" data-name="Path 13420" d="M446.6,306.312l-19.5-11.259c-2.283-1.318-2.283-3.464,0-4.782l19.5-11.259a9.168,9.168,0,0,1,8.283,0l19.5,11.259c2.283,1.318,2.283,3.464,0,4.782l-19.5,11.259A9.162,9.162,0,0,1,446.6,306.312Z" transform="translate(-425.38 -278.023)" fill="url(#linear-gradient-19)"/>
        </g>
        <g id="Group_5695-4" data-name="Group 5695" transform="translate(978.437 5208.201)" opacity="0.3">
          <path id="Path_13421-4" data-name="Path 13421" d="M446.6,306.312l-19.5-11.259c-2.283-1.318-2.283-3.464,0-4.782l19.5-11.259a9.168,9.168,0,0,1,8.283,0l19.5,11.259c2.283,1.318,2.283,3.464,0,4.782l-19.5,11.259A9.162,9.162,0,0,1,446.6,306.312Z" transform="translate(-425.38 -278.023)" fill="url(#linear-gradient-20)"/>
        </g>
      </g>
      <g id="Group_5704-4" data-name="Group 5704" transform="translate(966.724 5174.667)">
        <g id="Group_5703-4" data-name="Group 5703">
          <path id="Path_13422-4" data-name="Path 13422" d="M450.745,289.692a7.519,7.519,0,0,1-3.676-.877l-19.5-11.26a2.355,2.355,0,0,1,0-4.442l19.5-11.259a8.141,8.141,0,0,1,7.351,0l19.5,11.259a2.356,2.356,0,0,1,0,4.442l-19.5,11.259A7.515,7.515,0,0,1,450.745,289.692Zm-3.5-1.173a7.763,7.763,0,0,0,7.01,0l19.5-11.259a2.024,2.024,0,0,0,0-3.85l-19.5-11.259a7.759,7.759,0,0,0-7.011,0l-19.5,11.259a2.024,2.024,0,0,0,0,3.85Z" transform="translate(-425.389 -246.018)" fill="#12b2f3" opacity="0.95"/>
          <g id="Group_5702-4" data-name="Group 5702">
            <path id="Path_13423-4" data-name="Path 13423" d="M476.092,271.046v-6.679l-1.223-.68c-.345,2.086-2.8,3.46-4.852,3.746L456.045,275.6l-6.1,2.2-19.466-10.046.45-.259c-1.663-.778-2.559-2.556-3.46-4.177l-1.31.782-.779.219v6.791h0a2.909,2.909,0,0,0,1.713,2.391l19.5,11.259a9.162,9.162,0,0,0,8.283,0l19.5-11.259a2.93,2.93,0,0,0,1.712-2.349c0-.038,0-.076,0-.114Z" transform="translate(-425.38 -246.051)" fill="#024"/>
            <g id="Group_5701-4" data-name="Group 5701">
              <g id="Group_5700-4" data-name="Group 5700">
                <path id="Path_13424-4" data-name="Path 13424" d="M476.092,265.057v-4.419l-1.223-.68c-.345,2.086-2.8,3.46-4.852,3.746l-13.974,8.171-6.1,2.2-19.466-10.046.45-.259c-1.663-.778-2.559-2.556-3.46-4.177l-1.31.782-.779.219v4.531h0a2.909,2.909,0,0,0,1.713,2.391l19.5,11.259a9.162,9.162,0,0,0,8.283,0l19.5-11.259a2.93,2.93,0,0,0,1.712-2.348c0-.037,0-.076,0-.114Z" transform="translate(-425.38 -245.998)" fill="url(#linear-gradient-20)"/>
                <path id="Path_13425-4" data-name="Path 13425" d="M470.38,263.709l-13.974,8.171L451.1,273.8v5.974a8.468,8.468,0,0,0,4.142-.989l19.5-11.259a2.93,2.93,0,0,0,1.712-2.349c0-.037,0-.076,0-.114l0,0v-4.419l-1.117-.621h-.117C474.839,262.075,472.413,263.426,470.38,263.709Z" transform="translate(-425.742 -246.004)" fill="#0f054c" opacity="0.3"/>
                <g id="Group_5697-4" data-name="Group 5697">
                  <path id="Path_13426-4" data-name="Path 13426" d="M446.6,274.094l-19.5-11.259c-2.283-1.319-2.283-3.464,0-4.782l19.5-11.26a9.165,9.165,0,0,1,8.283,0l19.5,11.259c2.283,1.318,2.283,3.464,0,4.782l-19.5,11.259A9.169,9.169,0,0,1,446.6,274.094Z" transform="translate(-425.38 -245.804)" fill="url(#linear-gradient-2)"/>
                </g>
                <g id="Group_5698-4" data-name="Group 5698" transform="translate(5.375 3.035)">
                  <path id="Path_13427-4" data-name="Path 13427" d="M450.813,272.093a6.8,6.8,0,0,1-3.321-.792l-15.237-8.8a2.14,2.14,0,0,1,0-4.032l15.237-8.8a7.358,7.358,0,0,1,6.641,0l15.237,8.8a2.14,2.14,0,0,1,0,4.032l-15.237,8.8A6.8,6.8,0,0,1,450.813,272.093ZM447.663,271a6.974,6.974,0,0,0,6.3,0l15.237-8.8a1.806,1.806,0,0,0,0-3.439l-15.236-8.8a6.973,6.973,0,0,0-6.3,0l-15.237,8.8a1.806,1.806,0,0,0,0,3.439Z" transform="translate(-430.832 -248.882)" fill="#024"/>
                </g>
                <g id="Group_5699-4" data-name="Group 5699" transform="translate(0.001 14.915)">
                  <path id="Path_13428-4" data-name="Path 13428" d="M474.38,263.048l-19.5,11.259a9.169,9.169,0,0,1-8.283,0l-19.5-11.259a3.079,3.079,0,0,1-1.692-2.116,2.761,2.761,0,0,0,1.692,2.666l19.5,11.26a9.168,9.168,0,0,0,8.283,0l19.5-11.259a2.764,2.764,0,0,0,1.692-2.667A3.079,3.079,0,0,1,474.38,263.048Z" transform="translate(-425.381 -260.932)" fill="#fff"/>
                </g>
              </g>
            </g>
          </g>
        </g>
      </g>
    </g>
  </g>
</svg>
