<svg xmlns="http://www.w3.org/2000/svg" width="72.578" height="96.054" viewBox="0 0 72.578 96.054">
  <g id="Group_72" data-name="Group 72" transform="translate(-1340 -2729)">
    <path id="Path_134" data-name="Path 134" d="M1516.895,2897.6l.458,21.257,5.5,2.84,5.314-1.374,4.765-3.665,8.521-1.008h14.293l5.956,4.672,4.673,1.374,4.306-1.833,2.382-3.207.916-9.437-.916-12.187-2.382-5.863-2.107-3.39-6.872-3.573-11.086-.917h-18.325l-6.963,1.374-5.589,4.582-2.015,4.856-.825,3.582Z" transform="translate(-168.581 -98.306)" fill="#fff"/>
    <ellipse id="Ellipse_20" data-name="Ellipse 20" cx="5.207" cy="5.858" rx="5.207" ry="5.858" transform="translate(1382.798 2794.604)" fill="#fff"/>
    <ellipse id="Ellipse_21" data-name="Ellipse 21" cx="5.207" cy="5.858" rx="5.207" ry="5.858" transform="translate(1359.365 2794.604)" fill="#fff"/>
    <g id="BACKGROUND" transform="translate(1340 2729)">
      <path id="Path_124" data-name="Path 124" d="M35.721,2.5a2.7,2.7,0,0,0-1.494,2.135A3.034,3.034,0,0,1,33.8,5.915l-1.921,6.4c-2.989,10.46-5.977,20.706-8.966,31.166a3.173,3.173,0,0,0-.213,1.281,1.831,1.831,0,0,0,1.494,1.281c.427,0,1.281,0,1.708-1.494L37,5.489c1.281-1.921,1.067-2.135-.213-2.989Z" transform="translate(8.68 -2.5)" fill="#0c9eda"/>
      <path id="Path_125" data-name="Path 125" d="M52.511,26.8H29.457A18.973,18.973,0,0,0,10.885,45.158c-.213,5.764-.213,11.1,0,16.223a9.263,9.263,0,0,0,5.977,8.752,9.2,9.2,0,0,0,10.246-1.708l1.281-1.281,1.281-1.281a2.706,2.706,0,0,1,1.921-.854H50.8a2.706,2.706,0,0,1,1.921.854l1.281,1.281,1.067,1.067A9.45,9.45,0,0,0,65.746,69.92c3.842-1.708,5.764-4.7,5.977-9.179V45.8A19.087,19.087,0,0,0,52.511,26.8Zm15.8,34.155a6.508,6.508,0,0,1-4.056,6.191,6.229,6.229,0,0,1-7.044-1.494l-2.989-2.989a2.424,2.424,0,0,0-1.708-.64H30.1a1.941,1.941,0,0,0-1.708.854L25.4,65.864A6.856,6.856,0,0,1,20.7,68a5.684,5.684,0,0,1-2.562-.64c-2.562-1.067-3.842-3.2-3.842-6.191V46.225A15.581,15.581,0,0,1,30.1,30.642H52.938a15.627,15.627,0,0,1,15.8,15.8V59.247Z" transform="translate(-4.908 25.072)" fill="#0c9eda"/>
      <g id="Group_34" data-name="Group 34" transform="translate(46.109 5.337)">
        <path id="Path_126" data-name="Path 126" d="M54.149,28.356a2.032,2.032,0,0,0,1.494-.427,2.032,2.032,0,0,0,.427-1.494A13.213,13.213,0,0,0,45.823,13.84c-.427,0-.854-.213-1.281-.213L42.194,13.2l-.427.213a1.924,1.924,0,0,1-1.067.213A13.077,13.077,0,0,0,29.6,26.435a2.032,2.032,0,0,0,.427,1.494,1.8,1.8,0,0,0,1.494.427Zm-20.493-4.91c.64-3.415,4.7-6.617,8.752-6.617,4.483-.213,8.539,2.775,9.393,6.617l.427,1.494H33.442Z" transform="translate(-29.6 4.304)" fill="#0c9eda"/>
        <path id="Path_127" data-name="Path 127" d="M33.619,16.954a7.223,7.223,0,0,0,4.91,3.2l1.281.213,1.067-.213c4.056-1.067,6.617-4.269,6.191-8.112A7.734,7.734,0,0,0,40.237,5H39.6a7.332,7.332,0,0,0-7.258,5.764C32.125,13.325,32.338,15.246,33.619,16.954Zm3.415-6.831A4.133,4.133,0,0,1,39.81,8.842a3.442,3.442,0,0,1,2.775,1.281A2.943,2.943,0,0,1,43.652,12.9,4.2,4.2,0,0,1,39.6,16.954h0A4.2,4.2,0,0,1,35.54,12.9,4.464,4.464,0,0,1,37.035,10.123Z" transform="translate(-26.575 -5)" fill="#12b2f3"/>
      </g>
      <g id="Group_35" data-name="Group 35" transform="translate(0 5.764)">
        <path id="Path_128" data-name="Path 128" d="M32.549,28.47a2.488,2.488,0,0,0,1.494-.427,2.032,2.032,0,0,0,.427-1.494,13.2,13.2,0,0,0-9.606-12.381c-.427-.213-1.067-.213-1.708-.427l-2.348-.64-.64.213a2.321,2.321,0,0,1-1.067.213A13.453,13.453,0,0,0,8,26.335a1.7,1.7,0,0,0,1.921,1.921C17.393,28.47,25.077,28.47,32.549,28.47ZM12.056,23.56a9.758,9.758,0,0,1,9.179-6.617h0a9.486,9.486,0,0,1,9.179,6.617l.427,1.494H11.629Z" transform="translate(-8 3.764)" fill="#0c9eda"/>
        <path id="Path_129" data-name="Path 129" d="M11.807,16.727a7.436,7.436,0,0,0,5.123,3.415L18,20.356l1.067-.213c4.269-1.067,6.831-4.056,6.4-8.112A7.346,7.346,0,0,0,18.638,5.2H18a7.686,7.686,0,0,0-7.258,5.55A9.708,9.708,0,0,0,11.807,16.727Zm6.4-8.112h0a4.2,4.2,0,0,1,4.056,4.056,4.053,4.053,0,0,1-4.056,4.056h0a3.442,3.442,0,0,1-2.775-1.281,4.215,4.215,0,0,1-1.281-2.989A4.169,4.169,0,0,1,18.211,8.615Z" transform="translate(-4.976 -5.2)" fill="#12b2f3"/>
      </g>
      <path id="Path_130" data-name="Path 130" d="M23.571,32.3h0a7.4,7.4,0,0,0-5.337,12.595,6.938,6.938,0,0,0,5.123,2.135h0a7.4,7.4,0,0,0,5.337-12.595A7.07,7.07,0,0,0,23.571,32.3Zm2.775,10.46a4.5,4.5,0,0,1-2.775,1.067h-.213a4.061,4.061,0,0,1,.427-8.112h0a3.874,3.874,0,0,1,3.842,4.056A4.215,4.215,0,0,1,26.346,42.76Z" transform="translate(1.191 31.313)" fill="#024"/>
      <path id="Path_131" data-name="Path 131" d="M34.371,32.3h0A7.563,7.563,0,0,0,26.9,39.771a8.423,8.423,0,0,0,2.135,5.337,7.08,7.08,0,0,0,5.337,2.135h0a7.563,7.563,0,0,0,7.471-7.471,8.423,8.423,0,0,0-2.135-5.337A8.423,8.423,0,0,0,34.371,32.3Zm0,11.527h0A3.442,3.442,0,0,1,31.6,42.546a3.758,3.758,0,0,1-1.281-2.775,4.2,4.2,0,0,1,4.056-4.056c2.135-.213,4.056,1.921,4.056,4.056A4.2,4.2,0,0,1,34.371,43.827Z" transform="translate(13.445 31.313)" fill="#024"/>
    </g>
  </g>
</svg>
