<svg xmlns="http://www.w3.org/2000/svg" width="96.53" height="96.304" viewBox="0 0 96.53 96.304">
  <g id="Group_70" data-name="Group 70" transform="translate(-921 -2954)">
    <g id="Group_52" data-name="Group 52" transform="translate(921 2954)">
      <path id="Path_135" data-name="Path 135" d="M1154.545,3103.308l8.632,7.554,3.117,4.316,1.918,5.276v8.512l-.959,24.578H1137.4l-4.436-10.671,4.436-1.8h9.112l-4.316-5.4-1.8-7.433,1.8-3.837,3-2.278,2.158-.48,4.436,5.4,1.918,2.637Z" transform="translate(-1075.173 -3067.539)" fill="#fff"/>
      <g id="BACKGROUND" transform="translate(0 0)">
        <g id="Group_33" data-name="Group 33" transform="translate(0 0)">
          <path id="Path_116" data-name="Path 116" d="M96.658,86.018H95.211l1.033-27.279a20.248,20.248,0,0,0-6.82-15.913l-8.06-7.233V9.14a7.409,7.409,0,0,0-7.44-7.44H37.966a7.51,7.51,0,0,0-7.44,7.853L6.14,19.886a7.67,7.67,0,0,0-3.927,9.92L26.393,84.985a7.67,7.67,0,0,0,9.92,3.927L58.219,79.4l4.133,6.613h-1.86a1.413,1.413,0,0,0-1.447,1.447v9.093A1.413,1.413,0,0,0,60.492,98H96.658A1.413,1.413,0,0,0,98.1,96.558V87.464c.207-.827-.62-1.447-1.447-1.447ZM37.966,4.593H74.131A4.587,4.587,0,0,1,78.678,9.14V59.565l-2.893-3.513a4.4,4.4,0,0,0-6.82-.413,11.908,11.908,0,0,0-1.447,15.086l2.067,3.307H37.759a4.587,4.587,0,0,1-4.547-4.547V9.14A4.918,4.918,0,0,1,37.966,4.593ZM35.279,86.224a4.54,4.54,0,0,1-5.993-2.273L5.107,28.773A4.54,4.54,0,0,1,7.38,22.779L30.319,12.653V69.485a7.409,7.409,0,0,0,7.44,7.44H56.152Zm25.833-8.06,2.893-1.24h7.646a1.942,1.942,0,0,0,1.86.207,1.674,1.674,0,0,0,.62-2.067c-3.927-6.613-3.72-6.2-3.72-6.2a8.511,8.511,0,0,1,1.033-11.16,1.474,1.474,0,0,1,2.273.207l9.713,12.606a1.469,1.469,0,0,0,2.273-1.86l-3.927-5.167V39.726L87.771,45.1a17.275,17.275,0,0,1,5.787,13.64L92.524,86.224H65.865Zm34.1,16.946H61.938V89.118H95.211Z" transform="translate(-1.606 -1.7)" fill="#0c9eda"/>
          <path id="Path_117" data-name="Path 117" d="M22.2,22.32a7.5,7.5,0,0,0,2.273,5.373l8.473,8.473a1.381,1.381,0,0,0,2.067,0l8.473-8.473A7.489,7.489,0,0,0,38.113,14.88a8.133,8.133,0,0,0-4.34,1.24c-4.547-3.513-11.573,0-11.573,6.2Zm4.34-3.307a4.375,4.375,0,0,1,6.407,0,1.381,1.381,0,0,0,2.067,0,4.452,4.452,0,0,1,7.646,3.1,4.206,4.206,0,0,1-1.24,3.1l-7.44,7.44-7.44-7.44c-1.653-1.447-1.653-4.34,0-6.2Z" transform="translate(20.359 12.193)" fill="#024"/>
          <path id="Path_118" data-name="Path 118" d="M23.949,16.486a1.381,1.381,0,0,0,2.067,0l4.34-4.34a4.452,4.452,0,0,0-3.1-7.646,3.491,3.491,0,0,0-2.067.62,3.987,3.987,0,0,0-2.067-.62,4.427,4.427,0,0,0-3.1,7.646ZM21.883,8.013a1.381,1.381,0,0,1,2.067,0,1.381,1.381,0,0,0,2.067,0,1.381,1.381,0,0,1,2.067,0,1.381,1.381,0,0,1,0,2.067l-3.1,3.1-3.1-3.1a1.376,1.376,0,0,1,0-2.067Z" transform="translate(16.543 1.287)" fill="#024"/>
          <path id="Path_119" data-name="Path 119" d="M16.267,16.2l-6.613-3.72a1.616,1.616,0,0,0-2.273,1.033l-1.653,7.44a1.519,1.519,0,0,0,.827,1.653l6.613,3.513a1.616,1.616,0,0,0,2.273-1.033l1.653-7.44A1.175,1.175,0,0,0,16.267,16.2Zm-3.513,6.2L8.828,20.335l1.033-4.34,3.927,2.067Z" transform="translate(2.732 9.631)" fill="#024"/>
        </g>
      </g>
    </g>
  </g>
</svg>
