<svg xmlns="http://www.w3.org/2000/svg" width="97.131" height="97.131" viewBox="0 0 97.131 97.131">
  <g id="Group_73" data-name="Group 73" transform="translate(-1342 -2954)">
    <g id="Group_51" data-name="Group 51" transform="translate(1342 2954)">
      <g id="Group_47" data-name="Group 47" transform="translate(0 0)">
        <path id="Path_136" data-name="Path 136" d="M1551.694,3102.614l-16.516,13.042,5.8,18.839,21.945-.828,4.969-18.011Z" transform="translate(-1503.129 -3069.645)" fill="#fff"/>
        <g id="BACKGROUND">
          <path id="Path_120" data-name="Path 120" d="M50.566,2A48.566,48.566,0,1,0,99.131,50.566,48.572,48.572,0,0,0,50.566,2ZM88.151,25.438,84.773,39.8,67.036,45.709,52.255,33.884V16.147L69.147,9.39A43.765,43.765,0,0,1,88.151,25.438Zm.211,49.832L72.314,77.8,63.657,66.191l4.434-17.737,17.526-5.912,9.924,12.036A44.184,44.184,0,0,1,88.362,75.271ZM28.817,78.016,12.769,75.482A45.864,45.864,0,0,1,5.59,54.789l9.924-12.036L33.04,48.665,37.474,66.4ZM5.378,49.932a44.308,44.308,0,0,1,5.279-20.693L13.191,40.43Zm35.052,15.2-4.223-17.1,14.359-11.4,14.359,11.4L60.7,65.135ZM87.94,40.43l2.534-11.191a44.308,44.308,0,0,1,5.279,20.693ZM64.713,7.49l-14.147,5.7L36.207,7.49A46.922,46.922,0,0,1,64.713,7.49ZM31.984,9.39l17.1,6.757V33.673L34.307,45.5,16.57,39.586,13.191,25.227A41.822,41.822,0,0,1,31.984,9.39ZM15.514,79.071l13.092,2.112,8.024,12.458A44.976,44.976,0,0,1,15.514,79.071Zm25.55,15.837-9.5-15.2,8.446-11.4H61.123l8.657,11.4L61.334,94.486a46.848,46.848,0,0,1-20.271.422Zm24.705-1.689,6.968-12.036,12.88-2.112A46.4,46.4,0,0,1,65.769,93.219Z" transform="translate(-2 -2)" fill="#0c9eda"/>
        </g>
      </g>
    </g>
  </g>
</svg>
