<svg xmlns="http://www.w3.org/2000/svg" width="38.846" height="50.69" viewBox="0 0 38.846 50.69">
  <g id="Group_6494" data-name="Group 6494" transform="translate(-2643.592 -330.904)">
    <path id="Path_13481" data-name="Path 13481" d="M2643.592,356.251V332.757c0-1.563.293-1.853,1.855-1.853h35.12c1.563,0,1.856.291,1.856,1.849q0,19.7.015,39.4a2.628,2.628,0,0,1-.882,2.059c-2.32,2.216-4.577,4.5-6.91,6.7a2.544,2.544,0,0,1-1.576.646c-9.288.04-18.574.032-27.864.028-1.237,0-1.611-.376-1.615-1.6Zm2.378-23.062v46.1h26.379c.018-.279.039-.517.039-.751,0-1.829-.005-3.658.008-5.487.009-.876.425-1.268,1.315-1.292.358-.012.718,0,1.072,0h5.274V333.189ZM2678.2,374.06h-3.447v3.392Z" transform="translate(0 0)"/>
    <path id="Path_13482" data-name="Path 13482" d="M2660.582,341.489v-3.545c-1.737.4-3.425.776-5.111,1.169-1.521.352-1.521.359-1.521,1.963,0,2.016-.015,4.033.007,6.049a3.148,3.148,0,0,1-2.073,3.121,4.594,4.594,0,0,1-3.106.2,3.228,3.228,0,0,1-2.671-3.129,3.376,3.376,0,0,1,2.982-2.955,6.219,6.219,0,0,1,1.354-.06,13.244,13.244,0,0,1,1.388.219v-5.781c0-1.006.022-2.016,0-3.023a1.2,1.2,0,0,1,1.073-1.377c2.725-.613,5.441-1.267,8.161-1.9,1.162-.269,1.669.14,1.669,1.339,0,3.374-.1,6.757.034,10.127.111,2.845-2.255,3.957-4.181,3.84a3.686,3.686,0,0,1-3.438-2.065c-.848-1.82.545-3.9,2.825-4.184A21.32,21.32,0,0,1,2660.582,341.489Zm0-6.745c-2.027.473-3.957.953-5.9,1.351-.761.155-.87.5-.635,1.176l6.537-1.521Zm-1.74,10.9c.9-.011,1.733-.5,1.756-1.029.022-.552-.828-1.063-1.785-1.063s-1.812.5-1.8,1.055S2657.926,345.662,2658.844,345.647Zm-8.8,2.841c.045,0,.143-.008.246-.015.79-.06,1.5-.526,1.521-1s-.624-.942-1.463-1.052a2.1,2.1,0,0,0-.376-.03c-.888.015-1.713.5-1.744,1.025C2648.207,347.97,2649.038,348.477,2650.049,348.488Z" transform="translate(8.596 4.086)" fill="#0c9eda"/>
    <path id="Path_13483" data-name="Path 13483" d="M2658.18,341.158q-5.479.006-10.956,0a6.6,6.6,0,0,1-.949-.034c-.627-.087-1.045-.484-.95-.987a1.936,1.936,0,0,1,.842-1,2.088,2.088,0,0,1,1.007-.095q11.042-.006,22.087,0c.116,0,.229,0,.345,0,.994.023,1.563.42,1.555,1.082s-.571,1.033-1.589,1.033Q2663.879,341.164,2658.18,341.158Z" transform="translate(4.787 24.785)"/>
    <path id="Path_13484" data-name="Path 13484" d="M2653.615,342.358h-6.579c-.225,0-.453,0-.68-.011a1.01,1.01,0,0,1-1.044-.987,1.022,1.022,0,0,1,1.01-1.1c.5-.045,1.006-.023,1.514-.023q6.275-.006,12.556,0a3.949,3.949,0,0,1,.9.068,1.03,1.03,0,0,1-.11,2.02,5.588,5.588,0,0,1-.756.027Q2657.02,342.36,2653.615,342.358Z" transform="translate(5.873 28.449)"/>
    <path id="Path_13485" data-name="Path 13485" d="M2653.644,343.559q-3.372,0-6.734,0a4.514,4.514,0,0,1-.753-.034.88.88,0,0,1-.833-.991,1.968,1.968,0,0,1,.742-1c.173-.144.533-.087.806-.091q6.81-.006,13.62,0a3.524,3.524,0,0,1,.748.057,1.029,1.029,0,0,1-.109,2.032c-.477.045-.957.026-1.437.026Q2656.668,343.561,2653.644,343.559Z" transform="translate(5.888 32.496)"/>
    <path id="Path_13486" data-name="Path 13486" d="M2649.578,339.955c-1.006,0-2.008.011-3.016,0-.778-.011-1.228-.39-1.255-1.006-.026-.639.458-1.093,1.252-1.1q3.055-.023,6.107,0c.8.008,1.271.447,1.249,1.1s-.443,1-1.245,1.01C2651.64,339.967,2650.606,339.955,2649.578,339.955Z" transform="translate(5.538 21.129)"/>
  </g>
</svg>
