<svg xmlns="http://www.w3.org/2000/svg" width="51.276" height="31.949" viewBox="0 0 51.276 31.949">
  <g id="Group_6496" data-name="Group 6496" transform="translate(-2972.935 -658.389)">
    <path id="Path_13494" data-name="Path 13494" d="M2972.935,678.976c.3-1.5.551-3.013.914-4.5.7-2.862,1.4-5.73,2.221-8.559a10.135,10.135,0,0,1,9.355-7.281c7.587-.3,15.177-.318,22.768-.111a34.37,34.37,0,0,1,4.542.233,9.865,9.865,0,0,1,8.332,7.2,100.228,100.228,0,0,1,2.987,12.279,10.4,10.4,0,0,1-8.113,11.844,10.507,10.507,0,0,1-4.515.017c-.62-.139-.917-.462-.832-.914.092-.486.508-.686,1.146-.55a9.023,9.023,0,0,0,10.805-7.09,10.628,10.628,0,0,0-.281-4.655c-.826-3.432-1.637-6.87-2.572-10.273a8.653,8.653,0,0,0-8.137-6.486c-.531-.032-1.062-.049-1.634-.075-.04.425-.068.818-.117,1.209a4.059,4.059,0,0,1-3.967,3.669c-4.287.059-8.574.047-12.86.052-.634,0-.953-.3-.926-.789.025-.467.358-.707.962-.708,4.137-.011,8.273-.014,12.41-.039,2-.012,3.132-1.344,2.9-3.464h-19.548a3.068,3.068,0,0,0,1.371,3.134.739.739,0,0,1,.322,1.064.747.747,0,0,1-1.091.214,4,4,0,0,1-2.027-2.941c-.071-.44-.089-.89-.131-1.332-4.229-.361-8.207,1.67-9.543,5.841-1.106,3.451-1.857,7.017-2.724,10.54a15.67,15.67,0,0,0-.492,3,8.976,8.976,0,0,0,17.429,3.334c.024-.077.046-.154.079-.27a4.307,4.307,0,0,1-2.809-2.456,4.11,4.11,0,0,1-.182-2.743,4.228,4.228,0,0,1,4.233-3.086c2.23.119,3.569,1.531,4.07,4.323h2.557c.64-2.941,2-4.322,4.253-4.328a4.213,4.213,0,0,1,4.118,3.358c.458,2.1-.59,3.827-3.041,4.957a7.485,7.485,0,0,0,1.708,3.111,18.123,18.123,0,0,0,1.949,1.706c.479.382.642.784.369,1.175-.262.375-.695.414-1.193.089a10.035,10.035,0,0,1-4.247-5.568.689.689,0,0,0-.6-.544,4.007,4.007,0,0,1-2.736-2.082.559.559,0,0,0-.582-.34c-.867.016-1.735.019-2.6,0a.523.523,0,0,0-.528.346,4.19,4.19,0,0,1-2.833,2.118.742.742,0,0,0-.448.419,10.068,10.068,0,0,1-8.487,7.194,10.424,10.424,0,0,1-11.805-8.275l-.2-.968Zm17.4-.473a2.676,2.676,0,0,0,2.715,2.678,2.7,2.7,0,1,0-2.715-2.678Zm16.452,0a2.694,2.694,0,0,0-2.684-2.718,2.7,2.7,0,0,0-.032,5.4A2.676,2.676,0,0,0,3006.791,678.5Z"/>
    <path id="Path_13495" data-name="Path 13495" d="M2986.477,673.591c-.289,1.918-1.328,2.967-2.97,3.028-1.667.064-2.7-.921-3.161-3.006-2.1-.5-3.013-1.414-3.022-3.056-.01-1.668.848-2.556,3.011-3.114.562-2.218,1.53-3.092,3.315-3,1.529.083,2.559,1.17,2.827,3.031a3.119,3.119,0,0,1,2.493,1.307,2.917,2.917,0,0,1,.535,1.89C2989.405,672.311,2988.388,673.29,2986.477,673.591Zm-7.651-3.075a1.448,1.448,0,0,0,1.208,1.493,5.067,5.067,0,0,0,.844.058c.747.021.961.234.99.995.009.233.014.467.043.7a1.464,1.464,0,0,0,1.517,1.358,1.492,1.492,0,0,0,1.5-1.435c.022-.264,0-.533.02-.8a.768.768,0,0,1,.817-.814,7.288,7.288,0,0,0,1.14-.1,1.5,1.5,0,0,0-.069-2.912,9.6,9.6,0,0,0-1.094-.083.753.753,0,0,1-.792-.782c-.02-.3,0-.6-.029-.9a1.474,1.474,0,0,0-1.522-1.356,1.45,1.45,0,0,0-1.487,1.328c-.038.3-.034.6-.053.9a.752.752,0,0,1-.808.813,9.2,9.2,0,0,0-.995.067A1.44,1.44,0,0,0,2978.826,670.516Z" transform="translate(0.504 0.696)" fill="#0c9eda"/>
    <path id="Path_13496" data-name="Path 13496" d="M2996.486,671.012c-.734,0-1.468.008-2.2,0a2.114,2.114,0,0,1-2.152-2,2.039,2.039,0,0,1,1.934-2.24c1.612-.071,3.233-.069,4.846,0a2.069,2.069,0,0,1,1.922,2.166,2.138,2.138,0,0,1-2.151,2.065C2997.952,671.021,2997.219,671.012,2996.486,671.012Zm-.046-1.5c.7,0,1.4,0,2.1,0,.5,0,.794-.247.794-.631s-.294-.633-.8-.636q-2.07-.012-4.142,0c-.508,0-.78.253-.751.662.031.463.333.609.753.605C2995.077,669.508,2995.758,669.511,2996.44,669.511Z" transform="translate(2.207 0.958)"/>
    <path id="Path_13497" data-name="Path 13497" d="M3008.211,668.144a2.894,2.894,0,1,1,5.787.046,2.894,2.894,0,1,1-5.787-.046Zm1.506,0a1.394,1.394,0,0,0,1.369,1.423,1.395,1.395,0,0,0,.05-2.789A1.383,1.383,0,0,0,3009.717,668.142Z" transform="translate(4.056 0.791)" fill="#0c9eda"/>
    <path id="Path_13498" data-name="Path 13498" d="M3009.921,672.226a2.888,2.888,0,1,1-2.889-2.9A2.87,2.87,0,0,1,3009.921,672.226Zm-1.505-.02a1.381,1.381,0,1,0-2.763.025,1.382,1.382,0,1,0,2.763-.025Z" transform="translate(3.588 1.258)" fill="#0c9eda"/>
  </g>
</svg>
