<svg xmlns="http://www.w3.org/2000/svg" width="53.664" height="53.647" viewBox="0 0 53.664 53.647">
  <g id="Group_6498" data-name="Group 6498" transform="translate(-3317.767 -941.353)">
    <path id="Path_13502" data-name="Path 13502" d="M3354.778,947.884a2.541,2.541,0,0,0-2.539-1.753c-3.016-.01-6.033,0-9.05,0h-.65v-1.788h.595c2.793,0,5.59.071,8.38-.022,2.417-.081,4.423.877,5.245,3.6,2.576,0,5.163,0,7.75,0a6.623,6.623,0,0,1,1.166.09,4.391,4.391,0,0,1,3.634,4.278q.042,5.447,0,10.895a4.439,4.439,0,0,1-4.436,4.4c-1.228.018-2.457,0-3.687,0h-.692c.726.942,1.344,1.792,2.011,2.6a10.044,10.044,0,0,1,2.348,6.64c-.016,5.419,0,10.838,0,16.257,0,1.071-.249,1.322-1.3,1.322q-15.281,0-30.56,0a4.489,4.489,0,0,1-4.788-4.782c0-1.359,0-2.717,0-4.156h.669q10.893,0,21.788.011c.442,0,.709-.1.8-.542a.935.935,0,0,1,.094-.2c.475-.99.476-.991-.291-1.759-1.486-1.489-2.986-2.966-4.459-4.468a3.89,3.89,0,0,1-1.012-4.067,3.823,3.823,0,0,1,3.017-2.759,3.918,3.918,0,0,1,3.74,1.111c.8.78,1.573,1.576,2.431,2.439v-3.51a1.587,1.587,0,0,0-.269.124.879.879,0,0,1-1.09.042.926.926,0,0,1-.35-1.041c.2-.965.394-1.931.589-2.9.018-.09.028-.183.055-.364h-.6c-2.049,0-4.1,0-6.146,0a4.472,4.472,0,0,1-4.661-4.685q-.008-5.141,0-10.28a4.474,4.474,0,0,1,4.7-4.7q3.715-.007,7.431-.006A.931.931,0,0,0,3354.778,947.884Zm4.407,20.761c-.765.546-1.418.977-2.027,1.464a.987.987,0,0,0-.34.669c-.028,1.955-.025,3.91,0,5.866a1.082,1.082,0,0,0,.276.671c.864.9,1.757,1.772,2.637,2.657.124.125.237.261.32.353l-1.2,1.278c-.171-.162-.32-.3-.463-.442q-3.518-3.515-7.035-7.029a2.264,2.264,0,1,0-3.259,3.136c1.858,1.882,3.738,3.742,5.605,5.615a.965.965,0,0,1,.146,1.478c-.153.234-.32.46-.454.7a6.909,6.909,0,0,0-.024,7.076.817.817,0,0,0,.83.485c2.756-.019,5.513-.01,8.269-.01h.571c.011-.142.023-.231.023-.32,0-5.307.034-10.616-.035-15.923a6.753,6.753,0,0,0-.709-3.058C3361.43,971.7,3360.268,970.227,3359.185,968.645Zm8.323-7.222c.011-.21.02-.32.02-.428,0-2.83.007-5.66,0-8.489a2.671,2.671,0,0,0-2.814-2.8q-8.8-.007-17.591,0a2.679,2.679,0,0,0-2.835,2.839q-.007,4.133,0,8.265c0,.137.018.274.031.473.213-.15.363-.252.508-.362q2.5-1.874,5-3.749a.943.943,0,0,1,1.4-.02c.151.108.3.222.447.334l6.046,4.531,4.471-2.978c.813-.542.916-.542,1.746.012C3365.105,959.822,3366.264,960.594,3367.509,961.423Zm-37.525,25.853c0,.807,0,1.551,0,2.3a2.722,2.722,0,0,0,3.022,3.042h18.6a9.131,9.131,0,0,1-.887-5.339Zm20.565-28.409c-2.018,1.512-4,2.988-5.964,4.491a.705.705,0,0,0-.133.615,2.638,2.638,0,0,0,2.6,1.818c2.55.007,5.1,0,7.648,0,.99,0,1.318.4,1.13,1.354-.123.614-.238,1.229-.374,1.936.243-.163.413-.272.577-.388,1.181-.842,2.345-1.709,3.55-2.515a2.344,2.344,0,0,1,1.175-.37c1.357-.046,2.716-.008,4.075-.02a2.684,2.684,0,0,0,2.511-1.719.536.536,0,0,0-.24-.777q-1.831-1.175-3.62-2.414a.618.618,0,0,0-.832-.007c-1.378.948-2.779,1.865-4.173,2.791-.717.476-.9.471-1.593-.044C3354.786,962.048,3352.69,960.474,3350.548,958.868Z" transform="translate(2.102 0.597)"/>
    <path id="Path_13503" data-name="Path 13503" d="M3332.284,961.028c.22,1.107.413,2.148.636,3.182a.967.967,0,0,1-.358,1.137.955.955,0,0,1-1.181-.142c-1.813-1.3-3.626-2.609-5.457-3.888a1.705,1.705,0,0,0-.862-.276c-1.208-.056-2.434.048-3.622-.124a4.319,4.319,0,0,1-3.654-4.3q-.03-5.418,0-10.838a4.421,4.421,0,0,1,4.424-4.407q8.073-.031,16.146,0a4.425,4.425,0,0,1,4.446,4.442q.034,5.391,0,10.783a4.439,4.439,0,0,1-4.461,4.43C3336.353,961.043,3334.36,961.028,3332.284,961.028Zm-1.53,1.524c-.144-.743-.261-1.363-.383-1.98-.183-.916.155-1.329,1.1-1.33,2.253,0,4.507.006,6.76,0a2.666,2.666,0,0,0,2.788-2.773q.015-5.279,0-10.558a2.657,2.657,0,0,0-2.749-2.754q-7.99-.012-15.979,0a2.652,2.652,0,0,0-2.72,2.725q-.016,5.306,0,10.615a2.668,2.668,0,0,0,2.759,2.747c1.023.01,2.049.021,3.072-.007a1.987,1.987,0,0,1,1.291.413C3328,960.6,3329.321,961.529,3330.754,962.551Z" transform="translate(0.001)"/>
    <path id="Path_13504" data-name="Path 13504" d="M3335.926,965.719c.531.049,1,.058,1.452.141a4.409,4.409,0,0,1,3.637,4.275c.029,1.861.032,3.724,0,5.585a4.407,4.407,0,0,1-4.318,4.337q-7.289.052-14.578,0a4.408,4.408,0,0,1-4.327-4.327c-.034-1.861-.03-3.724,0-5.585a4.44,4.44,0,0,1,4.4-4.371c2.159-.025,4.32,0,6.479-.018a2.048,2.048,0,0,0,.938-.25c1.771-.988,3.528-2,5.283-3.012.419-.243.828-.465,1.289-.125.483.357.385.831.256,1.318C3336.262,964.35,3336.1,965.018,3335.926,965.719Zm-1.669-.8c-1.432.818-2.744,1.59-4.083,2.314a2.592,2.592,0,0,1-1.155.306c-2.216.029-4.431.008-6.648.016a2.677,2.677,0,0,0-2.8,2.817c-.007,1.732-.012,3.464,0,5.2a2.651,2.651,0,0,0,2.682,2.707q7.152.022,14.3,0a2.642,2.642,0,0,0,2.672-2.658q.033-2.709,0-5.419a2.66,2.66,0,0,0-2.636-2.641c-.54-.013-1.081,0-1.62,0-.864-.008-1.218-.461-1.022-1.294C3334.046,965.852,3334.139,965.443,3334.257,964.92Z" transform="translate(0 4.201)"/>
    <path id="Path_13505" data-name="Path 13505" d="M3353.342,957.438a3.575,3.575,0,1,1,3.579-3.528A3.588,3.588,0,0,1,3353.342,957.438Zm1.789-3.552a1.785,1.785,0,1,0-1.794,1.762A1.794,1.794,0,0,0,3355.131,953.886Z" transform="translate(6.452 1.801)" fill="#0c9eda"/>
    <path id="Path_13506" data-name="Path 13506" d="M3339.378,983.283v-1.712h1.722v1.712Z" transform="translate(4.356 8.107)"/>
    <path id="Path_13507" data-name="Path 13507" d="M3327.628,945.235a3.136,3.136,0,0,1,4.736,4.079,5.666,5.666,0,0,0-.339.616l.114.078c.664-.33,1.328-.664,2-.99.911-.445,1.512-.084,1.515.916q.01,2.457,0,4.916c0,.966-.609,1.337-1.481.916-.668-.323-1.33-.661-1.948-.97-.184.347-.28.782-.547.961a2.158,2.158,0,0,1-1.116.195c-2.086.016-4.171.01-6.257.006-.869,0-1.163-.3-1.164-1.18,0-1.564,0-3.129-.009-4.693a1.118,1.118,0,0,0-.166-.612,3.13,3.13,0,0,1,4.53-4.3A.851.851,0,0,0,3327.628,945.235Zm2.636,5.39h-5.3v3.506h5.3Zm-4.88-1.822a1.337,1.337,0,1,0-1.351-1.337A1.348,1.348,0,0,0,3325.384,948.8Zm4.471-2.675a1.337,1.337,0,1,0,1.324,1.365A1.351,1.351,0,0,0,3329.855,946.129Zm3.987,5.047c-.489.239-.934.454-1.377.672-.083.041-.233.079-.237.127-.018.274-.111.709.023.8a12.183,12.183,0,0,0,1.591.816Z" transform="translate(0.902 0.598)" fill="#0c9eda"/>
    <path id="Path_13508" data-name="Path 13508" d="M3320.775,973.607v-1.719H3336.8v1.719Z" transform="translate(0.606 6.155)"/>
    <path id="Path_13509" data-name="Path 13509" d="M3330.539,970.651h-9.756v-1.74h9.756Z" transform="translate(0.608 5.555)"/>
    <path id="Path_13510" data-name="Path 13510" d="M3334.863,968.92v1.719h-4.4V968.92Z" transform="translate(2.559 5.557)"/>
  </g>
</svg>
