<svg xmlns="http://www.w3.org/2000/svg" width="66.235" height="51.635" viewBox="0 0 66.235 51.635">
  <g id="Group_6499" data-name="Group 6499" transform="translate(-3533.065 -1089.915)">
    <path id="Path_13511" data-name="Path 13511" d="M3533.065,1108.48a1.382,1.382,0,0,1,1.359-.662c2.135.027,4.268-.01,6.4.025a.9.9,0,0,0,1.049-.719,25.2,25.2,0,0,1,7.061-10.58,2.04,2.04,0,0,1,.245-.21.934.934,0,0,1,1.289.1.915.915,0,0,1-.017,1.334c-.6.622-1.227,1.211-1.833,1.824-.239.242-.449.511-.733.837a3.613,3.613,0,0,0,.483.075c1.983,0,3.967.015,5.95-.014a.851.851,0,0,0,.62-.374c.68-1.271,1.233-2.614,1.986-3.836.74-1.2,1.667-2.289,2.591-3.531-1.233.493-2.423.937-3.588,1.442-.65.281-1.257.661-1.884.992a.989.989,0,0,1-1.455-.294c-.291-.52-.122-1.03.51-1.4a24.81,24.81,0,0,1,15.764-3.39c10.024,1.216,17.012,6.611,21.153,15.77.132.294.251.6.355.9.188.554.273,1.117,1.1,1.159.487.026.7.545.6,1.056a.931.931,0,0,1-1.029.784q-2.294,0-4.591,0h-.95v11.867h11.82v-11.867c-.514,0-1,.007-1.493,0-.7-.013-1.123-.4-1.113-.984a.969.969,0,0,1,1.078-.95c.819-.013,1.639-.016,2.458,0a.951.951,0,0,1,1.042,1.053q.014,6.824,0,13.646c0,.734-.376,1.079-1.146,1.082-2.265.009-4.528.017-6.791-.007a.732.732,0,0,0-.823.579c-3.561,9.349-10.212,15.154-20.07,16.958a25.685,25.685,0,0,1-28.593-16.82c-.182-.521-.391-.734-.979-.723-2.157.042-4.312,0-6.468.028a1.387,1.387,0,0,1-1.359-.662Zm50.407,13.2v-11.869H3535.05v11.869h3.853c1.854,0,3.707,0,5.56,0,.759,0,1.184.365,1.176.979s-.423.948-1.2.959c-.234,0-.467,0-.769,0a24.055,24.055,0,0,0,2.383,4.918.9.9,0,0,0,.887.477c2.156-.02,4.31-.007,6.466-.01.2,0,.406-.028.619-.044l-1.287-5.341c-1.021,0-2.033,0-3.043,0-.982,0-1.457-.322-1.45-.979s.478-.961,1.47-.961h33.755Zm-18.3-19.235c-2.95,0-5.81,0-8.671.013a.537.537,0,0,0-.415.278c-.477,1.665-.926,3.338-1.394,5.052h10.481Zm12.5,5.35c-.469-1.717-.912-3.374-1.387-5.021a.589.589,0,0,0-.453-.314q-4.132-.031-8.268,0c-.138,0-.39.222-.392.343-.025,1.652-.017,3.3-.017,4.991Zm-22.981,15.853c.467,1.714.9,3.37,1.388,5.014a.718.718,0,0,0,.566.33c2.67.022,5.341.007,8.01.022.417,0,.569-.12.562-.549-.022-1.227-.008-2.454-.008-3.683v-1.134Zm12.468.007c0,1.707-.007,3.38.018,5.052,0,.1.25.284.385.285q4.133.026,8.268,0a.593.593,0,0,0,.454-.313c.476-1.649.918-3.3,1.388-5.024Zm-13.138-21.132c-.08-.035-.119-.065-.158-.065-2.387-.006-4.775-.019-7.163,0a.834.834,0,0,0-.583.385c-.567.962-1.117,1.936-1.618,2.932-.32.636-.546,1.321-.825,2.009h9.075Zm13.161-2.06h8.284c-.413-.824-.753-1.583-1.161-2.306a13.108,13.108,0,0,0-5-5.437,18.916,18.916,0,0,0-2.126-.846Zm12.433,7.335h9.058a21.187,21.187,0,0,0-2.556-5.13.753.753,0,0,0-.55-.215c-2.281-.015-4.561-.01-6.842-.007a3.026,3.026,0,0,0-.388.051Zm9.063,15.857h-9.067l-1.261,5.258c.059.035.094.072.13.072,2.409.009,4.817.019,7.227.009a.661.661,0,0,0,.458-.269A22.277,22.277,0,0,0,3588.677,1123.654Zm-23.492-31.621c-2.889.139-7.834,5.3-8.125,8.418h8.125Zm-.016,47.4v-8.447h-8.147C3557.805,1134.611,3562.183,1139.163,3565.169,1139.431Zm2.009-.007c2.955-.209,7.279-4.691,8.165-8.423h-8.165Zm5.694-46.535a23.271,23.271,0,0,1,4.553,7.225.812.812,0,0,0,.619.371c1.981.029,3.961.019,5.942.014a3.511,3.511,0,0,0,.475-.08A23.794,23.794,0,0,0,3572.871,1092.889Zm11.657,38.056c-2.241,0-4.3.015-6.364-.01a.767.767,0,0,0-.851.571,22.047,22.047,0,0,1-3.115,5.478c-.213.271-.437.532-.665.791s-.456.5-.8.882A24.523,24.523,0,0,0,3584.528,1130.946Zm-36.7,0a23.9,23.9,0,0,0,11.669,7.612,23.112,23.112,0,0,1-4.566-7.235.82.82,0,0,0-.629-.359c-1.724-.03-3.448-.018-5.174-.018Z" transform="translate(0 0)"/>
    <path id="Path_13512" data-name="Path 13512" d="M3570.762,1108.385a3.227,3.227,0,0,1,1.954-2.9,3.124,3.124,0,0,1,3.552.517,3.052,3.052,0,0,1,.97,3.445.888.888,0,0,0,.32,1.147,2.269,2.269,0,0,1,.4.417.9.9,0,0,1-.053,1.284.815.815,0,0,1-1.263.065,1.928,1.928,0,0,0-2.207-.61A3.271,3.271,0,0,1,3570.762,1108.385Zm4.706.119a1.38,1.38,0,1,0-1.356,1.369A1.4,1.4,0,0,0,3575.468,1108.5Z" transform="translate(16.917 6.838)" fill="#0c9eda"/>
  </g>
</svg>
