<svg xmlns="http://www.w3.org/2000/svg" width="63.478" height="54.223" viewBox="0 0 63.478 54.223"><defs><style>.a,.b,.c{stroke:#fff;stroke-width:0.3px;}.b{fill:#12b2f3;}.c{fill:#fff;}</style></defs><g transform="translate(-703.85 -321.778)"><path class="a" d="M704,388.84a8.98,8.98,0,0,1,.4-1.026,3.671,3.671,0,0,1,3.483-2.018h9.275c-.282-.3-.468-.471-.633-.664a1.231,1.231,0,0,1,.007-1.679,1.17,1.17,0,0,1,1.714-.053q1.431,1.359,2.8,2.785a1.164,1.164,0,0,1,0,1.718q-1.333,1.456-2.714,2.867a1.194,1.194,0,0,1-1.762.054,1.243,1.243,0,0,1,.008-1.772c.2-.226.408-.44.7-.749-.324-.017-.521-.036-.718-.036q-4.226,0-8.452,0c-1.25,0-1.636.382-1.636,1.608q0,13.173,0,26.346c0,1.229.387,1.611,1.629,1.612,1.09,0,2.18-.007,3.27,0a1.243,1.243,0,0,1,1.389,1.235,1.266,1.266,0,0,1-1.406,1.228c-1.151.009-2.3.005-3.455,0a3.676,3.676,0,0,1-3.777-2.751,1.064,1.064,0,0,0-.118-.2Z" transform="translate(0 -53.581)"/><path class="a" d="M1094.18,417.1c-.293.27-.542.644-.888.788a1.2,1.2,0,0,1-1.576-1.268c-.012-2.425,0-4.85,0-7.275,0-1.189-.395-1.581-1.6-1.581q-5.641,0-11.282,0a5.84,5.84,0,0,1-.738-.026,1.209,1.209,0,0,1-.118-2.378,3.774,3.774,0,0,1,.8-.061q5.456-.005,10.912,0c2.636,0,3.548.617,4.5,3.044Z" transform="translate(-327.003 -73.082)"/><path class="a" d="M1149.9,588.115a9.651,9.651,0,0,1-.681,1.5,3.536,3.536,0,0,1-3.043,1.578c-.389.007-.779,0-1.3,0,.238.261.408.441.571.628a1.227,1.227,0,1,1-1.74,1.731q-1.381-1.321-2.709-2.7a1.209,1.209,0,0,1-.027-1.769q1.335-1.453,2.714-2.865a1.193,1.193,0,0,1,1.717-.088,1.211,1.211,0,0,1,.072,1.764c-.206.248-.434.478-.74.812a15.872,15.872,0,0,0,1.677-.012c.665-.075,1.021-.593,1.022-1.388q.006-3.793,0-7.585c0-.185-.01-.371.008-.555a1.193,1.193,0,0,1,.911-1.116,1.166,1.166,0,0,1,1.306.465c.088.11.163.23.244.345Z" transform="translate(-382.727 -224.473)"/><path class="a" d="M1198.609,534.524a1.423,1.423,0,0,1-1.376.84,1.227,1.227,0,1,1,1.064-2.029,5.069,5.069,0,0,1,.313.449Z" transform="translate(-431.431 -184.951)"/><path class="a" d="M816.086,344.992v3.95h.656q4.5,0,9.005,0c1.095,0,1.522.432,1.525,1.536,0,1.354,0,2.708,0,4.146h.7c1.789,0,3.578,0,5.366,0,1.013,0,1.465.456,1.466,1.476q.005,9.13,0,18.259c0,1.015-.462,1.486-1.463,1.487q-7.309.006-14.618,0a1.258,1.258,0,0,1-1.446-1.43c-.006-2.406,0-4.812,0-7.217v-.7H811.93v.749q0,3.485,0,6.971c0,1.209-.425,1.624-1.637,1.624q-7.155,0-14.31,0c-1.164,0-1.595-.428-1.6-1.6q0-9.006,0-18.012c0-1.214.409-1.607,1.647-1.608,1.929,0,3.858,0,5.849,0,.016-.262.039-.478.04-.7,0-1.151,0-2.3,0-3.454.008-1.121.419-1.531,1.525-1.532q4.688,0,9.375,0h.715v-3.949c-.559,0-1.108.007-1.657,0a1.308,1.308,0,0,1-1.478-1.311c-.065-.489-.1-.981-.162-1.47-.082-.664-.451-.884-1.078-.639-.5.194-.985.412-1.483.6a1.244,1.244,0,0,1-1.734-.572q-1.4-2.394-2.764-4.808a1.211,1.211,0,0,1,.366-1.733c.455-.352.933-.674,1.387-1.028.486-.379.485-.776,0-1.155-.47-.366-.965-.7-1.431-1.071a1.176,1.176,0,0,1-.35-1.638q1.391-2.47,2.827-4.914a1.217,1.217,0,0,1,1.646-.538c.518.195,1.023.427,1.539.629.673.263,1,.053,1.083-.681.057-.51.095-1.024.173-1.531a1.24,1.24,0,0,1,1.376-1.2q2.745-.013,5.49,0a1.248,1.248,0,0,1,1.357,1.218c.072.571.119,1.145.214,1.712.091.543.414.716.934.52.538-.2,1.062-.44,1.6-.647a1.235,1.235,0,0,1,1.729.578q1.386,2.366,2.74,4.75a1.264,1.264,0,0,1-.4,1.831c-.442.336-.9.651-1.336.992a.634.634,0,0,0-.02,1.117c.434.345.9.655,1.336.992a1.271,1.271,0,0,1,.4,1.877q-1.341,2.357-2.707,4.7a1.255,1.255,0,0,1-1.777.588c-.5-.2-.985-.411-1.483-.6-.572-.219-.923-.034-1.025.562-.09.526-.137,1.059-.2,1.59a1.283,1.283,0,0,1-1.376,1.277C816.888,345,816.5,344.992,816.086,344.992Zm-19.181,12.125V373.35h12.517V357.116Zm22.887,0v16.231H832.3V357.117Zm-3.511-32.686H812.75a3.425,3.425,0,0,1-1.6,3.085,3.541,3.541,0,0,1-3.543-.142l-1.756,3.05c2.611,2.356,2.609,3.574.01,6.07.278.488.559.987.845,1.483s.6,1.018.885,1.511c3.412-.926,4.435-.335,5.222,2.995h3.5a3.419,3.419,0,0,1,1.651-3.077,3.475,3.475,0,0,1,3.493.14l1.791-3.1a3.473,3.473,0,0,1-1.931-2.979,3.521,3.521,0,0,1,1.927-3.009l-1.779-3.074C818.808,328.83,816.3,327.236,816.282,324.431Zm8.495,27.021H804.448v3.172c1.988,0,3.919,0,5.851,0,1.226,0,1.628.4,1.63,1.624q.006,3.486,0,6.971c0,.24,0,.48,0,.744h5.344v-.7q0-3.455,0-6.91c0-1.372.349-1.726,1.7-1.727h5.8Z" transform="translate(-79.231 0)"/><path class="b" d="M835.975,662.9c.9,0,1.8-.007,2.707,0a1.215,1.215,0,0,1,1.37,1.237,1.228,1.228,0,0,1-1.389,1.225q-2.707.012-5.413,0a1.229,1.229,0,0,1-1.37-1.245c.005-.749.523-1.21,1.39-1.218C834.171,662.889,835.073,662.9,835.975,662.9Z" transform="translate(-112.099 -298.892)"/><path class="b" d="M835.961,701.531c-.923,0-1.845.008-2.768,0a1.229,1.229,0,1,1-.054-2.453q2.829-.037,5.658,0a1.229,1.229,0,1,1-.069,2.453C837.806,701.539,836.883,701.531,835.961,701.531Z" transform="translate(-112.098 -330.593)"/><path class="b" d="M835.969,628.976c-.9,0-1.809.012-2.713,0-.867-.014-1.387-.491-1.386-1.234s.517-1.217,1.393-1.224q2.713-.022,5.427,0a1.211,1.211,0,0,1,1.354,1.26,1.226,1.226,0,0,1-1.361,1.2C837.778,628.988,836.873,628.976,835.969,628.976Z" transform="translate(-112.091 -266.993)"/><path class="b" d="M1022.257,628.98c-.882,0-1.764.013-2.645,0a1.259,1.259,0,0,1-1.386-1.244,1.239,1.239,0,0,1,1.352-1.211q2.768-.027,5.536,0a1.23,1.23,0,0,1,1.324,1.237,1.249,1.249,0,0,1-1.352,1.215C1024.144,628.995,1023.2,628.98,1022.257,628.98Z" transform="translate(-275.453 -266.997)"/><path class="b" d="M1022.318,701.537c-.923,0-1.846.01-2.768,0a1.23,1.23,0,1,1-.018-2.455q2.8-.033,5.6,0a1.233,1.233,0,1,1-.043,2.457C1024.163,701.545,1023.241,701.537,1022.318,701.537Z" transform="translate(-275.459 -330.599)"/><path class="b" d="M1022.337,662.892c.923,0,1.846-.009,2.768,0a1.234,1.234,0,1,1,.019,2.459q-2.768.021-5.537,0a1.234,1.234,0,1,1-.019-2.46C1020.491,662.882,1021.414,662.892,1022.337,662.892Z" transform="translate(-275.466 -298.889)"/><path class="b" d="M922.81,384.659a4.313,4.313,0,1,1,4.29,4.318A4.308,4.308,0,0,1,922.81,384.659Zm2.468-.009a1.827,1.827,0,0,0,1.814,1.858,1.855,1.855,0,0,0,1.875-1.815,1.89,1.89,0,0,0-1.831-1.871A1.849,1.849,0,0,0,925.278,384.649Z" transform="translate(-191.81 -51.216)"/><path class="c" d="M942.812,402.191a1.849,1.849,0,0,1,1.858-1.827,1.89,1.89,0,0,1,1.831,1.871,1.855,1.855,0,0,1-1.875,1.815A1.827,1.827,0,0,1,942.812,402.191Z" transform="translate(-209.344 -68.758)"/></g></svg>