<svg xmlns="http://www.w3.org/2000/svg" width="67.727" height="67.772" viewBox="0 0 67.727 67.772">
  <g id="Group_5676" data-name="Group 5676" transform="translate(-680.152 -183.707)">
    <path id="Path_13381" data-name="Path 13381" d="M680.152,211.818v-10.3c.392-.138.776-.27,1.157-.408a4.183,4.183,0,0,0,2.443-5.931c-.525-1.111-.525-1.111.321-1.957l5.6-5.6c.818-.818.818-.818,1.846-.325a4.132,4.132,0,0,0,5.4-1.25,16.892,16.892,0,0,0,1.1-2.33H703.4c1.433,0,2.867.017,4.3-.01a.639.639,0,0,1,.716.516,19.989,19.989,0,0,0,.863,1.917c.161.328.417.383.793.264a8.584,8.584,0,0,1,10.149,3.507.85.85,0,0,0,.858.365c4.074,0,8.148.015,12.221-.009a3.4,3.4,0,0,1,3.363,1.99.744.744,0,0,0,.433.349,5.469,5.469,0,0,1,.032,10.638c-.043.014-.085.033-.184.073v.649c0,4.029,0,8.06-.008,12.089a.938.938,0,0,0,.487.91,10.448,10.448,0,0,1,1.359,1.388c.175.177.369.409.588.454a7.667,7.667,0,0,1,6.313,7.648,4.07,4.07,0,0,1,0,.547.787.787,0,0,0,.507.89,3.21,3.21,0,0,1,.566,5.257c-.133.121-.27.238-.438.385a11.942,11.942,0,0,1,.981,9.566,11.782,11.782,0,0,1-4.571,6.205A12.028,12.028,0,0,1,725.3,233.654a11.687,11.687,0,0,1-1.227-1.8,3.036,3.036,0,0,1,1.282-3.85,1.205,1.205,0,0,0,.672-1.287,7.459,7.459,0,0,1,3.9-7.013,17.663,17.663,0,0,1,2.345-.885,2.181,2.181,0,0,0,.651-.475q.748-.72,1.462-1.477c.149-.158.355-.363.356-.548.021-4.323.016-8.648.016-12.764a16.381,16.381,0,0,1-2.738-1.81,15.55,15.55,0,0,1-1.775-2.693h-7.779c.716,1.548,2.114,2.023,3.532,2.457v10.312c-.4.143-.809.28-1.21.427a4.178,4.178,0,0,0-2.424,5.84c.02.041.044.08.064.121.5,1.052.517,1.066-.347,1.892a1.343,1.343,0,0,0-.441,1.071q.018,13.829.008,27.66c0,1.857-.8,2.649-2.665,2.649H687.169c-1.873,0-2.666-.787-2.666-2.646q0-13.66.015-27.319a1.745,1.745,0,0,0-.695-1.645c-.589-.4-.555-.818-.237-1.423a4.128,4.128,0,0,0-.822-5.379,7.69,7.69,0,0,0-1.593-.889A8.841,8.841,0,0,0,680.152,211.818Zm16.78,15.554a4.074,4.074,0,0,0-5.466-1.309c-.97.477-.971.478-1.737-.29-.971-.974-1.94-1.949-3.006-3.021v26.5h32.7V222.766c-.97.974-1.847,1.856-2.726,2.737-1,1-1,1-2.28.429a4.172,4.172,0,0,0-5.744,2.407,5.521,5.521,0,0,0-.26.775c-.086.4-.3.522-.712.516-1.729-.023-3.458-.011-5.188-.008-.165,0-.331.033-.54.055a7.66,7.66,0,1,1-13.05,4.553C689.49,230.185,692.055,227.974,696.932,227.372Zm23.281-27.827c-.464.515-.845,1-1.29,1.411a.793.793,0,0,0-.212.895,25.811,25.811,0,0,1,.714,3.95,16.367,16.367,0,1,1-30.05-8.059c3.595-5.407,8.772-7.864,15.293-7.37a.973.973,0,0,0,.712-.19c.744-.848,1.44-1.738,2.182-2.65a12.532,12.532,0,0,1-.683-1.188.668.668,0,0,0-.722-.451q-3.072.028-6.144,0a.684.684,0,0,0-.732.434,6.345,6.345,0,0,1-7.92,3.293.88.88,0,0,0-.741.166c-1.486,1.443-2.934,2.925-4.413,4.375a.675.675,0,0,0-.183.827,6.3,6.3,0,0,1-3.248,7.868.681.681,0,0,0-.467.712c.021,2.072,0,4.144.028,6.215a.888.888,0,0,0,.41.645,6.411,6.411,0,0,1,3.294,7.941.882.882,0,0,0,.15.746q2.187,2.255,4.44,4.444a.81.81,0,0,0,.682.159,6.354,6.354,0,0,1,7.943,3.245.685.685,0,0,0,.706.477c2.071-.023,4.141,0,6.212-.028a.889.889,0,0,0,.655-.393,6.4,6.4,0,0,1,7.993-3.3.821.821,0,0,0,.686-.152q2.273-2.216,4.49-4.49a.758.758,0,0,0,.137-.632,6.379,6.379,0,0,1,3.32-8.034.767.767,0,0,0,.361-.547q.038-3.21,0-6.42a.676.676,0,0,0-.316-.5A6.592,6.592,0,0,1,720.212,199.546Zm-15.257-1.262c-.133.081-.232.129-.318.193q-7.463,5.685-14.932,11.361c-.392.3-.32.569-.208.937a14.231,14.231,0,0,0,12.174,10.015.817.817,0,0,0,1.017-.577c1.619-3.631,3.274-7.247,4.919-10.867.948-2.087,1.9-4.172,2.864-6.3A8.973,8.973,0,0,1,704.956,198.284Zm30.937,31.337a9.836,9.836,0,1,0,9.791,9.843A9.852,9.852,0,0,0,735.893,229.621Zm-19.235-26.907c-1.139.225-2.26.489-3.4.65a.846.846,0,0,0-.792.556c-1.639,3.646-3.3,7.281-4.953,10.92-.883,1.942-1.764,3.884-2.654,5.847C713.244,219.877,719.359,210.96,716.657,202.713Zm-27.683,4.876a1,1,0,0,0,.181-.072q7.412-5.641,14.818-11.292a.678.678,0,0,0,.277-.421c.023-1.078.012-2.156.012-3.244C695.654,191.564,688.139,199.316,688.974,207.589Zm52.686,21.336c.579-.429,1.111-.807,1.619-1.213a.679.679,0,0,0,.21-.435,10.087,10.087,0,0,0,0-1.091,5.48,5.48,0,0,0-4.027-5.1.591.591,0,0,0-.8.331,3.218,3.218,0,0,1-5.617.009c-.218-.362-.4-.463-.8-.345a5.615,5.615,0,0,0-4.032,6.322.519.519,0,0,0,.2.31c.516.4,1.044.778,1.632,1.211A11.938,11.938,0,0,1,741.66,228.925Zm-35.305-34.258a6.553,6.553,0,1,0,6.533-6.575A6.574,6.574,0,0,0,706.355,194.667Zm15.084,2.164c4.084,0,8.156.007,12.227-.008a1.046,1.046,0,0,0,1.085-1.085c.027-.591.009-1.184.008-1.776,0-1.161-.342-1.5-1.505-1.5q-5.6,0-11.2,0c-.215,0-.431.019-.614.027.072.76.192,1.459.192,2.158S721.514,196.047,721.439,196.83Zm-30.024,39.938a32.34,32.34,0,0,1,2.832-1.6,1.81,1.81,0,0,0,1.2-2.092c-.1-1.086-.022-2.189-.022-3.3C692.2,230.429,690.191,233.962,691.415,236.768Zm6.2-6.984c0,1.483,0,2.912.007,4.34a.54.54,0,0,0,.157.4c1.276.758,2.565,1.495,3.859,2.242A5.326,5.326,0,0,0,697.613,229.784Zm-5.111,8.89c2.046,2.486,6.275,2.459,8.017-.016-1.238-.716-2.468-1.437-3.713-2.131a.666.666,0,0,0-.555-.01C695.006,237.213,693.777,237.936,692.5,238.674Zm44.426-43.766a3.731,3.731,0,0,1-.947,3.142,3.8,3.8,0,0,1-3.134.969,3.171,3.171,0,0,0,3.322,2.172,3.326,3.326,0,0,0,2.938-2.871A3.209,3.209,0,0,0,736.928,194.908Zm.01,24.853a1.087,1.087,0,1,0-1.065,1.111A1.1,1.1,0,0,0,736.939,219.761Zm-10.407,11.86,1.538-1.382a.907.907,0,0,0-1.108-.575,1.672,1.672,0,0,0-.883.814A.9.9,0,0,0,726.531,231.621Zm17.13-1.447,1.5,1.461a.932.932,0,0,0,.459-1.166,1.7,1.7,0,0,0-.89-.806A.885.885,0,0,0,743.661,230.174Z" fill="#024"/>
    <path id="Path_13382" data-name="Path 13382" d="M740.349,195.635a3.209,3.209,0,0,1,2.18,3.412,3.326,3.326,0,0,1-2.938,2.871,3.171,3.171,0,0,1-3.322-2.172,3.8,3.8,0,0,0,3.134-.969A3.731,3.731,0,0,0,740.349,195.635Z" transform="translate(-3.421 -0.727)" fill="#fff"/>
    <path id="Path_13383" data-name="Path 13383" d="M719.236,234.979v2.1h-6.469v-2.1Z" transform="translate(-1.988 -3.125)" fill="#0c9eda"/>
    <path id="Path_13384" data-name="Path 13384" d="M712.749,239.617h6.466v2.112h-6.466Z" transform="translate(-1.987 -3.408)" fill="#0c9eda"/>
    <path id="Path_13385" data-name="Path 13385" d="M719.253,244.284v2.09H712.76v-2.09Z" transform="translate(-1.988 -3.693)" fill="#0c9eda"/>
    <path id="Path_13386" data-name="Path 13386" d="M710.212,234.967v2.1H708.1v-2.1Z" transform="translate(-1.704 -3.125)" fill="#0c9eda"/>
    <path id="Path_13387" data-name="Path 13387" d="M708.093,239.616h2.1v2.113h-2.1Z" transform="translate(-1.703 -3.408)" fill="#0c9eda"/>
    <path id="Path_13388" data-name="Path 13388" d="M708.089,244.267H710.2v2.121h-2.108Z" transform="translate(-1.703 -3.692)" fill="#0c9eda"/>
    <path id="Path_13389" data-name="Path 13389" d="M703.231,248.934v2.1h-2.112v-2.1Z" transform="translate(-1.278 -3.976)" fill="#0c9eda"/>
    <path id="Path_13390" data-name="Path 13390" d="M705.781,248.924h2.1v2.126h-2.1Z" transform="translate(-1.562 -3.975)" fill="#0c9eda"/>
    <path id="Path_13391" data-name="Path 13391" d="M742.532,248.046h-2.153v2.14h-2.217c0-.64.025-1.272-.015-1.9a.79.79,0,0,0-.308-.575c-1.624-.868-2.016-2.273-1.824-4h1.934a5.635,5.635,0,0,0,.71,1.884c.29.327,1.036.248,1.687.37,0-.475.013-.808,0-1.139a1.1,1.1,0,0,0-1.1-1.149,3.291,3.291,0,0,1-3.268-3.6c0-.953,0-1.906,0-2.934h2.178v-2.177h2.193c0,.625-.018,1.253.01,1.878.008.193.088.485.225.555,1.666.85,2.108,2.265,1.915,4.044h-1.931a5.751,5.751,0,0,0-.744-1.892c-.293-.32-1.036-.228-1.655-.334,0,.51-.023.87,0,1.225a1.09,1.09,0,0,0,1.126,1.049,3.286,3.286,0,0,1,3.233,3.566C742.534,246.026,742.532,247,742.532,248.046Z" transform="translate(-3.402 -3.125)" fill="#024"/>
    <path id="Path_13392" data-name="Path 13392" d="M714.69,199.443a4.37,4.37,0,1,1,4.429-4.327A4.384,4.384,0,0,1,714.69,199.443Zm2.243-4.4a2.183,2.183,0,1,0-2.139,2.211A2.2,2.2,0,0,0,716.934,195.046Z" transform="translate(-1.843 -0.426)" fill="#0c9eda"/>
  </g>
</svg>
