<svg xmlns="http://www.w3.org/2000/svg" xmlns:xlink="http://www.w3.org/1999/xlink" width="705" height="499" viewBox="0 0 705 499"><defs><style>.a,.d,.i{fill:#fff;}.a{stroke:#707070;}.b,.e,.m,.o,.p{fill:none;}.c{clip-path:url(#a);}.d,.e{stroke:#e5e5e5;}.e,.o{stroke-miterlimit:10;}.f{fill:#ececec;}.f,.l{mix-blend-mode:multiply;}.f,.j,.l{isolation:isolate;}.g{fill:#dedede;}.h{fill:#c7c7c7;}.j{fill:#59bdff;mix-blend-mode:screen;}.ab,.ac,.ad,.k{fill:#024;}.l,.v{fill:#12b2f3;}.l{stroke:#024;}.m{stroke:#29abe2;stroke-width:0.25px;}.m,.p{stroke-linecap:round;stroke-linejoin:round;}.n{fill:#fbae17;}.o{stroke:aqua;stroke-width:0.246px;}.p{stroke:#fff;stroke-width:0.456px;}.q{fill:#14db7b;}.r{fill:#eaa68d;}.s{fill:#2dbef9;}.t{fill:#161922;}.u{fill:#043b51;}.w{opacity:0.1;}.x{fill:#42e8e0;}.y{fill:#0c9eda;}.z{fill:#0480b2;}.aa{fill:#03002d;opacity:0.2;}.ab{opacity:0.68;}.ac{opacity:0.48;}.ad{opacity:0.38;}.ae{fill:url(#b);}.af{fill:#1459aa;}.ag{fill:#08315a;}.ah{fill:#1b528a;}.ai{fill:#f5fcff;}.aj{clip-path:url(#c);}.ak{fill:#57afeb;}.al{fill:#2889cb;}.am{fill:#1475b7;}.an{fill:#f5f5f5;}.ao{fill:url(#d);}.ap{fill:#fafafa;}.aq{fill:#195699;}.ar{fill:url(#f);}.as{fill:#e6e6e6;}.at{fill:#d3d3d3;}.au{fill:#cfcfcf;}</style><clipPath id="a"><rect class="a" width="705" height="499" transform="translate(162 2910)"/></clipPath><linearGradient id="b" y1="0.443" x2="0.958" y2="0.708" gradientUnits="objectBoundingBox"><stop offset="0" stop-color="#024"/><stop offset="1" stop-color="#13477a"/></linearGradient><clipPath id="c"><path class="b" d="M19.241,19.619l14.739-8.51c1.048-.6.916-1.662-.294-2.36L19.536.578A4.542,4.542,0,0,0,15.447.409L.707,8.919c-1.048.6-.916,1.661.294,2.36l14.151,8.17A4.545,4.545,0,0,0,19.241,19.619Z"/></clipPath><linearGradient id="d" x1="0.5" x2="0.5" y2="1" gradientUnits="objectBoundingBox"><stop offset="0" stop-color="#a7e5ff" stop-opacity="0"/><stop offset="1" stop-color="#d6f3ff" stop-opacity="0.741"/></linearGradient><linearGradient id="f" y1="0.443" x2="0.958" y2="0.708" gradientUnits="objectBoundingBox"><stop offset="0" stop-color="#a2a2a2"/><stop offset="1" stop-color="#e9e9e9"/></linearGradient></defs><g class="c" transform="translate(-162 -2910)"><g transform="translate(1649.919 2818.543)"><path class="d" d="M0,0,391.687,106.871,498.558,498.558,106.871,391.687Z" transform="translate(-1488 383.457) rotate(-45)"/><line class="e" y1="201.396" x2="352.533" transform="translate(-1152.253 373.867)"/><line class="e" y1="201.396" x2="352.533" transform="translate(-1169.041 364.277)"/><line class="e" y1="201.396" x2="352.533" transform="translate(-1185.828 354.686)"/><line class="e" y1="201.396" x2="352.533" transform="translate(-1202.615 345.096)"/><line class="e" y1="201.396" x2="352.533" transform="translate(-1219.403 335.506)"/><line class="e" y1="201.396" x2="352.533" transform="translate(-1236.19 325.916)"/><line class="e" y1="201.396" x2="352.533" transform="translate(-1252.977 316.325)"/><line class="e" y1="201.396" x2="352.533" transform="translate(-1269.765 306.735)"/><line class="e" y1="201.396" x2="352.533" transform="translate(-1286.552 297.145)"/><line class="e" y1="201.396" x2="352.533" transform="translate(-1303.339 287.555)"/><line class="e" y1="201.396" x2="352.533" transform="translate(-1320.126 277.964)"/><line class="e" y1="201.396" x2="352.533" transform="translate(-1336.914 268.374)"/><line class="e" y1="201.396" x2="352.533" transform="translate(-1353.701 258.784)"/><line class="e" y1="201.396" x2="352.533" transform="translate(-1370.489 249.193)"/><line class="e" y1="201.396" x2="352.533" transform="translate(-1387.276 239.603)"/><line class="e" y1="201.396" x2="352.533" transform="translate(-1404.063 230.013)"/><line class="e" y1="201.396" x2="352.533" transform="translate(-1420.85 220.423)"/><line class="e" y1="201.396" x2="352.533" transform="translate(-1437.638 210.832)"/><line class="e" y1="201.396" x2="352.533" transform="translate(-1454.425 201.242)"/><line class="e" y1="201.396" x2="352.533" transform="translate(-1471.213 191.652)"/><line class="e" x2="352.533" y2="201.396" transform="translate(-1152.253 191.652)"/><line class="e" x2="352.533" y2="201.396" transform="translate(-1169.041 201.242)"/><line class="e" x2="352.533" y2="201.396" transform="translate(-1185.828 210.832)"/><line class="e" x2="352.533" y2="201.396" transform="translate(-1202.615 220.423)"/><line class="e" x2="352.533" y2="201.396" transform="translate(-1219.403 230.013)"/><line class="e" x2="352.533" y2="201.396" transform="translate(-1236.19 239.603)"/><line class="e" x2="352.533" y2="201.396" transform="translate(-1252.977 249.193)"/><line class="e" x2="352.533" y2="201.396" transform="translate(-1269.765 258.784)"/><line class="e" x2="352.533" y2="201.396" transform="translate(-1286.552 268.374)"/><line class="e" x2="352.533" y2="201.396" transform="translate(-1303.339 277.964)"/><line class="e" x2="352.533" y2="201.396" transform="translate(-1320.126 287.555)"/><line class="e" x2="352.533" y2="201.396" transform="translate(-1336.914 297.145)"/><line class="e" x2="352.533" y2="201.396" transform="translate(-1353.701 306.735)"/><line class="e" x2="352.533" y2="201.396" transform="translate(-1370.489 316.325)"/><line class="e" x2="352.533" y2="201.396" transform="translate(-1387.276 325.916)"/><line class="e" x2="352.533" y2="201.396" transform="translate(-1404.063 335.506)"/><line class="e" x2="352.533" y2="201.396" transform="translate(-1420.85 345.096)"/><line class="e" x2="352.533" y2="201.396" transform="translate(-1437.638 354.686)"/><line class="e" x2="352.533" y2="201.396" transform="translate(-1454.425 364.277)"/><line class="e" x2="352.533" y2="201.396" transform="translate(-1471.213 373.867)"/></g><path class="f" d="M500.836,349.381c-9.623-5.556-25.171-5.556-34.731,0h0c-9.56,5.556-9.509,14.562.114,20.118s25.171,5.556,34.731,0S510.461,354.937,500.836,349.381Z" transform="translate(-80.584 2953.612)"/><g transform="translate(322.579 2910.5)"><g transform="translate(0 169.377)"><path class="g" d="M430.649,314.853c.02.116.057.232.086.348.026.1.043.2.075.295.039.116.1.23.145.346.041.094.075.193.124.287.059.116.136.226.2.34.057.092.106.187.171.279.081.114.179.224.269.336.071.089.134.177.214.265.1.114.226.224.342.334.085.081.157.163.248.24.143.126.3.246.466.368.079.059.147.122.23.181q.374.265.8.513L665.509,452.63c.275.159.56.307.855.446.1.047.2.087.3.132.195.086.387.171.588.25.4.157.821.3,1.248.421.132.039.268.073.4.108.238.063.478.124.719.177.161.035.322.067.483.1.2.037.409.075.615.106.173.027.346.051.521.073q.289.038.578.065c.179.018.36.033.538.045.2.014.391.024.588.031.177.008.356.014.534.016.21,0,.423,0,.633,0,.169,0,.338-.006.507-.014.261-.012.521-.029.78-.051.139-.012.279-.022.417-.035.446-.047.886-.106,1.321-.185.147-.026.293-.059.44-.089.214-.043.43-.086.641-.137.155-.037.307-.083.46-.124.2-.053.4-.108.6-.169.114-.037.224-.077.334-.116.313-.106.619-.222.916-.346.112-.047.224-.092.332-.142.379-.173.749-.354,1.1-.556l126.773-73.673c.281-.163.544-.334.792-.509.024-.018.043-.035.067-.053.053-.039.1-.081.151-.12.161-.122.324-.244.468-.37.024-.022.041-.043.065-.063.057-.051.1-.1.159-.157.122-.116.25-.232.358-.354.018-.02.031-.039.049-.059.055-.063.1-.126.151-.189.092-.116.193-.23.275-.346.057-.085.1-.171.153-.255l.012-.018c.069-.114.145-.226.2-.342.043-.086.071-.175.11-.261l.01-.026c.049-.114.1-.226.143-.342.028-.087.041-.175.065-.261l.01-.037c.028-.114.063-.226.083-.34.016-.094.016-.191.024-.285l0-.02c.157-1.84-.969-3.711-3.406-5.118L577.19,235.787c-4.556-2.63-11.92-2.63-16.445,0L433.973,309.457c-2.256,1.313-3.381,3.029-3.379,4.747,0,.116.018.232.03.346S430.633,314.752,430.649,314.853Z" transform="translate(-430.557 -233.814)"/><path class="h" d="M812.1,335.071l0,.02c-.008.094-.008.191-.024.285-.02.114-.055.226-.083.34l-.01.037c-.024.087-.037.175-.065.261-.039.116-.094.228-.143.342l-.01.026c-.039.086-.067.175-.11.261-.059.116-.136.228-.2.342l-.012.018c-.053.085-.1.171-.153.255-.083.116-.183.23-.275.346-.051.063-.1.126-.151.189-.018.02-.031.039-.049.059-.108.122-.236.238-.358.354-.055.053-.1.106-.159.157-.024.02-.041.041-.065.063-.143.126-.307.248-.468.37-.051.039-.1.081-.151.12-.024.018-.043.035-.067.053-.248.175-.511.346-.792.509L681.972,413.15c-.35.2-.719.383-1.1.556-.108.049-.22.094-.332.142-.3.124-.6.24-.916.346-.11.039-.22.079-.334.116-.195.061-.4.116-.6.169-.153.041-.3.087-.46.124-.21.051-.426.094-.641.137-.147.03-.293.063-.44.089-.434.079-.875.138-1.321.185-.138.014-.277.024-.417.035-.259.022-.519.039-.78.051-.169.008-.338.012-.507.014-.21,0-.423.006-.633,0-.179,0-.358-.008-.534-.016-.2-.008-.391-.018-.588-.031-.179-.012-.36-.028-.538-.045s-.385-.039-.578-.065c-.175-.022-.348-.045-.521-.073-.206-.031-.411-.069-.615-.106-.161-.031-.322-.063-.483-.1-.242-.053-.482-.114-.719-.177-.134-.035-.269-.069-.4-.108-.426-.124-.845-.263-1.248-.421-.2-.079-.393-.163-.588-.25-.1-.045-.2-.085-.3-.132-.295-.139-.58-.287-.855-.446L434.046,279.5q-.43-.248-.8-.513c-.083-.059-.151-.122-.23-.181-.161-.122-.322-.242-.466-.368-.09-.077-.163-.159-.248-.24-.116-.11-.238-.22-.342-.334-.081-.089-.144-.177-.214-.265-.09-.112-.189-.222-.269-.336-.065-.092-.114-.187-.171-.279-.069-.114-.145-.224-.2-.34-.049-.094-.083-.193-.124-.287-.049-.116-.106-.23-.145-.346-.031-.1-.049-.2-.075-.295-.029-.116-.067-.232-.086-.348-.016-.1-.018-.2-.026-.3s-.028-.23-.03-.346v-.016l-.037,9.8c0,1.736,1.142,3.473,3.434,4.8L665.492,422.949c.273.157.56.307.853.446.1.047.2.088.307.132.171.077.344.153.521.222l.061.027c.4.157.823.3,1.25.421l.1.028c.1.027.2.053.3.081.238.063.478.124.721.177l.195.039c.1.02.193.039.289.057.2.039.407.075.613.108l.249.035.271.037c.193.026.387.047.58.065.092.01.185.016.277.024s.173.016.259.022c.2.014.393.024.59.031.1,0,.2.006.295.008l.238.008c.212,0,.423,0,.635,0,.106,0,.212,0,.318-.008l.187-.006c.261-.012.523-.029.782-.053.106-.008.212-.016.318-.026.031,0,.065,0,.1-.008q.669-.071,1.323-.185l.063-.012c.126-.024.25-.051.373-.077.216-.043.432-.086.645-.138.153-.037.3-.082.456-.124.2-.053.4-.108.6-.171l.128-.043c.069-.022.138-.047.206-.071.313-.106.617-.222.916-.346.11-.047.222-.092.33-.141.379-.173.751-.354,1.1-.556l126.773-73.673c.051-.029.092-.061.142-.09.1-.063.2-.128.3-.193.142-.092.287-.185.419-.279.114-.085.218-.171.324-.257.122-.1.246-.195.358-.295.026-.024.047-.047.073-.071.145-.136.289-.271.417-.411.027-.029.051-.059.077-.089.082-.094.153-.189.228-.285.026-.033.053-.065.079-.1a4.783,4.783,0,0,0,.273-.407c.039-.063.081-.126.116-.191.012-.022.028-.045.041-.067.063-.12.116-.242.169-.362.033-.079.071-.157.1-.236l.022-.049c.041-.114.069-.23.1-.346.024-.09.049-.181.067-.271l.008-.027c.022-.12.029-.242.041-.366.01-.108.026-.216.027-.324l0-.016.035-9.8C812.124,334.856,812.106,334.962,812.1,335.071Z" transform="translate(-430.575 -194.334)"/></g><g transform="translate(136.234)"><path class="g" d="M748.247,297.337l-.006-.081c-.028-.322-.065-.645-.116-.971l0-.014c-.051-.322-.116-.649-.191-.973l-.02-.09c-.075-.316-.157-.631-.251-.947l-.018-.059q-.15-.492-.33-.981l-.024-.063c-.118-.318-.246-.637-.381-.951l-.024-.051c-.14-.32-.291-.639-.448-.955l-.045-.085c-.132-.257-.271-.513-.415-.767-.039-.073-.078-.145-.122-.216-.086-.151-.183-.3-.273-.448-.11-.177-.218-.354-.332-.527-.185-.281-.376-.56-.574-.829q-.327-.442-.676-.861l-.006-.008q-.339-.407-.7-.79l-.059-.059c-.222-.236-.45-.464-.682-.682l-.082-.077q-.345-.321-.7-.613l-.083-.067c-.246-.2-.5-.387-.751-.566l-.047-.033c-.271-.187-.546-.364-.826-.525L508.581,150.4q-.413-.239-.818-.425l-.029-.016c-.086-.039-.173-.067-.259-.1-.185-.079-.367-.157-.548-.22l-.014-.006c-.106-.035-.206-.055-.311-.086-.151-.045-.3-.092-.452-.126l-.029-.01c-.112-.024-.218-.033-.328-.051-.132-.022-.267-.049-.4-.061l-.037-.006c-.112-.01-.216,0-.324-.008s-.232-.01-.344-.006l-.057,0c-.106.006-.206.026-.31.037-.124.016-.252.024-.371.047-.1.022-.2.055-.3.083s-.212.053-.312.09l-.029.008c-.094.037-.183.086-.273.128-.106.049-.214.092-.314.149-1.488.857-2.414,2.689-2.421,5.3l-.415,146.624c-.016,5.234,3.668,11.612,8.221,14.242L739.6,449.63c2.437,1.407,4.623,1.447,6.138.389.069-.049.142-.092.208-.145l.039-.027c.09-.073.171-.161.256-.244.049-.047.1-.092.147-.143.023-.024.049-.043.071-.069.081-.09.151-.2.226-.295.051-.067.1-.13.151-.2l.035-.047c.071-.108.13-.23.195-.346.049-.094.1-.179.151-.277l0,0c.059-.126.106-.265.157-.4.031-.085.069-.163.1-.25.006-.022.016-.039.024-.061.047-.149.083-.312.122-.472.023-.092.051-.179.071-.273l.012-.043c.035-.185.059-.381.084-.576.01-.085.028-.163.035-.25l.006-.041c.03-.3.045-.615.045-.941l.417-146.624C748.286,297.976,748.272,297.658,748.247,297.337Z" transform="translate(-499.89 -146.053)"/><path class="i" d="M508.165,307.355a12.171,12.171,0,0,1-5.185-8.966l.411-145.619L734.045,285.937c.134.077.254.153.371.236l.118.081c.088.063.228.171.371.283.183.151.321.273.456.4.2.183.336.326.476.472.112.12.311.34.311.34l.21.248q.23.277.448.572c.13.179.261.37.389.564l.44.709.409.755c.128.257.212.442.295.629.11.252.191.454.265.656l.057.157c.075.206.132.379.185.554.067.228.122.432.171.635,0,0,.071.324.094.448l.031.2c.03.173.049.346.063.517l0,.047c.014.2.02.33.02.454l-.413,145.631Z" transform="translate(-496.907 -142.682)"/><path class="h" d="M752.436,296.281c0-.134-.008-.267-.018-.4,0-.063,0-.122-.006-.185l-.008-.081c0-.045-.012-.092-.016-.138-.014-.134-.032-.267-.049-.4s-.027-.279-.051-.419v-.012l0-.014c-.022-.128-.053-.259-.077-.387-.028-.146-.053-.289-.085-.432-.012-.051-.018-.1-.03-.153l-.022-.09c-.014-.063-.035-.126-.051-.189-.035-.145-.075-.291-.116-.438-.029-.106-.053-.212-.084-.318l-.018-.061-.02-.059c-.043-.142-.094-.281-.141-.423s-.092-.283-.142-.423l-.026-.077-.023-.063c-.033-.088-.073-.175-.106-.261-.053-.134-.106-.267-.161-.4-.039-.1-.075-.193-.116-.287l-.022-.053-.028-.057c-.059-.134-.126-.263-.187-.4s-.134-.291-.2-.434l-.031-.065-.043-.086c-.059-.114-.124-.226-.185-.34-.077-.142-.151-.285-.23-.425-.041-.073-.08-.146-.122-.218-.018-.027-.035-.055-.051-.082-.073-.124-.149-.242-.224-.364-.108-.177-.216-.356-.332-.529l-.057-.083c-.167-.252-.338-.5-.517-.745-.12-.163-.25-.318-.373-.478-.1-.128-.2-.259-.3-.385l-.006-.008,0,0c-.1-.126-.216-.246-.324-.368s-.208-.244-.317-.36l-.053-.059-.059-.061c-.075-.081-.153-.153-.23-.23-.116-.118-.23-.234-.346-.346-.035-.035-.071-.073-.106-.106l-.082-.077c-.059-.053-.118-.1-.177-.153-.12-.11-.244-.216-.365-.32-.055-.045-.106-.094-.159-.14l-.083-.067c-.041-.033-.084-.061-.126-.094-.12-.1-.244-.185-.366-.275-.087-.063-.171-.134-.258-.195l-.049-.033-.047-.031c-.118-.081-.238-.151-.358-.228s-.228-.149-.344-.216c-.026-.016-.051-.035-.077-.051L512.744,148.761c-.092-.053-.181-.092-.271-.142-.114-.061-.226-.12-.338-.175-.069-.033-.14-.077-.208-.108l-.053-.024c-.022-.012-.045-.018-.069-.029-.114-.051-.224-.09-.338-.134s-.218-.094-.324-.132l-.051-.02-.051-.016c-.081-.028-.157-.043-.236-.067-.114-.035-.228-.069-.34-.1-.049-.012-.1-.029-.151-.041l-.071-.016c-.039-.008-.077-.01-.114-.018-.126-.024-.246-.041-.368-.057-.067-.008-.136-.024-.2-.029l-.079-.008c-.028,0-.055,0-.083,0-.136-.01-.265-.01-.4-.008-.047,0-.1-.006-.145,0l-.13.006c-.053,0-.1.016-.155.02-.155.016-.309.028-.456.057l-.006,0c-.033.006-.063.018-.1.026a4.544,4.544,0,0,0-.491.142l-.016,0a4.024,4.024,0,0,0-.633.293l-5.548,3.225.016-.008c.1-.057.208-.1.314-.149.09-.041.179-.09.273-.128l.029-.008c.1-.037.208-.061.313-.09s.195-.061.3-.083c.12-.024.248-.031.371-.047.1-.012.2-.031.31-.037l.057,0c.112,0,.23,0,.344.006s.212,0,.324.008l.037.006c.128.012.263.039.4.061.11.018.216.027.328.051l.029.01c.147.033.3.081.452.126.1.031.2.051.311.086l.014.006c.181.063.364.142.548.22.086.037.173.065.259.1l.029.016q.4.186.818.425L738.679,285.633c.279.161.554.338.826.525l.047.033c.254.179.505.368.751.566l.083.067q.357.292.7.613l.082.077q.348.327.682.682l.059.059q.357.383.7.79l.006.008q.348.419.676.861c.2.269.389.548.574.829.114.173.222.35.332.527.09.149.187.3.273.448.043.071.082.143.122.216.144.254.283.509.415.767l.045.084c.157.316.309.635.448.955l.024.051c.136.314.263.633.381.951l.024.063q.18.489.33.981l.018.059c.094.316.177.631.251.947l.02.09c.075.324.14.651.191.973l0,.014c.051.326.089.649.116.971l.006.081c.026.32.039.639.039.953L746.484,446.5c0,.326-.016.641-.045.941l-.006.041c-.008.086-.026.165-.035.25-.026.195-.049.391-.084.576l-.012.043c-.02.094-.047.181-.071.273-.039.159-.075.322-.122.472-.008.022-.018.039-.024.061-.03.086-.067.165-.1.25-.051.134-.1.273-.157.4l0,0c-.047.1-.1.183-.151.277-.065.116-.124.238-.195.346l-.035.047c-.047.071-.1.134-.151.2-.075.1-.146.2-.226.295-.022.026-.047.045-.071.069-.047.051-.1.1-.147.143-.085.083-.165.171-.256.244l-.039.027c-.067.053-.139.1-.208.145-.09.063-.175.132-.269.187l5.548-3.223a4.4,4.4,0,0,0,.478-.332c.045-.037.089-.077.134-.116.108-.094.21-.195.311-.3.041-.045.085-.09.126-.138a4.7,4.7,0,0,0,.32-.425c.016-.024.033-.045.049-.071l.008-.012a4.985,4.985,0,0,0,.311-.564l.014-.024.027-.067c.055-.118.1-.248.146-.373.027-.071.059-.138.084-.212.014-.041.027-.081.039-.122s.018-.071.027-.1c.039-.138.075-.277.108-.421.012-.057.03-.106.041-.163l.02-.1c.01-.047.014-.1.022-.144.022-.128.041-.261.057-.393.01-.079.026-.153.033-.232l.01-.081c0-.027,0-.059,0-.088.01-.126.012-.257.018-.387s.02-.263.02-.4v-.026l.417-146.624C752.449,296.527,752.437,296.4,752.436,296.281Z" transform="translate(-498.505 -147.637)"/></g><g transform="translate(62.314 186.543)"><path class="i" d="M518.693,249.012l-11.2-6.464-11.122,6.464,11.2,6.464Z" transform="translate(-429.363 -242.548)"/><path class="i" d="M513.882,259.119,525,252.656l-6.572-3.794-4.626-2.671-11.122,6.464Z" transform="translate(-423.273 -239.032)"/><path class="i" d="M520.188,262.76l11.122-6.464-11.2-6.464L508.993,256.3Z" transform="translate(-417.181 -235.515)"/><path class="i" d="M526.5,266.4l11.122-6.464-11.2-6.466L515.3,259.939Z" transform="translate(-411.091 -231.999)"/><path class="i" d="M543.928,263.581l-11.2-6.464-11.122,6.464,11.2,6.464Z" transform="translate(-405 -228.482)"/><path class="i" d="M539.117,273.689l11.122-6.464-11.2-6.465-11.122,6.464Z" transform="translate(-398.91 -224.966)"/><path class="i" d="M545.424,277.33l11.122-6.464-11.2-6.464-11.122,6.464Z" transform="translate(-392.818 -221.449)"/><path class="i" d="M540.536,274.508l11.2,6.464,11.122-6.464-8.771-5.064-2.424-1.4Z" transform="translate(-386.729 -217.933)"/><path class="i" d="M558.041,284.614l11.122-6.464-11.2-6.463-11.122,6.464Z" transform="translate(-380.637 -214.416)"/><path class="i" d="M564.349,288.256l11.122-6.464-.555-.321-10.64-6.143-11.122,6.464Z" transform="translate(-374.547 -210.9)"/><path class="i" d="M570.658,291.9l11.122-6.464-4.266-2.463-6.929-4-11.122,6.464Z" transform="translate(-368.455 -207.383)"/><path class="i" d="M576.966,295.541l11.122-6.464-11.2-6.464-11.122,6.464Z" transform="translate(-362.366 -203.867)"/><path class="i" d="M572.079,292.719l11.2,6.465,11.122-6.464-3.806-2.2-7.393-4.268Z" transform="translate(-356.276 -200.351)"/><path class="i" d="M589.584,302.826l11.122-6.464-11.2-6.464-11.122,6.464Z" transform="translate(-350.184 -196.834)"/><path class="i" d="M595.9,306.47l11.122-6.464-11.2-6.465L584.7,300Z" transform="translate(-344.094 -193.318)"/><path class="i" d="M602.2,310.11l11.122-6.464-11.2-6.464-11.122,6.464Z" transform="translate(-338.003 -189.801)"/><path class="i" d="M608.513,313.754l11.122-6.464-11.2-6.466-11.122,6.464Z" transform="translate(-331.913 -186.286)"/><path class="i" d="M511.875,252.974l-11.2-6.464L493,250.975l-3.441,2,11.2,6.464Z" transform="translate(-435.946 -238.723)"/><path class="i" d="M518.186,256.618l-11.2-6.466-11.122,6.464,11.2,6.466Z" transform="translate(-429.856 -235.207)"/><path class="i" d="M513.37,266.723l11.122-6.464L513.3,253.8l-11.122,6.464Z" transform="translate(-423.764 -231.69)"/><path class="i" d="M519.681,270.366,530.8,263.9l-11.2-6.465L508.483,263.9Z" transform="translate(-417.674 -228.174)"/><path class="i" d="M525.988,274.007l11.122-6.464-11.2-6.464-11.123,6.464Z" transform="translate(-411.583 -224.657)"/><path class="i" d="M521.1,271.186l11.2,6.466,11.122-6.464-11.2-6.465Z" transform="translate(-405.493 -221.141)"/><path class="i" d="M538.605,281.292l11.122-6.464-11.2-6.464-11.122,6.464Z" transform="translate(-399.401 -217.624)"/><path class="i" d="M544.913,284.934l11.122-6.464-11.2-6.464-11.122,6.464Z" transform="translate(-393.311 -214.108)"/><path class="i" d="M551.223,288.577l11.122-6.464-11.2-6.464-11.122,6.464Z" transform="translate(-387.22 -210.591)"/><path class="i" d="M557.53,292.219l11.122-6.464-11.2-6.464-11.122,6.464Z" transform="translate(-381.13 -207.075)"/><path class="i" d="M563.84,295.862l11.122-6.464-11.2-6.464L552.645,289.4Z" transform="translate(-375.038 -203.558)"/><path class="i" d="M570.148,299.5l11.122-6.464-11.2-6.464-11.122,6.464Z" transform="translate(-368.948 -200.042)"/><path class="i" d="M576.459,303.147l11.122-6.464-11.2-6.466-11.122,6.464Z" transform="translate(-362.859 -196.526)"/><path class="i" d="M582.765,306.788l11.122-6.464-11.2-6.464-11.122,6.464Z" transform="translate(-356.767 -193.009)"/><path class="i" d="M589.077,310.432l11.122-6.463L589,297.5l-11.122,6.464Z" transform="translate(-350.677 -189.493)"/><path class="i" d="M595.383,314.073l11.122-6.464-11.2-6.464-11.122,6.464Z" transform="translate(-344.585 -185.976)"/><path class="i" d="M601.694,317.717l11.122-6.464-11.2-6.466L590.5,311.251Z" transform="translate(-338.496 -182.46)"/><path class="i" d="M505.055,256.938l-11.2-6.464-11.122,6.464,11.2,6.464Z" transform="translate(-442.53 -234.896)"/><path class="i" d="M511.366,260.582l-11.2-6.466-11.122,6.464,11.2,6.465Z" transform="translate(-436.44 -231.38)"/><path class="i" d="M495.355,264.223l11.2,6.464,11.122-6.464-11.2-6.464Z" transform="translate(-430.349 -227.863)"/><path class="i" d="M501.663,267.865l11.2,6.466,11.122-6.464-11.2-6.466Z" transform="translate(-424.259 -224.347)"/><path class="i" d="M507.972,271.507l11.2,6.464,11.122-6.464-11.2-6.464Z" transform="translate(-418.167 -220.83)"/><path class="i" d="M514.28,275.149l11.2,6.465,11.122-6.464-11.2-6.466Z" transform="translate(-412.077 -217.314)"/><path class="i" d="M520.59,278.792l11.2,6.464,11.122-6.464-11.2-6.464Z" transform="translate(-405.986 -213.797)"/><path class="i" d="M526.9,282.434l11.2,6.464,11.122-6.464-11.2-6.464Z" transform="translate(-399.896 -210.281)"/><path class="i" d="M533.207,286.077l11.2,6.464,11.122-6.464-11.2-6.464Z" transform="translate(-393.804 -206.764)"/><path class="i" d="M539.515,289.719l11.2,6.464,11.122-6.464-11.2-6.464Z" transform="translate(-387.714 -203.248)"/><path class="i" d="M545.825,293.361l11.2,6.464,11.122-6.464-11.2-6.464Z" transform="translate(-381.623 -199.731)"/><path class="i" d="M552.133,297l11.2,6.464L574.45,297l-11.2-6.464Z" transform="translate(-375.533 -196.215)"/><path class="i" d="M558.44,300.645l11.2,6.465,11.122-6.464-11.2-6.466Z" transform="translate(-369.443 -192.699)"/><path class="i" d="M564.75,304.288l11.2,6.464,11.122-6.464-11.2-6.464Z" transform="translate(-363.351 -189.182)"/><path class="i" d="M593.379,307.932l-11.2-6.466-11.123,6.464,11.2,6.465Z" transform="translate(-357.262 -185.666)"/><path class="i" d="M588.49,305.109l-11.122,6.464,11.2,6.464,11.122-6.464Z" transform="translate(-351.17 -182.15)"/><path class="i" d="M583.675,315.215l11.2,6.466L606,315.217l-11.2-6.466Z" transform="translate(-345.08 -178.633)"/><path class="i" d="M498.236,260.9l-11.2-6.464-7.661,4.452-3.462,2.012,11.2,6.464Z" transform="translate(-449.113 -231.071)"/><path class="i" d="M504.547,264.544l-11.2-6.465-11.122,6.464,11.2,6.465Z" transform="translate(-443.023 -227.555)"/><path class="i" d="M488.536,268.185l11.2,6.464,11.122-6.464-11.2-6.464Z" transform="translate(-436.931 -224.038)"/><path class="i" d="M494.844,271.827l11.2,6.465,11.122-6.464-11.2-6.465Z" transform="translate(-430.842 -220.522)"/><path class="i" d="M523.471,275.47l-11.2-6.464-11.122,6.464,11.2,6.464Z" transform="translate(-424.75 -217.005)"/><path class="i" d="M529.783,279.113l-11.2-6.465-11.122,6.464,11.2,6.465Z" transform="translate(-418.66 -213.489)"/><path class="i" d="M536.089,282.754l-11.2-6.464-11.122,6.464,11.2,6.464Z" transform="translate(-412.568 -209.972)"/><path class="i" d="M542.4,286.4l-11.2-6.464L520.079,286.4l11.2,6.464Z" transform="translate(-406.479 -206.456)"/><path class="i" d="M548.706,290.039l-11.2-6.464-11.122,6.464,11.2,6.464Z" transform="translate(-400.387 -202.939)"/><path class="i" d="M555.014,293.681l-11.2-6.464L532.7,293.681l11.2,6.464Z" transform="translate(-394.297 -199.423)"/><path class="i" d="M561.324,297.324l-11.2-6.464-11.122,6.464,11.2,6.464Z" transform="translate(-388.206 -195.906)"/><path class="i" d="M567.632,300.966l-11.2-6.464-11.122,6.464,11.2,6.464Z" transform="translate(-382.116 -192.39)"/><path class="i" d="M573.943,304.609l-11.2-6.465-11.122,6.464,11.2,6.465Z" transform="translate(-376.026 -188.874)"/><path class="i" d="M580.249,308.25l-11.2-6.464-11.122,6.464,11.2,6.464Z" transform="translate(-369.934 -185.357)"/><path class="i" d="M586.56,311.894l-11.2-6.466-11.122,6.464,11.2,6.465Z" transform="translate(-363.844 -181.841)"/><path class="i" d="M570.549,315.535l11.2,6.464,11.122-6.464-11.2-6.464Z" transform="translate(-357.753 -178.324)"/><path class="i" d="M576.857,319.177l11.2,6.466,3.462-2.012,7.661-4.452-11.2-6.466Z" transform="translate(-351.663 -174.808)"/><path class="i" d="M491.416,264.864l-11.2-6.464L469.1,264.864l11.2,6.463Z" transform="translate(-455.697 -227.244)"/><path class="i" d="M497.727,268.508l-11.2-6.466-11.122,6.464,11.2,6.465Z" transform="translate(-449.607 -223.728)"/><path class="i" d="M481.716,272.148l11.2,6.464,11.122-6.464-11.2-6.464Z" transform="translate(-443.516 -220.211)"/><path class="i" d="M510.345,275.792l-11.2-6.466-11.122,6.464,11.2,6.466Z" transform="translate(-437.426 -216.695)"/><path class="i" d="M516.651,279.433l-11.2-6.464-11.122,6.464,11.2,6.464Z" transform="translate(-431.334 -213.178)"/><path class="i" d="M522.962,283.077l-11.2-6.466-11.122,6.464,11.2,6.465Z" transform="translate(-425.244 -209.662)"/><path class="i" d="M529.269,286.718l-11.2-6.464-11.122,6.464,11.2,6.464Z" transform="translate(-419.153 -206.145)"/><path class="i" d="M535.577,290.36l-11.2-6.464-11.122,6.464,11.2,6.463Z" transform="translate(-413.063 -202.629)"/><path class="i" d="M541.886,294l-11.2-6.464L519.569,294l11.2,6.464Z" transform="translate(-406.971 -199.112)"/><path class="i" d="M548.194,297.644,537,291.181l-11.122,6.464,11.2,6.464Z" transform="translate(-400.882 -195.596)"/><path class="i" d="M554.5,301.287l-11.2-6.464-11.122,6.464,11.2,6.464Z" transform="translate(-394.79 -192.079)"/><path class="i" d="M560.812,304.929l-11.2-6.464-11.122,6.464,11.2,6.464Z" transform="translate(-388.7 -188.563)"/><path class="i" d="M567.123,308.573l-11.2-6.466L544.8,308.571l11.2,6.466Z" transform="translate(-382.61 -185.047)"/><path class="i" d="M573.429,312.214l-11.2-6.464-11.122,6.464,11.2,6.464Z" transform="translate(-376.519 -181.53)"/><path class="i" d="M579.74,315.858l-11.2-6.466-11.122,6.464,11.2,6.465Z" transform="translate(-370.429 -178.014)"/><path class="i" d="M574.851,313.035,563.729,319.5l11.2,6.464,11.122-6.464Z" transform="translate(-364.337 -174.497)"/><path class="i" d="M570.037,323.141l11.2,6.466,11.122-6.464-11.2-6.466Z" transform="translate(-358.247 -170.981)"/><path class="i" d="M484.6,268.826l-11.2-6.464-7.64,4.44-3.483,2.024,11.2,6.464Z" transform="translate(-462.28 -223.419)"/><path class="i" d="M479.71,266l-11.122,6.464,11.2,6.466,11.122-6.464Z" transform="translate(-456.19 -219.903)"/><path class="i" d="M486.02,269.647,474.9,276.111l11.2,6.464,11.122-6.464Z" transform="translate(-450.099 -216.386)"/><path class="i" d="M492.328,273.289l-11.122,6.464,11.2,6.465,11.122-6.464Z" transform="translate(-444.009 -212.87)"/><path class="i" d="M498.638,276.932,487.515,283.4l11.2,6.464,11.122-6.464Z" transform="translate(-437.917 -209.353)"/><path class="i" d="M504.945,280.574l-11.122,6.464,85.592,49.416,11.122-6.464Z" transform="translate(-431.827 -205.837)"/><path class="i" d="M549.106,306.07l-11.122,6.464,11.2,6.465,11.122-6.464Z" transform="translate(-389.193 -181.222)"/><path class="i" d="M555.416,309.713l-11.122,6.464,11.2,6.464,11.122-6.464Z" transform="translate(-383.101 -177.705)"/><path class="i" d="M561.723,313.355,550.6,319.818l11.2,6.465,11.122-6.464Z" transform="translate(-377.012 -174.189)"/><path class="i" d="M568.033,317l-11.122,6.464,11.2,6.464,11.122-6.464Z" transform="translate(-370.92 -170.672)"/><path class="i" d="M563.219,327.1l11.2,6.466,3.483-2.024,7.64-4.44-11.2-6.466Z" transform="translate(-364.83 -167.156)"/><path class="i" d="M562.158,351.948l25.272-14.688c3.335-1.938,3.318-5.079-.035-7.015l-73.445-42.4a13.347,13.347,0,0,0-12.111,0l-25.274,14.688c-3.331,1.936-3.314,5.077.039,7.013L510.123,328.9l39.926,23.053A13.349,13.349,0,0,0,562.158,351.948Z" transform="translate(-450.89 -200.222)"/></g></g><g transform="translate(427.503 2932.83)"><path class="j" d="M486.924,159l-2.73,1.587L728.2,301.462l-.462,162.922,2.73-1.586.462-162.922Z" transform="translate(-483.732 -158.998)"/><path class="k" d="M484.422,159.805l-.462,162.922L727.966,463.6l.462-162.922Z" transform="translate(-483.959 -158.219)"/><path class="l" d="M487.968,311.514l.409-144.79,228.3,131.811-.411,144.79Z" transform="translate(-480.09 -151.539)"/></g><g transform="translate(435.173 2954.822)"><line class="m" x2="228.527" y2="131.893" transform="translate(0.395)"/><line class="m" x2="228.527" y2="131.893" transform="translate(0.343 11.597)"/><line class="m" x2="228.527" y2="131.893" transform="translate(0.303 23.247)"/><line class="m" x2="228.527" y2="131.893" transform="translate(0.277 34.781)"/><line class="m" x2="228.527" y2="131.893" transform="translate(0.263 46.372)"/><line class="m" x2="228.527" y2="131.893" transform="translate(0.171 57.987)"/><line class="m" x2="228.527" y2="131.893" transform="translate(0.171 69.58)"/><line class="m" x2="228.527" y2="131.893" transform="translate(0.139 81.163)"/><line class="m" x2="228.527" y2="131.893" transform="translate(0.099 92.842)"/><line class="m" x2="228.527" y2="131.893" transform="translate(0.113 104.4)"/><line class="m" x2="228.527" y2="131.893" transform="translate(0.04 115.984)"/><line class="m" x2="228.527" y2="131.893" transform="translate(0.033 127.623)"/><line class="m" x2="228.527" y2="131.893" transform="translate(0 139.167)"/></g><g transform="translate(436.869 2949.331)"><path class="n" d="M497.9,172.57l-8.965-5.176,0,1.2,8.965,5.176Z" transform="translate(-488.524 -167.394)"/><path class="n" d="M494.119,172.86l0-1.2-5.19-3,0,.59,0,.614Z" transform="translate(-488.528 -166.172)"/><path class="n" d="M492.33,171.883l-3.4-1.963,0,1.2,3.4,1.963Z" transform="translate(-488.531 -164.955)"/><path class="n" d="M497.885,178.474,488.92,173.3l0,1.2,8.965,5.176Z" transform="translate(-488.54 -161.694)"/><path class="n" d="M494.106,177.555l-5.19-3v.274l0,.93,5.19,3Z" transform="translate(-488.544 -160.477)"/><path class="n" d="M492.309,178.992l0-1.2-3.4-1.963,0,.563,0,.642Z" transform="translate(-488.547 -159.255)"/><path class="n" d="M497.868,184.378,488.9,179.2l0,1.2,8.965,5.176Z" transform="translate(-488.557 -155.993)"/><path class="n" d="M494.089,183.459l-5.19-3,0,1.2,5.19,3Z" transform="translate(-488.56 -154.776)"/><path class="n" d="M492.3,183.686l-3.4-1.963,0,.548,0,.656,3.4,1.963Z" transform="translate(-488.564 -153.56)"/><path class="n" d="M497.848,191.378l0-1.1-8.965-5.176,0,1.1v.1l8.965,5.176Z" transform="translate(-488.573 -150.298)"/><path class="n" d="M494.073,189.363l-5.19-3,0,1.2,5.19,3Z" transform="translate(-488.576 -149.076)"/><path class="n" d="M492.279,189.59l-3.4-1.963,0,1.2,3.4,1.963Z" transform="translate(-488.58 -147.859)"/><path class="n" d="M497.835,196.182l-8.965-5.176,0,1.2,8.965,5.176Z" transform="translate(-488.589 -144.598)"/><path class="n" d="M488.863,193.471l5.19,3,0-1.2-5.19-3Z" transform="translate(-488.592 -143.381)"/><path class="n" d="M492.263,195.495l-3.4-1.963,0,1.2,3.4,1.963Z" transform="translate(-488.596 -142.159)"/><path class="n" d="M497.818,202.086l-8.965-5.176,0,1.2,8.965,5.176Z" transform="translate(-488.605 -138.898)"/><path class="n" d="M494.039,201.167l-5.19-3,0,1.2,5.19,3Z" transform="translate(-488.609 -137.681)"/><path class="n" d="M492.246,201.394l-3.4-1.963,0,1.2,3.4,1.963Z" transform="translate(-488.612 -136.464)"/><path class="n" d="M488.833,204.013l8.965,5.176,0-1.2-8.965-5.176Z" transform="translate(-488.621 -133.203)"/><path class="n" d="M494.022,207.071l-5.19-3,0,1.2,5.19,3Z" transform="translate(-488.625 -131.981)"/><path class="n" d="M492.229,207.3l-3.4-1.963,0,1.2,3.4,1.963Z" transform="translate(-488.628 -130.764)"/><path class="n" d="M497.785,213.889l-8.965-5.176,0,1.2,8.965,5.176Z" transform="translate(-488.637 -127.502)"/><path class="n" d="M488.812,211.178l5.19,3,0-1.2-5.19-3Z" transform="translate(-488.641 -126.285)"/><path class="n" d="M492.213,213.2l-3.4-1.963,0,1.2,3.4,1.963Z" transform="translate(-488.644 -125.064)"/><path class="n" d="M497.768,219.793l-8.965-5.176,0,1.2L497.765,221Z" transform="translate(-488.654 -121.802)"/><path class="n" d="M493.989,218.874l-5.19-3,0,1.2,5.19,3Z" transform="translate(-488.657 -120.585)"/><path class="n" d="M488.792,218.343l3.4,1.963,0-1.2-3.4-1.963Z" transform="translate(-488.66 -119.368)"/><path class="n" d="M497.748,226.892v-.319l0-.876-8.965-5.176,0,.876v.319Z" transform="translate(-488.67 -116.102)"/><path class="n" d="M493.972,224.778l-5.19-3,0,1.2,5.19,3Z" transform="translate(-488.673 -114.885)"/><path class="n" d="M492.179,225.005l-3.4-1.963v.1l0,1.1,3.4,1.963Z" transform="translate(-488.677 -113.668)"/><path class="n" d="M497.733,232.232l0-.635-8.965-5.176,0,.635,0,.57,8.965,5.176Z" transform="translate(-488.686 -110.407)"/><path class="n" d="M488.762,228.885l5.19,3,0-1.2-5.19-3Z" transform="translate(-488.689 -109.19)"/><path class="n" d="M492.162,230.91l-3.4-1.963,0,1.2,3.4,1.963Z" transform="translate(-488.693 -107.968)"/><path class="n" d="M497.718,237.5l-8.965-5.176,0,1.2,8.965,5.176Z" transform="translate(-488.702 -104.707)"/><path class="n" d="M493.939,236.581l-5.19-3,0,.93v.274l5.19,3Z" transform="translate(-488.705 -103.49)"/><path class="n" d="M488.742,236.05l3.4,1.963,0-1.2-3.4-1.963Z" transform="translate(-488.709 -102.273)"/><path class="n" d="M497.7,244.6v-.482l0-.712-8.965-5.176,0,.709v.486Z" transform="translate(-488.718 -99.007)"/><path class="n" d="M493.922,242.486l-5.19-3,0,1.2,5.19,3Z" transform="translate(-488.722 -97.79)"/><path class="n" d="M488.729,240.75l0,1.2,3.4,1.963,0-1.2Z" transform="translate(-488.725 -96.573)"/></g><g transform="translate(459.813 3101.243)"><path class="i" d="M509.371,251.056v-.483l0-.712-8.965-5.176,0,.709v.486Z" transform="translate(-500.392 -244.685)"/><path class="i" d="M505.6,248.942l-5.19-3,0,1.2,5.19,3Z" transform="translate(-500.395 -243.468)"/><path class="i" d="M500.4,247.206l0,1.2,3.4,1.963,0-1.2Z" transform="translate(-500.398 -242.251)"/><g transform="translate(21.657 12.527)"><path class="i" d="M520.39,257.43v-.483l0-.712-8.965-5.176,0,.709v.486Z" transform="translate(-511.41 -251.059)"/><path class="i" d="M516.614,255.316l-5.19-3,0,1.2,5.19,3Z" transform="translate(-511.414 -249.842)"/><path class="i" d="M511.421,253.58l0,1.2,3.4,1.963,0-1.2Z" transform="translate(-511.417 -248.625)"/></g><g transform="translate(43.313 25.054)"><path class="i" d="M531.409,263.8v-.483l0-.712-8.966-5.176,0,.709v.486Z" transform="translate(-522.429 -257.432)"/><path class="i" d="M527.633,261.69l-5.19-3,0,1.2,5.19,3Z" transform="translate(-522.432 -256.216)"/><path class="i" d="M522.439,259.954l0,1.2,3.4,1.963,0-1.2Z" transform="translate(-522.436 -254.999)"/></g><g transform="translate(64.97 37.581)"><path class="i" d="M542.427,270.177v-.482l0-.712-8.965-5.176,0,.709V265Z" transform="translate(-533.448 -263.806)"/><path class="i" d="M538.652,268.063l-5.19-3,0,1.2,5.19,3Z" transform="translate(-533.451 -262.589)"/><path class="i" d="M533.458,266.327l0,1.2,3.4,1.963,0-1.2Z" transform="translate(-533.455 -261.372)"/></g><g transform="translate(86.627 50.108)"><path class="i" d="M553.446,276.551v-.483l0-.712-8.966-5.176,0,.709v.486Z" transform="translate(-544.467 -270.18)"/><path class="i" d="M549.67,274.437l-5.19-3,0,1.2,5.19,3Z" transform="translate(-544.47 -268.963)"/><path class="i" d="M544.477,272.7l0,1.2,3.4,1.963,0-1.2Z" transform="translate(-544.474 -267.746)"/></g><g transform="translate(108.284 62.635)"><path class="i" d="M564.465,282.924v-.483l0-.712-8.965-5.176,0,.709v.486Z" transform="translate(-555.485 -276.553)"/><path class="i" d="M560.689,280.81l-5.19-3,0,1.2,5.19,3Z" transform="translate(-555.489 -275.336)"/><path class="i" d="M555.5,279.074l0,1.2,3.4,1.963,0-1.2Z" transform="translate(-555.492 -274.119)"/></g><g transform="translate(129.94 75.162)"><path class="i" d="M575.484,289.3v-.482l0-.712-8.965-5.176,0,.709v.486Z" transform="translate(-566.504 -282.927)"/><path class="i" d="M571.708,287.184l-5.19-3,0,1.2,5.19,3Z" transform="translate(-566.508 -281.71)"/><path class="i" d="M566.514,285.448l0,1.2,3.4,1.963,0-1.2Z" transform="translate(-566.511 -280.493)"/></g><g transform="translate(151.597 87.689)"><path class="i" d="M586.5,295.671v-.483l0-.712L577.54,289.3l0,.709v.486Z" transform="translate(-577.523 -289.301)"/><path class="i" d="M582.727,293.558l-5.19-3,0,1.2,5.19,3Z" transform="translate(-577.526 -288.084)"/><path class="i" d="M577.533,291.822l0,1.2,3.4,1.963,0-1.2Z" transform="translate(-577.53 -286.867)"/></g><g transform="translate(173.253 100.216)"><path class="i" d="M597.521,302.045v-.483l0-.712-8.965-5.176,0,.709v.486Z" transform="translate(-588.542 -295.674)"/><path class="i" d="M593.746,299.931l-5.19-3,0,1.2,5.19,3Z" transform="translate(-588.545 -294.457)"/><path class="i" d="M588.552,298.2l0,1.2,3.4,1.963,0-1.2Z" transform="translate(-588.548 -293.24)"/></g><g transform="translate(194.91 112.743)"><path class="i" d="M608.54,308.419v-.483l0-.712-8.965-5.176,0,.708v.486Z" transform="translate(-599.56 -302.048)"/><path class="i" d="M604.764,306.3l-5.19-3,0,1.2,5.19,3Z" transform="translate(-599.564 -300.831)"/><path class="i" d="M599.571,304.569l0,1.2,3.4,1.963,0-1.2Z" transform="translate(-599.567 -299.614)"/></g></g><path class="o" d="M494.723,246.2l41.642-23.322,21.982,38.213,30.865-39.95,24.474,44.525L647.4,245.148l31.2,35.669,26.715-21.651" transform="translate(-46.065 2833.83)"/><path class="p" d="M496.779,252.311l28.458-31.167,21.208,40.816,21.08-32.651,14.267,19.234L603,230.613l21.019,39.51,28.466-21.487,21.21,46.7,26.645-23.425" transform="translate(-44.08 2833.83)"/><g transform="translate(458.315 3046.069)"><path class="q" d="M502.879,242.689l.026-9.058-1.236-.714.012-4.155-.77-.444-.012,4.155-1.236-.714-.013,4.529-.013,4.529,1.236.714-.012,4.155.354.2.416.24.012-4.155Z" transform="translate(-499.637 -205.313)"/><path class="q" d="M506.475,236.158l.026-3.453-1.236-.714.012-4.155-.766-.442-.012,4.155-1.24-.716-.026,3.453,1.24.716-.012,4.155.766.442.012-4.155Z" transform="translate(-496.165 -206.205)"/><path class="i" d="M506.855,224.206l-.025,9.058,1.24.716-.012,4.155.766.442.012-4.155,1.236.714.026-9.058-1.236-.714.012-4.155-.766-.442-.012,4.155Z" transform="translate(-492.692 -212.603)"/><path class="q" d="M513.666,230.982l.026-9.058-1.236-.714.012-4.155-.766-.442-.012,4.155-1.236-.714-.026,9.058,1.236.714-.012,4.155.766.442.012-4.155Z" transform="translate(-489.218 -216.613)"/><path class="i" d="M514.05,227.606l-.026,5.037,1.236.714-.012,4.155.766.442.012-4.155,1.24.716.026-5.037-1.24-.716.012-4.155-.766-.442-.012,4.155Z" transform="translate(-485.746 -209.323)"/><path class="q" d="M519.624,239.87l1.24.716.026-3.24-1.24-.716.012-4.155-.145-.084-.621-.359-.012,4.155-1.236-.714-.026,3.24,1.236.714-.012,4.155.621.358.145.084Z" transform="translate(-482.274 -201.726)"/><path class="i" d="M521.244,240.443l-.026,9.058,1.236.714-.012,4.155.77.444.012-4.155,1.236.714.026-9.058-1.236-.714.012-4.155-.77-.444-.012,4.155Z" transform="translate(-478.801 -196.93)"/><path class="q" d="M528.056,240.671l.026-4.953L526.846,235l.012-4.155-.766-.442-.012,4.155-1.24-.716-.026,4.952,1.24.716-.012,4.155.766.442.012-4.155Z" transform="translate(-475.329 -203.296)"/><path class="i" d="M528.436,230.406l-.026,3.55,1.24.716-.012,4.155.766.442.012-4.155,1.236.714.026-3.55-1.236-.714.012-4.155-.766-.442-.012,4.155Z" transform="translate(-471.857 -206.617)"/><path class="q" d="M534.013,234.423l1.236.714.026-9.058-1.236-.714.012-4.155-.766-.442-.012,4.155-1.24-.716-.026,9.058,1.24.716-.012,4.155.4.234.362.209Z" transform="translate(-468.385 -212.603)"/><path class="i" d="M538.848,240.046l.026-9.058-1.24-.716.012-4.155-.766-.442-.012,4.155-1.236-.714-.026,9.058,1.236.714-.012,4.155.766.442.012-4.155Z" transform="translate(-464.911 -207.865)"/><path class="q" d="M539.228,233.647l-.026,9.058,1.236.714-.012,4.155.766.442.012-4.155,1.24.716.026-9.058-1.24-.716.012-4.155-.766-.442-.012,4.155Z" transform="translate(-461.438 -203.491)"/><path class="i" d="M546.041,243.678l.026-9.058-1.236-.714.012-4.155-.77-.444-.012,4.155-1.236-.714-.026,9.058,1.236.714-.012,4.155.77.444.012-4.155Z" transform="translate(-457.966 -204.358)"/><path class="i" d="M548.4,236.843l1.236.714.026-3.19-1.236-.714.012-4.155-.511-.3-.255-.147-.012,4.155-1.24-.716-.026,3.19,1.24.716-.012,4.155.255.147.511.3Z" transform="translate(-454.494 -204.6)"/><path class="q" d="M553.234,232.369l.026-4.457-1.236-.714.012-4.155-.383-.221-.383-.221-.012,4.155-1.24-.716-.026,4.457,1.24.716-.012,4.155.383.221.383.221.012-4.155Z" transform="translate(-451.022 -210.832)"/><path class="i" d="M555.593,240.274l1.236.714.026-9.058-1.236-.714.012-4.155-.766-.442-.012,4.155-1.236-.714-.026,9.058,1.236.714-.012,4.155.512.3.255.147Z" transform="translate(-447.548 -206.954)"/><path class="q" d="M559.189,244.829l1.24.716.026-1.8-1.24-.716.012-4.155-.766-.442-.012,4.155-1.236-.714-.026,1.8,1.236.714-.012,4.155.311.179.455.263Z" transform="translate(-444.075 -195.553)"/><path class="i" d="M564.025,252.909l.026-5.149-1.24-.716.012-4.155-.012-.007-.754-.435-.012,4.155-1.236-.714-.026,5.149,1.236.714-.012,4.155.753.435.013.007.012-4.155Z" transform="translate(-440.603 -191.673)"/><path class="q" d="M564.406,243.2l-.026,4.378,1.236.714-.012,4.155.766.442.012-4.155,1.24.716.026-4.378-1.24-.716.012-4.155-.766-.442-.012,4.155Z" transform="translate(-437.131 -194.265)"/><path class="i" d="M571.218,248.483l.026-5.87-1.236-.714.012-4.155-.1-.055-.67-.387-.012,4.155-1.24-.716-.026,5.87,1.24.716-.012,4.155.67.387.1.055.012-4.155Z" transform="translate(-433.659 -196.639)"/><path class="i" d="M573.579,245.388l1.236.714.026-5.659-1.236-.714.012-4.155-.751-.434-.014-.008-.012,4.155-1.24-.716-.026,5.659,1.24.716L572.8,249.1l.015.008.751.434Z" transform="translate(-430.186 -198.735)"/><path class="q" d="M578.412,242.44l.026-5.466-1.236-.714.012-4.155-.244-.141-.522-.3-.012,4.155-1.24-.716-.026,5.466,1.24.716-.012,4.155.522.3.244.141.012-4.155Z" transform="translate(-426.714 -202.084)"/><path class="q" d="M580.77,253.4l1.236.714.026-5.408-1.236-.714.012-4.155-.495-.286-.271-.157-.012,4.155-1.236-.714-.026,5.407,1.236.714-.012,4.155.271.157.495.286Z" transform="translate(-423.24 -190.761)"/><path class="i" d="M585.607,267.814l.026-17.87-1.24-.716.012-4.155-.766-.442-.012,4.155-1.236-.714-.026,17.87,1.236.714-.012,4.155.373.216.393.227.012-4.155Z" transform="translate(-419.768 -189.563)"/><path class="i" d="M585.987,256.607l-.026,13.759,1.236.714-.012,4.155.766.442.012-4.155,1.24.716.026-13.759-1.24-.716.012-4.155-.766-.442-.012,4.155Z" transform="translate(-416.296 -181.324)"/><path class="i" d="M592.8,263.744l.026-4.721-1.236-.714.012-4.155-.766-.442-.012,4.155-1.24-.716-.026,4.721,1.24.716-.012,4.155.279.161.487.281.012-4.155Z" transform="translate(-412.823 -180.797)"/><path class="q" d="M593.18,247.237l-.026,18.565,1.24.716-.012,4.155.766.442.012-4.155,1.236.714.026-18.564-1.236-.714.012-4.155-.766-.442-.012,4.155Z" transform="translate(-409.351 -190.368)"/><path class="i" d="M596.776,250.413l-.026,9.058,1.24.716-.012,4.155.766.442.012-4.155,1.236.714.026-9.058-1.236-.714.012-4.155-.766-.442-.012,4.155Z" transform="translate(-405.879 -187.301)"/><path class="q" d="M602.76,256.282l.013-4.529.013-4.529-1.24-.716.012-4.155-.766-.442-.012,4.155-1.236-.714-.026,9.058,1.236.714-.012,4.155.766.442.012-4.155Z" transform="translate(-403.208 -192.19)"/></g><g transform="translate(476.565 3029.721)"><path class="q" d="M519.939,214.648l-11-6.352-.014,5.025,11,6.352Z" transform="translate(-508.922 -208.296)"/><path class="q" d="M510.308,213.009l2.111,5.062,2.132-2.612-2.125-.135Z" transform="translate(-507.584 -203.745)"/></g><g transform="translate(532.205 3055.194)"><path class="q" d="M548.248,227.608l-11-6.353-.014,5.025,11,6.353Z" transform="translate(-537.231 -221.256)"/><path class="q" d="M538.617,225.969l2.11,5.062,2.132-2.613-2.124-.135Z" transform="translate(-535.893 -216.705)"/></g><g transform="translate(603.313 3061.053)"><path class="q" d="M584.428,230.589l-11-6.353-.014,5.025,11,6.353Z" transform="translate(-573.41 -224.237)"/><path class="q" d="M574.8,228.951l2.111,5.062,2.133-2.612-2.125-.135Z" transform="translate(-572.072 -219.686)"/></g><g transform="translate(650.751 3079.57)"><path class="q" d="M608.564,240.01l-11-6.352-.014,5.025,11,6.352Z" transform="translate(-597.546 -233.658)"/><path class="q" d="M598.932,238.372l2.111,5.062,2.132-2.613-2.124-.135Z" transform="translate(-596.208 -229.107)"/></g><g transform="translate(496.857 3061.053)"><path class="i" d="M530.263,230.589l-11-6.353-.014,5.025,11,6.353Z" transform="translate(-519.246 -224.237)"/><path class="i" d="M520.632,228.951l2.111,5.062,2.132-2.612-2.125-.135Z" transform="translate(-517.908 -219.686)"/></g><g transform="translate(574.621 3078.978)"><path class="i" d="M569.829,239.709l-11-6.352-.014,5.025,11,6.352Z" transform="translate(-558.812 -233.357)"/><path class="i" d="M560.2,238.071l2.111,5.062,2.132-2.612-2.125-.135Z" transform="translate(-557.474 -228.806)"/></g><g transform="translate(625.565 3101.368)"><path class="i" d="M595.749,251.1l-11-6.353-.014,5.025,11,6.352Z" transform="translate(-584.732 -244.749)"/><path class="i" d="M586.118,249.463l2.111,5.062,2.132-2.613-2.125-.135Z" transform="translate(-583.394 -240.198)"/></g><g transform="translate(617.053 3142.329)"><path class="q" d="M622.734,291.895l.006-1.864-42.334-24.441-.005,1.864Z" transform="translate(-580.401 -265.589)"/><path class="q" d="M591.509,274.034l0,1.864L612,287.734l0-.932,0-.932Z" transform="translate(-569.682 -257.437)"/><path class="q" d="M595.189,278.193l-.005,1.864,13.256,7.653.005-1.864Z" transform="translate(-566.129 -253.421)"/></g><g transform="translate(617.053 3165.631)"><path class="i" d="M622.734,303.75l.006-1.864-42.334-24.441-.005,1.864Z" transform="translate(-580.401 -277.445)"/><path class="i" d="M591.509,285.89l0,1.864L612,299.59l0-.932,0-.932Z" transform="translate(-569.682 -269.292)"/><path class="i" d="M595.189,290.049l-.005,1.864,13.256,7.653.005-1.864Z" transform="translate(-566.129 -265.277)"/></g><g transform="translate(376.857 3111.702)"><path class="r" d="M458.337,282.12l11.944,15,5.387-14.269s-4.3-6.824-5.387-6.824S458.337,282.12,458.337,282.12Z" transform="translate(-458.05 -224.886)"/><path class="s" d="M462.713,265.066s-4.737,21.677-4.515,26.311,7.942,7.062,9.267,1.765,2.956-12.538,2.956-12.538Z" transform="translate(-458.191 -235.468)"/><path class="t" d="M469.211,351.3s-1.814,9.723.721,11.062,7.351.863,12.1-2.18,7.366-5.676,7-7.258-2.9-3.772-7.154-2.433-5.4,2.557-6.152.712S470.064,349.6,469.211,351.3Z" transform="translate(-448.159 -153.547)"/><path class="t" d="M460.437,347.493s-1.814,9.721.719,11.06,7.353.863,12.1-2.178,7.366-5.678,7-7.26-2.893-3.772-7.152-2.433-5.4,2.557-6.154.711S461.288,345.789,460.437,347.493Z" transform="translate(-456.63 -157.227)"/><path class="r" d="M487.785,290.088s18.4-10.7,21.769-13.349,3.487-4.811,6.254-6.376,4.45,3.247,2.284,6.014-4.931,2.526-7.215,4.57-21.8,20.332-26.022,18.351l-1.16-5.721Z" transform="translate(-433.569 -230.649)"/><path class="u" d="M460.721,298.627s-1.989,93.862-.674,97.358,9.849,3.272,11.158,0,9.7-88.482,9.7-88.482Z" transform="translate(-456.834 -203.067)"/><path class="u" d="M492.6,301.659s-8.28,92.417-11.793,97.01-9.642,2.822-10.269,0-.151-32.96,0-43.236-4.593-53.774-4.593-53.774Z" transform="translate(-450.707 -200.14)"/><path class="v" d="M464.678,262.676c-3.438,2.539-4.7,5.289-3.247,16.72s.959,27.585-.248,37.562-2.327,19.774,0,22.477,22.276,17.665,40.358,4.572c0,0-3.74-12.5-4.572-20.606s1.46-21.873,2.494-30.287,0-17.042-6.859-20.991S469.486,259.127,464.678,262.676Z" transform="translate(-456.613 -238.556)"/><path class="s" d="M481.457,269.426c3.954,2.378,13.774,17.728,15.382,20.832s1.454,9.927-3.819,10.393-13.609-14.442-15.979-18.461C473.471,276.14,475.335,265.746,481.457,269.426Z" transform="translate(-441.734 -232.001)"/><g transform="translate(12.232)"><path class="r" d="M467.246,261.262s-.2,7.543,0,9.379,5.1,4.79,7.95,3.465,2.854-2.243,2.854-3.976v-9.786Z" transform="translate(-461.769 -240.027)"/><path class="r" d="M481.972,253.654a24.956,24.956,0,0,1,.816,8.257c-.307,4.689-.845,9.479-3.125,10.5s-5-.662-6.354-3.976-5.147-7.39-5.147-7.39l6.981-5.759Z" transform="translate(-460.798 -246.486)"/><path d="M487.092,251.263a5.477,5.477,0,0,1,.765,4.715c-.829,2.675-3.5,3.823-5.543,4.141s-2.231,4.076-3.314,4.906-1.211,3.377-1.211,3.377-.336-3.642-1.663-2.866c-2.252,1.319.008,5.248,1.409,4.788a16.26,16.26,0,0,1-.085,2.724c-.171.9-5.236,2.616-7.958.1a17.6,17.6,0,0,1-5.043-10.928c-.484-4.395,3.976-9.81,8.88-11.529s10.321.446,11.915-.383A1.916,1.916,0,0,1,487.092,251.263Z" transform="translate(-464.415 -250.007)"/></g></g><g transform="translate(1501.499 182)"><g class="w" transform="translate(-1017.066 3157.126) rotate(3)"><path class="x" d="M236.726,193.319,217.692,182.33v21.978L236.726,215.3l19.034-10.989V182.33Z" transform="translate(-217.692 -171.341)"/><path class="y" d="M236.726,215.3l-19.034-10.989V182.33l19.034,10.989Z" transform="translate(-217.692 -171.341)"/><path class="z" d="M247.869,204.308,228.835,215.3V193.319l19.034-10.989Z" transform="translate(-209.801 -171.341)"/><path class="y" d="M236.726,197.875l-19.034-10.989L236.726,175.9l19.034,10.989Z" transform="translate(-217.692 -175.897)"/><path class="i" d="M236.726,193.319,217.692,182.33v.953l19.034,10.989,19.034-10.989v-.954Z" transform="translate(-217.692 -171.341)"/></g><path class="aa" d="M236.726,190.076l-19.034-10.989L236.726,168.1l19.034,10.989Z" transform="translate(-1224.965 2964.562) rotate(3)"/><path class="x" d="M236.726,162.908l-19.034-10.989V173.9l19.034,10.989L255.76,173.9V151.919Z" transform="translate(-1224.366 2953.12) rotate(3)"/><path class="y" d="M236.726,184.886,217.692,173.9V151.919l19.034,10.989Z" transform="translate(-1224.366 2953.12) rotate(3)"/><path class="z" d="M247.869,173.9l-19.034,10.989V162.908l19.034-10.989Z" transform="translate(-1216.486 2953.533) rotate(3)"/><path class="y" d="M236.726,167.464l-19.034-10.989,19.034-10.989,19.034,10.989Z" transform="translate(-1224.127 2948.571) rotate(3)"/><path class="i" d="M236.726,162.908l-19.034-10.989v.953l19.034,10.99,19.034-10.989v-.954Z" transform="translate(-1224.366 2953.12) rotate(3)"/></g><g transform="translate(-1259.536 2674.68)"><path class="ab" d="M52.618,60.889c-13.46,0-26.92-2.958-37.167-8.874C5.486,46.263,0,38.6,0,30.445S5.487,14.627,15.452,8.874c20.5-11.832,53.841-11.833,74.335,0,9.964,5.752,15.452,13.412,15.452,21.568S99.75,46.262,89.785,52.015C79.539,57.931,66.078,60.889,52.618,60.889Zm0-60.507C39.228.382,25.841,3.323,15.646,9.21,5.805,14.891.387,22.433.387,30.445S5.805,46,15.645,51.679c20.387,11.773,53.56,11.774,73.946,0,9.841-5.682,15.26-13.222,15.26-21.236S99.433,14.89,89.592,9.21C79.4,3.324,66.009.382,52.62.382Z" transform="translate(1472.478 495.572) rotate(3)"/><path class="ac" d="M66.757,77.207c-17.082,0-34.161-3.755-47.165-11.261C6.959,58.652,0,48.941,0,38.6S6.959,18.556,19.593,11.261c26.009-15.015,68.324-15.013,94.331,0,12.633,7.294,19.592,17,19.592,27.342s-6.959,20.049-19.595,27.344C100.919,73.452,83.837,77.207,66.757,77.207Zm0-76.826C49.747.381,32.739,4.119,19.788,11.6,7.277,18.819.387,28.411.387,38.6s6.889,19.783,19.4,27.006c25.9,14.954,68.042,14.954,93.942,0,12.511-7.221,19.4-16.814,19.4-27.008s-6.889-19.783-19.4-27.006C100.783,4.12,83.77.381,66.761.381Z" transform="translate(1458.784 486.685) rotate(3)"/><path class="ad" d="M41.48,48.031c-10.608,0-21.216-2.33-29.291-6.993C4.329,36.5,0,30.454,0,24.016S4.329,11.531,12.19,6.992c16.15-9.323,42.431-9.323,58.582,0C78.631,11.531,82.96,17.575,82.96,24.015S78.631,36.5,70.771,41.038C62.694,45.7,52.086,48.031,41.48,48.031Zm0-47.651C30.942.38,20.406,2.7,12.383,7.328c-7.736,4.467-12,10.393-12,16.688s4.261,12.221,12,16.687c16.043,9.265,42.149,9.265,58.195,0,7.736-4.467,12-10.393,12-16.688s-4.261-12.221-12-16.687C62.555,2.7,52.019.38,41.481.38Z" transform="translate(1483.265 502.576) rotate(3)"/><g transform="translate(1493.234 415.673) rotate(3)"><path class="ae" d="M0,9.467H13.552L28.637.757c1.943-1.122,5.336-.981,7.58.314l14.541,8.4H64.3V48.679h0A2.2,2.2,0,0,1,63,50.709L35.672,66.486c-1.943,1.121-5.337.98-7.58-.315L1.856,51.024A3.216,3.216,0,0,1,.01,48.679H0Z" transform="translate(0 64.473)"/><path class="af" d="M1.856,2.346,28.092,17.493c2.243,1.3,5.638,1.436,7.58.315L63,2.031A2.2,2.2,0,0,0,64.3,0h0V.627h0A2.2,2.2,0,0,1,63,2.658L35.672,18.435c-1.943,1.121-5.337.98-7.58-.315L1.856,2.973A3.216,3.216,0,0,1,.01.627H0V0H.01A3.216,3.216,0,0,0,1.856,2.346Z" transform="translate(0 112.524)"/><path class="af" d="M63.445,49.306h0V10.094H49.9L35.362,1.7C33.119.4,29.725.263,27.782,1.385L12.7,10.094H0V9.467H13.552L28.637.757c1.943-1.122,5.336-.981,7.58.314l14.541,8.4H64.3V48.679h0A2.2,2.2,0,0,1,63,50.709l-.154.089A1.907,1.907,0,0,0,63.445,49.306Z" transform="translate(0 64.473)"/><path class="af" d="M.77.637V39.8H.78a2.4,2.4,0,0,0,.646,1.387A2.933,2.933,0,0,1,.01,39.119H0V0A4.056,4.056,0,0,1,.77.637Z" transform="translate(0 74.032)"/><path class="ag" d="M35.672,36.372,63,20.6c1.943-1.121,1.7-3.081-.544-4.376L36.218,1.071c-2.244-1.3-5.638-1.436-7.58-.314L1.311,16.533c-1.943,1.122-1.7,3.081.544,4.376L28.092,36.058C30.335,37.353,33.73,37.494,35.672,36.372Z" transform="translate(0 55.375)"/><path class="af" d="M1.311,16.531,28.637.755a7.054,7.054,0,0,1,3.825-.74,6.352,6.352,0,0,0-2.756.74L2.381,16.531c-1.943,1.122-1.7,3.081.544,4.376L29.161,36.056a8.657,8.657,0,0,0,3.755,1.053,8.926,8.926,0,0,1-4.824-1.053L1.856,20.908C-.387,19.612-.631,17.653,1.311,16.531Z" transform="translate(0 55.377)"/><path class="ah" d="M26.557,27.079,46.9,15.333c1.446-.835,1.265-2.294-.405-3.258L26.964.8A6.272,6.272,0,0,0,21.32.564L.977,12.309c-1.446.835-1.265,2.294.405,3.259L20.915,26.845A6.273,6.273,0,0,0,26.557,27.079Z" transform="translate(8.216 60.118)"/><path class="ai" d="M19.241,19.619l14.739-8.51c1.048-.6.916-1.662-.294-2.36L19.536.578A4.542,4.542,0,0,0,15.447.409L.707,8.919c-1.048.6-.916,1.661.294,2.36l14.151,8.17A4.545,4.545,0,0,0,19.241,19.619Z" transform="translate(14.811 63.926)"/><path class="af" d="M3.149,36.372,30.475,20.6c1.943-1.121,1.7-3.081-.544-4.376L3.695,1.072A8.627,8.627,0,0,0,0,.022a8.943,8.943,0,0,1,4.921,1.05L31.157,16.219c2.243,1.3,2.487,3.255.544,4.376L4.376,36.372a7.092,7.092,0,0,1-3.886.735A6.262,6.262,0,0,0,3.149,36.372Z" transform="translate(31.297 55.375)"/><g transform="translate(14.811 63.926)"><g class="aj" transform="translate(0 0)"><path class="ak" d="M33.69,9.9,19.533,1.73a4.546,4.546,0,0,0-4.091-.17L.7,10.073a1.548,1.548,0,0,0-.515.463A1.093,1.093,0,0,1,.7,8.921L15.443.408a4.548,4.548,0,0,1,4.091.17L33.69,8.752c.942.544,1.221,1.3.809,1.9A2.222,2.222,0,0,0,33.69,9.9Z" transform="translate(0.003 -0.004)"/><path class="al" d="M33.7,10.14,19.539,1.967a4.548,4.548,0,0,0-4.091-.17L.7,10.31a1.649,1.649,0,0,0-.432.361A1.1,1.1,0,0,1,.7,8.922L15.449.409a4.546,4.546,0,0,1,4.091.17L33.7,8.752c1,.576,1.249,1.392.725,2A2.43,2.43,0,0,0,33.7,10.14Z" transform="translate(-0.003 1.148)"/><path class="am" d="M34.274,10.9a2.568,2.568,0,0,0-.582-.456L19.536,2.273a4.548,4.548,0,0,0-4.091-.17L.7,10.616a1.838,1.838,0,0,0-.288.211A1.118,1.118,0,0,1,.7,8.921L15.445.408a4.548,4.548,0,0,1,4.091.17L33.692,8.752C34.773,9.376,34.986,10.284,34.274,10.9Z" transform="translate(0.001 2.537)"/></g></g><path class="an" d="M.706,23.13,2.22,24c.391.225.707-.014.707-.533V2.308A1.69,1.69,0,0,0,2.22.959L.706.085C.316-.14,0,.1,0,.619V21.78A1.691,1.691,0,0,0,.706,23.13Z" transform="translate(22.027 97.506)"/><path class="ah" d="M.706.085l.363.21V21.073a1.692,1.692,0,0,0,.706,1.35l1.152.665v.382c0,.52-.316.759-.706.533L.706,23.13A1.691,1.691,0,0,1,0,21.78V.619C0,.1.316-.14.706.085Z" transform="translate(22.027 97.506)"/><path class="an" d="M.707,23.13,2.221,24c.39.224.707-.015.707-.534V2.308A1.692,1.692,0,0,0,2.221.959L.707.085C.316-.14,0,.1,0,.619V21.78A1.69,1.69,0,0,0,.707,23.13Z" transform="translate(16.443 94.283)"/><path class="an" d="M.706,23.13,2.221,24c.39.224.707-.014.707-.534V2.308A1.692,1.692,0,0,0,2.221.959L.706.085C.317-.14,0,.1,0,.619V21.78A1.692,1.692,0,0,0,.706,23.13Z" transform="translate(10.86 91.059)"/><path class="an" d="M.706,23.13,2.221,24c.39.224.706-.014.706-.534V2.309A1.691,1.691,0,0,0,2.221.959L.706.085C.316-.14,0,.1,0,.619V21.78A1.691,1.691,0,0,0,.706,23.13Z" transform="translate(5.276 87.835)"/><path class="ah" d="M.707.085l.363.21v20.78a1.692,1.692,0,0,0,.706,1.349l1.151.665v.382c0,.52-.316.759-.706.534L.707,23.13A1.69,1.69,0,0,1,0,21.78V.619C0,.1.316-.14.707.085Z" transform="translate(16.443 94.283)"/><path class="ah" d="M.706.085l.363.21v20.78a1.692,1.692,0,0,0,.706,1.349l1.152.665v.382c0,.52-.317.759-.707.534L.706,23.13A1.692,1.692,0,0,1,0,21.78V.619C0,.1.317-.14.706.085Z" transform="translate(10.86 91.059)"/><path class="ah" d="M.706.085l.363.21v20.78a1.69,1.69,0,0,0,.707,1.349l1.151.665v.382c0,.52-.316.759-.706.534L.706,23.13A1.691,1.691,0,0,1,0,21.78V.619C0,.1.316-.14.706.085Z" transform="translate(5.276 87.835)"/><path class="i" d="M.9,37.462a.791.791,0,0,1-.4-.106A1.2,1.2,0,0,1,0,36.262V13.87a2.861,2.861,0,0,1,1.221-2.311L20.956.164A.927.927,0,0,1,21.91.106a1.2,1.2,0,0,1,.5,1.094V23.593a2.861,2.861,0,0,1-1.22,2.312L1.452,37.3A1.116,1.116,0,0,1,.9,37.462Zm20.611-37a.675.675,0,0,0-.322.1L1.452,11.959a2.434,2.434,0,0,0-.989,1.91V36.262a.784.784,0,0,0,.266.692.506.506,0,0,0,.491-.058L20.956,25.5a2.432,2.432,0,0,0,.988-1.91V1.2a.787.787,0,0,0-.266-.693A.336.336,0,0,0,21.509.465Z" transform="translate(37.029 85.771)"/><g transform="translate(55.179 89.236)"><ellipse class="i" cx="1.358" cy="0.784" rx="1.358" ry="0.784" transform="matrix(0.5, -0.866, 0.866, 0.5, 0, 2.353)"/><path class="i" d="M0,1.8c0,.613.43.861.961.555A2.124,2.124,0,0,0,1.921.686c0-.613-.43-.861-.96-.555A2.123,2.123,0,0,0,0,1.8Z" transform="translate(0.398 3.444)"/><path class="i" d="M0,1.8c0,.613.43.861.961.555A2.124,2.124,0,0,0,1.921.686c0-.613-.43-.861-.96-.555A2.123,2.123,0,0,0,0,1.8Z" transform="translate(0.398 6.56)"/><path class="af" d="M.432,1.965A2.123,2.123,0,0,0,1.393.3.973.973,0,0,0,1.345,0c.312,0,.528.248.528.681a2.124,2.124,0,0,1-.96,1.664C.482,2.593.121,2.472,0,2.09A.857.857,0,0,0,.432,1.965Z" transform="translate(0.446 6.565)"/><path class="af" d="M.432,1.964A2.123,2.123,0,0,0,1.393.3.969.969,0,0,0,1.345,0c.312,0,.528.248.528.681a2.124,2.124,0,0,1-.96,1.664C.482,2.593.121,2.471,0,2.09A.85.85,0,0,0,.432,1.964Z" transform="translate(0.446 3.447)"/><path class="af" d="M.432,1.964A2.123,2.123,0,0,0,1.393.3.967.967,0,0,0,1.345,0c.312,0,.528.248.528.68a2.124,2.124,0,0,1-.96,1.664C.482,2.593.121,2.471,0,2.09A.85.85,0,0,0,.432,1.964Z" transform="translate(0.446 0.33)"/></g><path class="i" d="M.358,4.419l.636-.368a.854.854,0,0,0,.358-.683V.314c0-.264-.16-.385-.358-.27L.358.41A.855.855,0,0,0,0,1.093V4.148C0,4.411.16,4.532.358,4.419Z" transform="translate(39.347 107.636)"/><path class="ao" d="M0,13.325,34.66,0l.555,73.892,0,0a1.215,1.215,0,0,1-.7,1.024L19.853,83.531a4.541,4.541,0,0,1-4.086-.138l-14.2-8.058a1.733,1.733,0,0,1-1-1.254l-.006,0Z" transform="translate(14.283 0)"/></g></g><g transform="translate(763.201 3129.167)"><path class="ae" d="M750.358,332.723,775.2,345.152a3.842,3.842,0,0,0,3.438,0l25.222-12.615a1.26,1.26,0,0,0,.7-1.127V261.439l-25.671-9.321a4.513,4.513,0,0,0-3.185-.031l-26.038,9.537V331.6A1.259,1.259,0,0,0,750.358,332.723Z" transform="translate(-749.662 -247.873)"/><path class="ap" d="M804.284,259.891l-25.335-12.674a3.811,3.811,0,0,0-3.41,0l-25.6,12.806a.494.494,0,0,0,0,.884l25.329,12.672a3.826,3.826,0,0,0,3.422,0l25.6-12.8A.5.5,0,0,0,804.284,259.891Z" transform="translate(-749.662 -246.459)"/><path class="ag" d="M804.284,259.4l-25.335-12.674a3.811,3.811,0,0,0-3.41,0l-25.6,12.806a.5.5,0,0,0,0,.885l25.329,12.671a3.822,3.822,0,0,0,3.422,0l25.6-12.8A.5.5,0,0,0,804.284,259.4Z" transform="translate(-749.662 -246.318)"/><path class="i" d="M799.7,261.346l-18.224-9.117a2.741,2.741,0,0,0-2.453,0L760.6,261.44a.356.356,0,0,0,0,.636l18.22,9.115a2.75,2.75,0,0,0,2.462,0l18.413-9.209A.356.356,0,0,0,799.7,261.346Z" transform="translate(-752.704 -247.909)"/><path class="aq" d="M760.6,262.076l3.593,1.8,14.824-7.414a2.741,2.741,0,0,1,2.453,0l14.631,7.319,3.593-1.8a.356.356,0,0,0,0-.637l-18.224-9.117a2.741,2.741,0,0,0-2.453,0L760.6,261.44A.356.356,0,0,0,760.6,262.076Z" transform="translate(-752.704 -247.909)"/><g transform="translate(18.479 27.316)"><path class="i" d="M783.644,288.837a.943.943,0,0,0-.5-.754c-.277-.139-.5-.027-.5.251a.947.947,0,0,0,.5.754C783.42,289.227,783.644,289.114,783.644,288.837Z" transform="translate(-777.477 -285.441)"/><path class="i" d="M782.672,293.721a.911.911,0,0,0,.5.706c.265.119.468,0,.455-.275a.909.909,0,0,0-.5-.706C782.862,293.327,782.659,293.45,782.672,293.721Z" transform="translate(-777.486 -286.963)"/><path class="i" d="M782.7,299.108a.873.873,0,0,0,.5.659c.251.1.434-.035.407-.3a.872.872,0,0,0-.5-.658C782.86,298.71,782.678,298.844,782.7,299.108Z" transform="translate(-777.494 -288.485)"/><path class="i" d="M782.737,304.495a.835.835,0,0,0,.5.611c.238.079.4-.065.359-.323a.831.831,0,0,0-.5-.611C782.858,304.093,782.7,304.237,782.737,304.495Z" transform="translate(-777.502 -290.006)"/><path class="i" d="M782.769,309.881a.788.788,0,0,0,.5.563c.224.059.364-.1.311-.348a.79.79,0,0,0-.5-.562C782.854,309.474,782.715,309.629,782.769,309.881Z" transform="translate(-777.51 -291.526)"/><path class="i" d="M782.8,315.265a.741.741,0,0,0,.5.515c.211.04.33-.126.264-.371a.745.745,0,0,0-.5-.515C782.85,314.855,782.733,315.021,782.8,315.265Z" transform="translate(-777.517 -293.046)"/><path class="i" d="M776.443,285.235a.947.947,0,0,0-.5-.754c-.277-.139-.5-.026-.5.252a.947.947,0,0,0,.5.754C776.218,285.625,776.443,285.513,776.443,285.235Z" transform="translate(-775.438 -284.421)"/><path class="i" d="M775.471,290.119a.915.915,0,0,0,.5.707c.265.119.468,0,.455-.275a.914.914,0,0,0-.5-.707C775.661,289.725,775.458,289.848,775.471,290.119Z" transform="translate(-775.447 -285.943)"/><path class="i" d="M775.5,295.507a.869.869,0,0,0,.5.658c.251.1.433-.034.407-.3a.871.871,0,0,0-.5-.658C775.66,295.108,775.478,295.242,775.5,295.507Z" transform="translate(-775.456 -287.465)"/><path class="i" d="M775.536,300.894a.831.831,0,0,0,.5.61c.238.08.4-.065.359-.323a.832.832,0,0,0-.5-.61C775.657,300.491,775.5,300.636,775.536,300.894Z" transform="translate(-775.464 -288.986)"/><path class="i" d="M775.567,306.279a.789.789,0,0,0,.5.563c.224.059.363-.1.311-.347a.79.79,0,0,0-.5-.563C775.653,305.872,775.514,306.028,775.567,306.279Z" transform="translate(-775.471 -290.507)"/><path class="i" d="M775.6,311.664a.742.742,0,0,0,.5.515c.211.039.33-.126.263-.371a.744.744,0,0,0-.5-.515C775.649,311.253,775.532,311.42,775.6,311.664Z" transform="translate(-775.478 -292.026)"/><path class="i" d="M775.627,317.048a.7.7,0,0,0,.5.467c.2.019.295-.157.216-.4a.694.694,0,0,0-.5-.467C775.644,316.633,775.547,316.81,775.627,317.048Z" transform="translate(-775.484 -293.545)"/><path class="i" d="M775.655,322.431a.645.645,0,0,0,.5.419c.185,0,.26-.188.168-.419a.644.644,0,0,0-.5-.419C775.638,322.012,775.563,322.2,775.655,322.431Z" transform="translate(-775.488 -295.062)"/><path class="i" d="M775.684,327.812a.591.591,0,0,0,.5.371c.172-.02.226-.219.12-.443a.588.588,0,0,0-.5-.371C775.631,327.389,775.577,327.587,775.684,327.812Z" transform="translate(-775.492 -296.579)"/><path class="i" d="M775.71,333.192c.119.219.344.363.5.323s.191-.249.072-.467-.344-.363-.5-.323S775.591,332.974,775.71,333.192Z" transform="translate(-775.495 -298.093)"/><path class="i" d="M775.735,338.571c.132.211.357.335.5.275s.156-.279.024-.49-.357-.335-.5-.276S775.6,338.36,775.735,338.571Z" transform="translate(-775.496 -299.607)"/><path class="i" d="M775.759,343.949c.146.205.371.307.5.227s.122-.31-.024-.515-.371-.307-.5-.227S775.614,343.744,775.759,343.949Z" transform="translate(-775.496 -301.119)"/><path class="i" d="M775.781,349.325c.159.2.384.279.5.18s.087-.341-.072-.538-.383-.279-.5-.18S775.623,349.127,775.781,349.325Z" transform="translate(-775.495 -302.63)"/><path class="i" d="M775.8,354.7c.172.191.4.251.5.132s.052-.371-.12-.563-.4-.251-.5-.132S775.631,354.508,775.8,354.7Z" transform="translate(-775.492 -304.139)"/><path class="i" d="M775.823,360.073c.186.185.41.222.5.084a.528.528,0,0,0-.168-.587c-.185-.185-.41-.222-.5-.083S775.638,359.888,775.823,360.073Z" transform="translate(-775.488 -305.647)"/><path class="i" d="M775.843,365.445c.2.179.423.2.5.036a.588.588,0,0,0-.216-.61c-.2-.179-.423-.195-.5-.036A.587.587,0,0,0,775.843,365.445Z" transform="translate(-775.484 -307.154)"/><path class="i" d="M775.861,370.816c.212.172.437.166.5-.012a.649.649,0,0,0-.263-.634c-.212-.172-.437-.166-.5.012A.65.65,0,0,0,775.861,370.816Z" transform="translate(-775.478 -308.66)"/></g><g transform="translate(8.153 22.153)"><path class="i" d="M762.041,278.032a.946.946,0,0,0-.5-.754c-.277-.138-.5-.026-.5.252a.947.947,0,0,0,.5.754C761.816,278.423,762.041,278.31,762.041,278.032Z" transform="translate(-761.035 -277.219)"/><path class="i" d="M761.068,282.917a.911.911,0,0,0,.5.706c.264.119.468,0,.454-.275a.909.909,0,0,0-.5-.706C761.258,282.523,761.055,282.646,761.068,282.917Z" transform="translate(-761.044 -278.741)"/><path class="i" d="M761.1,288.3a.874.874,0,0,0,.5.659c.252.1.434-.035.407-.3a.872.872,0,0,0-.5-.658C761.257,287.905,761.074,288.039,761.1,288.3Z" transform="translate(-761.053 -280.263)"/><path class="i" d="M761.133,293.691a.835.835,0,0,0,.5.611c.238.079.4-.066.359-.323a.832.832,0,0,0-.5-.611C761.254,293.288,761.093,293.433,761.133,293.691Z" transform="translate(-761.061 -281.784)"/><path class="i" d="M761.164,299.076a.786.786,0,0,0,.5.563c.224.06.364-.1.311-.347a.79.79,0,0,0-.5-.563C761.25,298.669,761.111,298.825,761.164,299.076Z" transform="translate(-761.068 -283.304)"/><path class="i" d="M761.281,320.609a.591.591,0,0,0,.5.371c.171-.02.225-.219.12-.443a.591.591,0,0,0-.5-.371C761.229,320.186,761.175,320.385,761.281,320.609Z" transform="translate(-761.089 -289.376)"/><path class="i" d="M761.308,325.99c.119.218.344.363.5.323s.191-.249.072-.467-.344-.363-.5-.323S761.189,325.771,761.308,325.99Z" transform="translate(-761.092 -290.891)"/><path class="i" d="M761.333,331.368c.132.211.357.335.5.275s.156-.279.024-.49-.358-.335-.5-.275S761.2,331.157,761.333,331.368Z" transform="translate(-761.093 -292.405)"/><path class="i" d="M761.356,336.746c.146.205.371.307.5.227s.121-.31-.024-.515-.371-.307-.5-.227S761.211,336.541,761.356,336.746Z" transform="translate(-761.093 -293.916)"/><path class="i" d="M761.379,342.122c.159.2.384.278.5.179s.087-.341-.072-.538-.384-.279-.5-.18S761.221,341.924,761.379,342.122Z" transform="translate(-761.092 -295.427)"/><path class="i" d="M761.4,347.5c.172.192.4.251.5.132s.052-.371-.12-.563-.4-.251-.5-.132S761.229,347.305,761.4,347.5Z" transform="translate(-761.089 -296.936)"/><path class="i" d="M761.421,352.87c.185.185.41.222.5.084a.528.528,0,0,0-.168-.587c-.185-.185-.41-.222-.5-.083A.527.527,0,0,0,761.421,352.87Z" transform="translate(-761.086 -298.445)"/><path class="i" d="M761.44,358.242c.2.178.424.2.5.037a.588.588,0,0,0-.215-.611c-.2-.178-.424-.194-.5-.036A.586.586,0,0,0,761.44,358.242Z" transform="translate(-761.081 -299.951)"/><path class="i" d="M761.458,363.613c.211.172.437.166.5-.012a.651.651,0,0,0-.264-.634c-.211-.171-.437-.166-.5.012A.65.65,0,0,0,761.458,363.613Z" transform="translate(-761.075 -301.457)"/></g><g transform="translate(2.991 19.571)"><path class="i" d="M754.839,274.431a.947.947,0,0,0-.5-.754c-.277-.139-.5-.026-.5.252a.945.945,0,0,0,.5.754C754.614,274.821,754.839,274.708,754.839,274.431Z" transform="translate(-753.834 -273.617)"/><path class="i" d="M753.867,279.315a.912.912,0,0,0,.5.706c.265.119.468,0,.455-.275a.909.909,0,0,0-.5-.706C754.057,278.921,753.854,279.044,753.867,279.315Z" transform="translate(-753.843 -275.139)"/><path class="i" d="M753.9,284.7a.871.871,0,0,0,.5.658c.251.1.434-.034.407-.3a.874.874,0,0,0-.5-.659C754.056,284.3,753.874,284.438,753.9,284.7Z" transform="translate(-753.852 -276.661)"/><path class="i" d="M753.963,295.475a.79.79,0,0,0,.5.563c.224.06.364-.1.311-.347a.789.789,0,0,0-.5-.563C754.049,295.068,753.91,295.224,753.963,295.475Z" transform="translate(-753.867 -279.703)"/><path class="i" d="M753.994,300.86a.744.744,0,0,0,.5.515c.211.039.33-.127.263-.371a.744.744,0,0,0-.5-.515C754.045,300.449,753.928,300.615,753.994,300.86Z" transform="translate(-753.874 -281.222)"/><path class="i" d="M754.023,306.243a.694.694,0,0,0,.5.467c.2.02.3-.156.216-.394a.7.7,0,0,0-.5-.467C754.04,305.829,753.944,306.005,754.023,306.243Z" transform="translate(-753.88 -282.741)"/><path class="i" d="M754.052,311.627a.642.642,0,0,0,.5.419c.185,0,.26-.187.168-.419a.642.642,0,0,0-.5-.419C754.034,311.208,753.959,311.4,754.052,311.627Z" transform="translate(-753.884 -284.258)"/><path class="i" d="M754.08,317.008a.59.59,0,0,0,.5.371c.172-.019.226-.218.12-.443a.589.589,0,0,0-.5-.371C754.027,316.585,753.973,316.783,754.08,317.008Z" transform="translate(-753.888 -285.774)"/><path class="i" d="M754.106,322.388c.119.218.344.363.5.323s.191-.249.072-.467-.344-.363-.5-.323S753.987,322.17,754.106,322.388Z" transform="translate(-753.891 -287.289)"/></g><g transform="translate(3.092 24.735)"><path class="i" d="M769.242,281.634a.946.946,0,0,0-.5-.754c-.278-.139-.5-.027-.5.251a.944.944,0,0,0,.5.754C769.017,282.024,769.242,281.911,769.242,281.634Z" transform="translate(-758.012 -280.82)"/><path class="i" d="M768.27,286.518a.909.909,0,0,0,.5.706c.265.119.468,0,.455-.275a.912.912,0,0,0-.5-.706C768.46,286.124,768.256,286.247,768.27,286.518Z" transform="translate(-758.022 -282.342)"/><path class="i" d="M768.3,291.906a.872.872,0,0,0,.5.658c.251.1.433-.035.406-.3a.875.875,0,0,0-.5-.659C768.458,291.507,768.275,291.641,768.3,291.906Z" transform="translate(-758.03 -283.864)"/><path class="i" d="M768.335,297.292a.832.832,0,0,0,.5.611c.238.08.4-.065.359-.323a.831.831,0,0,0-.5-.61C768.456,296.89,768.294,297.035,768.335,297.292Z" transform="translate(-758.039 -285.385)"/><path class="i" d="M768.366,302.678a.791.791,0,0,0,.5.563c.225.059.364-.1.311-.347a.786.786,0,0,0-.5-.563C768.452,302.271,768.313,302.426,768.366,302.678Z" transform="translate(-758.046 -286.906)"/><path class="i" d="M768.4,308.063a.746.746,0,0,0,.5.515c.212.039.329-.127.263-.371a.742.742,0,0,0-.5-.515C768.448,307.652,768.33,307.818,768.4,308.063Z" transform="translate(-758.052 -288.425)"/><path class="i" d="M768.426,313.446a.693.693,0,0,0,.5.467c.2.02.295-.157.216-.4a.7.7,0,0,0-.5-.467C768.443,313.032,768.346,313.208,768.426,313.446Z" transform="translate(-758.058 -289.944)"/><path class="i" d="M768.454,318.829a.643.643,0,0,0,.5.419c.186,0,.26-.187.168-.419a.644.644,0,0,0-.5-.419C768.437,318.41,768.362,318.6,768.454,318.829Z" transform="translate(-758.063 -291.461)"/><path class="i" d="M768.483,324.211a.588.588,0,0,0,.5.371c.172-.02.225-.218.12-.443a.591.591,0,0,0-.5-.371C768.43,323.788,768.376,323.986,768.483,324.211Z" transform="translate(-758.067 -292.977)"/><path class="i" d="M768.509,329.591c.119.218.344.363.5.323s.191-.249.072-.467-.343-.363-.5-.323S768.39,329.373,768.509,329.591Z" transform="translate(-758.069 -294.492)"/><path class="i" d="M768.534,334.97c.133.211.358.335.5.275s.156-.28.024-.491-.357-.335-.5-.275S768.4,334.759,768.534,334.97Z" transform="translate(-758.071 -296.006)"/><path class="i" d="M768.558,340.347c.146.205.371.307.5.228s.122-.31-.024-.515-.371-.307-.5-.228S768.412,340.142,768.558,340.347Z" transform="translate(-758.071 -297.518)"/><path class="i" d="M768.58,345.723c.159.2.384.279.5.179s.087-.34-.072-.538-.383-.279-.5-.18S768.422,345.525,768.58,345.723Z" transform="translate(-758.069 -299.028)"/><path class="i" d="M768.6,351.1c.172.191.4.25.5.131s.052-.371-.12-.563-.4-.25-.5-.131S768.43,350.906,768.6,351.1Z" transform="translate(-758.067 -300.538)"/><path class="i" d="M768.622,356.471c.185.185.41.223.5.084a.526.526,0,0,0-.168-.586c-.185-.185-.41-.222-.5-.084A.527.527,0,0,0,768.622,356.471Z" transform="translate(-758.063 -302.046)"/><path class="i" d="M768.641,361.844c.2.179.424.194.5.036a.589.589,0,0,0-.216-.611c-.2-.179-.423-.194-.5-.036A.588.588,0,0,0,768.641,361.844Z" transform="translate(-758.058 -303.553)"/><path class="i" d="M768.66,367.214c.211.172.437.167.5-.011a.65.65,0,0,0-.263-.634c-.211-.172-.437-.166-.5.012A.65.65,0,0,0,768.66,367.214Z" transform="translate(-758.052 -305.058)"/><path class="i" d="M754.239,354.641c.2.179.423.2.5.036a.586.586,0,0,0-.216-.61c-.2-.179-.423-.2-.5-.037A.589.589,0,0,0,754.239,354.641Z" transform="translate(-753.981 -301.514)"/><path class="i" d="M754.257,360.012c.211.171.437.166.5-.012a.648.648,0,0,0-.263-.635c-.211-.172-.437-.166-.5.012A.65.65,0,0,0,754.257,360.012Z" transform="translate(-753.975 -303.019)"/></g><path class="aq" d="M819.455,278.985a2.1,2.1,0,0,0-1.117,1.675v25.021c0,.617.5.867,1.117.559a2.1,2.1,0,0,0,1.116-1.675V279.543C820.571,278.926,820.072,278.677,819.455,278.985Z" transform="translate(-769.103 -255.528)"/><path class="i" d="M819.757,278.882c0,.008,0,.014,0,.021v25.021a2.1,2.1,0,0,1-1.117,1.675,1.278,1.278,0,0,1-.3.1c.012.6.505.842,1.115.538a2.1,2.1,0,0,0,1.116-1.675V279.545A.621.621,0,0,0,819.757,278.882Z" transform="translate(-769.104 -255.53)"/><path class="aq" d="M808.358,284.495a2.1,2.1,0,0,0-1.117,1.675v25.021c0,.617.5.867,1.117.558a2.1,2.1,0,0,0,1.116-1.675V285.053C809.474,284.436,808.974,284.187,808.358,284.495Z" transform="translate(-765.962 -257.088)"/><path class="i" d="M808.66,284.392c0,.007,0,.013,0,.02v25.022a2.1,2.1,0,0,1-1.117,1.675,1.245,1.245,0,0,1-.3.1c.011.6.505.843,1.115.538a2.1,2.1,0,0,0,1.116-1.675V285.055A.621.621,0,0,0,808.66,284.392Z" transform="translate(-765.963 -257.09)"/><path class="aq" d="M797.261,290a2.1,2.1,0,0,0-1.117,1.675V316.7c0,.617.5.866,1.117.558a2.1,2.1,0,0,0,1.116-1.675V290.562C798.377,289.946,797.878,289.7,797.261,290Z" transform="translate(-762.82 -258.648)"/><path class="i" d="M797.563,289.9c0,.007,0,.013,0,.02v25.021a2.1,2.1,0,0,1-1.117,1.675,1.243,1.243,0,0,1-.3.1c.011.6.505.842,1.115.538a2.1,2.1,0,0,0,1.116-1.675V290.565A.621.621,0,0,0,797.563,289.9Z" transform="translate(-762.821 -258.65)"/><path class="aq" d="M802.645,336.966a1.544,1.544,0,0,0-.819,1.23v18.373c0,.453.367.636.819.41a1.543,1.543,0,0,0,.82-1.23V337.376C803.466,336.924,803.1,336.74,802.645,336.966Z" transform="translate(-764.429 -271.952)"/><path class="i" d="M802.868,336.891v18.387a1.543,1.543,0,0,1-.82,1.23.921.921,0,0,1-.221.077c.009.441.371.619.818.4a1.543,1.543,0,0,0,.82-1.23V337.377A.456.456,0,0,0,802.868,336.891Z" transform="translate(-764.429 -271.953)"/><path class="aq" d="M814.306,331.068a1.542,1.542,0,0,0-.819,1.23V350.67c0,.453.367.637.819.41a1.543,1.543,0,0,0,.82-1.23V331.477C815.127,331.025,814.76,330.841,814.306,331.068Z" transform="translate(-767.73 -270.282)"/><path class="i" d="M814.529,330.992V349.38a1.543,1.543,0,0,1-.82,1.23.924.924,0,0,1-.221.077c.009.441.371.619.818.395a1.543,1.543,0,0,0,.82-1.23V331.479A.456.456,0,0,0,814.529,330.992Z" transform="translate(-767.73 -270.284)"/></g><g transform="translate(723 3180.044)"><path class="ar" d="M750.358,302.886,775.2,315.316a3.842,3.842,0,0,0,3.438,0L803.861,302.7a1.26,1.26,0,0,0,.7-1.127V261.439l-25.671-9.321a4.513,4.513,0,0,0-3.185-.031l-26.038,9.537V301.76A1.259,1.259,0,0,0,750.358,302.886Z" transform="translate(-749.662 -247.873)"/><path class="ap" d="M804.284,259.891l-25.335-12.674a3.811,3.811,0,0,0-3.41,0l-25.6,12.806a.494.494,0,0,0,0,.884l25.329,12.672a3.826,3.826,0,0,0,3.422,0l25.6-12.8A.5.5,0,0,0,804.284,259.891Z" transform="translate(-749.662 -246.459)"/><path class="as" d="M804.284,259.4l-25.335-12.674a3.811,3.811,0,0,0-3.41,0l-25.6,12.806a.5.5,0,0,0,0,.885l25.329,12.671a3.822,3.822,0,0,0,3.422,0l25.6-12.8A.5.5,0,0,0,804.284,259.4Z" transform="translate(-749.662 -246.318)"/><path class="i" d="M799.7,261.346l-18.224-9.117a2.741,2.741,0,0,0-2.453,0L760.6,261.44a.356.356,0,0,0,0,.636l18.22,9.115a2.75,2.75,0,0,0,2.462,0l18.413-9.209A.356.356,0,0,0,799.7,261.346Z" transform="translate(-752.704 -247.909)"/><path class="at" d="M760.6,262.076l3.593,1.8,14.824-7.414a2.741,2.741,0,0,1,2.453,0l14.631,7.319,3.593-1.8a.356.356,0,0,0,0-.637l-18.224-9.117a2.741,2.741,0,0,0-2.453,0L760.6,261.44A.356.356,0,0,0,760.6,262.076Z" transform="translate(-752.704 -247.909)"/><g transform="translate(18.479 27.316)"><path class="i" d="M783.644,288.837a.943.943,0,0,0-.5-.754c-.277-.139-.5-.027-.5.251a.947.947,0,0,0,.5.754C783.42,289.227,783.644,289.114,783.644,288.837Z" transform="translate(-777.477 -285.441)"/><path class="i" d="M782.672,293.721a.911.911,0,0,0,.5.706c.265.119.468,0,.455-.275a.909.909,0,0,0-.5-.706C782.862,293.327,782.659,293.45,782.672,293.721Z" transform="translate(-777.486 -286.963)"/><path class="i" d="M782.7,299.108a.873.873,0,0,0,.5.659c.251.1.434-.035.407-.3a.872.872,0,0,0-.5-.658C782.86,298.71,782.678,298.844,782.7,299.108Z" transform="translate(-777.494 -288.485)"/><path class="i" d="M782.737,304.495a.835.835,0,0,0,.5.611c.238.079.4-.065.359-.323a.831.831,0,0,0-.5-.611C782.858,304.093,782.7,304.237,782.737,304.495Z" transform="translate(-777.502 -290.006)"/><path class="i" d="M782.769,309.881a.788.788,0,0,0,.5.563c.224.059.364-.1.311-.348a.79.79,0,0,0-.5-.562C782.854,309.474,782.715,309.629,782.769,309.881Z" transform="translate(-777.51 -291.526)"/><path class="i" d="M782.8,315.265a.741.741,0,0,0,.5.515c.211.04.33-.126.264-.371a.745.745,0,0,0-.5-.515C782.85,314.855,782.733,315.021,782.8,315.265Z" transform="translate(-777.517 -293.046)"/><path class="i" d="M776.443,285.235a.947.947,0,0,0-.5-.754c-.277-.139-.5-.026-.5.252a.947.947,0,0,0,.5.754C776.218,285.625,776.443,285.513,776.443,285.235Z" transform="translate(-775.438 -284.421)"/><path class="i" d="M775.471,290.119a.915.915,0,0,0,.5.707c.265.119.468,0,.455-.275a.914.914,0,0,0-.5-.707C775.661,289.725,775.458,289.848,775.471,290.119Z" transform="translate(-775.447 -285.943)"/><path class="i" d="M775.5,295.507a.869.869,0,0,0,.5.658c.251.1.433-.034.407-.3a.871.871,0,0,0-.5-.658C775.66,295.108,775.478,295.242,775.5,295.507Z" transform="translate(-775.456 -287.465)"/><path class="i" d="M775.536,300.894a.831.831,0,0,0,.5.61c.238.08.4-.065.359-.323a.832.832,0,0,0-.5-.61C775.657,300.491,775.5,300.636,775.536,300.894Z" transform="translate(-775.464 -288.986)"/><path class="i" d="M775.567,306.279a.789.789,0,0,0,.5.563c.224.059.363-.1.311-.347a.79.79,0,0,0-.5-.563C775.653,305.872,775.514,306.028,775.567,306.279Z" transform="translate(-775.471 -290.507)"/><path class="i" d="M775.6,311.664a.742.742,0,0,0,.5.515c.211.039.33-.126.263-.371a.744.744,0,0,0-.5-.515C775.649,311.253,775.532,311.42,775.6,311.664Z" transform="translate(-775.478 -292.026)"/><path class="i" d="M775.627,317.048a.7.7,0,0,0,.5.467c.2.019.295-.157.216-.4a.694.694,0,0,0-.5-.467C775.644,316.633,775.547,316.81,775.627,317.048Z" transform="translate(-775.484 -293.545)"/><path class="i" d="M775.655,322.431a.645.645,0,0,0,.5.419c.185,0,.26-.188.168-.419a.644.644,0,0,0-.5-.419C775.638,322.012,775.563,322.2,775.655,322.431Z" transform="translate(-775.488 -295.062)"/><path class="i" d="M775.684,327.812a.591.591,0,0,0,.5.371c.172-.02.226-.219.12-.443a.588.588,0,0,0-.5-.371C775.631,327.389,775.577,327.587,775.684,327.812Z" transform="translate(-775.492 -296.579)"/><path class="i" d="M775.71,333.192c.119.219.344.363.5.323s.191-.249.072-.467-.344-.363-.5-.323S775.591,332.974,775.71,333.192Z" transform="translate(-775.495 -298.093)"/></g><g transform="translate(8.153 22.153)"><path class="i" d="M762.041,278.032a.946.946,0,0,0-.5-.754c-.277-.138-.5-.026-.5.252a.947.947,0,0,0,.5.754C761.816,278.423,762.041,278.31,762.041,278.032Z" transform="translate(-761.035 -277.219)"/><path class="i" d="M761.068,282.917a.911.911,0,0,0,.5.706c.264.119.468,0,.454-.275a.909.909,0,0,0-.5-.706C761.258,282.523,761.055,282.646,761.068,282.917Z" transform="translate(-761.044 -278.741)"/><path class="i" d="M761.1,288.3a.874.874,0,0,0,.5.659c.252.1.434-.035.407-.3a.872.872,0,0,0-.5-.658C761.257,287.905,761.074,288.039,761.1,288.3Z" transform="translate(-761.053 -280.263)"/><path class="i" d="M761.133,293.691a.835.835,0,0,0,.5.611c.238.079.4-.066.359-.323a.832.832,0,0,0-.5-.611C761.254,293.288,761.093,293.433,761.133,293.691Z" transform="translate(-761.061 -281.784)"/><path class="i" d="M761.164,299.076a.786.786,0,0,0,.5.563c.224.06.364-.1.311-.347a.79.79,0,0,0-.5-.563C761.25,298.669,761.111,298.825,761.164,299.076Z" transform="translate(-761.068 -283.304)"/><path class="i" d="M761.281,320.609a.591.591,0,0,0,.5.371c.171-.02.225-.219.12-.443a.591.591,0,0,0-.5-.371C761.229,320.186,761.175,320.385,761.281,320.609Z" transform="translate(-761.089 -289.376)"/><path class="i" d="M761.308,325.99c.119.218.344.363.5.323s.191-.249.072-.467-.344-.363-.5-.323S761.189,325.771,761.308,325.99Z" transform="translate(-761.092 -290.891)"/></g><g transform="translate(2.991 19.571)"><path class="i" d="M754.839,274.431a.947.947,0,0,0-.5-.754c-.277-.139-.5-.026-.5.252a.945.945,0,0,0,.5.754C754.614,274.821,754.839,274.708,754.839,274.431Z" transform="translate(-753.834 -273.617)"/><path class="i" d="M753.867,279.315a.912.912,0,0,0,.5.706c.265.119.468,0,.455-.275a.909.909,0,0,0-.5-.706C754.057,278.921,753.854,279.044,753.867,279.315Z" transform="translate(-753.843 -275.139)"/><path class="i" d="M753.9,284.7a.871.871,0,0,0,.5.658c.251.1.434-.034.407-.3a.874.874,0,0,0-.5-.659C754.056,284.3,753.874,284.438,753.9,284.7Z" transform="translate(-753.852 -276.661)"/><path class="i" d="M753.963,295.475a.79.79,0,0,0,.5.563c.224.06.364-.1.311-.347a.789.789,0,0,0-.5-.563C754.049,295.068,753.91,295.224,753.963,295.475Z" transform="translate(-753.867 -279.703)"/><path class="i" d="M753.994,300.86a.744.744,0,0,0,.5.515c.211.039.33-.127.263-.371a.744.744,0,0,0-.5-.515C754.045,300.449,753.928,300.615,753.994,300.86Z" transform="translate(-753.874 -281.222)"/><path class="i" d="M754.023,306.243a.694.694,0,0,0,.5.467c.2.02.3-.156.216-.394a.7.7,0,0,0-.5-.467C754.04,305.829,753.944,306.005,754.023,306.243Z" transform="translate(-753.88 -282.741)"/><path class="i" d="M754.052,311.627a.642.642,0,0,0,.5.419c.185,0,.26-.187.168-.419a.642.642,0,0,0-.5-.419C754.034,311.208,753.959,311.4,754.052,311.627Z" transform="translate(-753.884 -284.258)"/><path class="i" d="M754.08,317.008a.59.59,0,0,0,.5.371c.172-.019.226-.218.12-.443a.589.589,0,0,0-.5-.371C754.027,316.585,753.973,316.783,754.08,317.008Z" transform="translate(-753.888 -285.774)"/><path class="i" d="M754.106,322.388c.119.218.344.363.5.323s.191-.249.072-.467-.344-.363-.5-.323S753.987,322.17,754.106,322.388Z" transform="translate(-753.891 -287.289)"/></g><g transform="translate(13.316 24.735)"><path class="i" d="M769.242,281.634a.946.946,0,0,0-.5-.754c-.278-.139-.5-.027-.5.251a.944.944,0,0,0,.5.754C769.017,282.024,769.242,281.911,769.242,281.634Z" transform="translate(-768.236 -280.82)"/><path class="i" d="M768.27,286.518a.909.909,0,0,0,.5.706c.265.119.468,0,.455-.275a.912.912,0,0,0-.5-.706C768.46,286.124,768.256,286.247,768.27,286.518Z" transform="translate(-768.245 -282.342)"/><path class="i" d="M768.3,291.906a.872.872,0,0,0,.5.658c.251.1.433-.035.406-.3a.875.875,0,0,0-.5-.659C768.458,291.507,768.275,291.641,768.3,291.906Z" transform="translate(-768.254 -283.864)"/><path class="i" d="M768.335,297.292a.832.832,0,0,0,.5.611c.238.08.4-.065.359-.323a.831.831,0,0,0-.5-.61C768.456,296.89,768.294,297.035,768.335,297.292Z" transform="translate(-768.262 -285.385)"/><path class="i" d="M768.366,302.678a.791.791,0,0,0,.5.563c.225.059.364-.1.311-.347a.786.786,0,0,0-.5-.563C768.452,302.271,768.313,302.426,768.366,302.678Z" transform="translate(-768.27 -286.906)"/><path class="i" d="M768.4,308.063a.746.746,0,0,0,.5.515c.212.039.329-.127.263-.371a.742.742,0,0,0-.5-.515C768.448,307.652,768.33,307.818,768.4,308.063Z" transform="translate(-768.276 -288.425)"/><path class="i" d="M768.426,313.446a.693.693,0,0,0,.5.467c.2.02.295-.157.216-.4a.7.7,0,0,0-.5-.467C768.443,313.032,768.346,313.208,768.426,313.446Z" transform="translate(-768.282 -289.944)"/><path class="i" d="M768.454,318.829a.643.643,0,0,0,.5.419c.186,0,.26-.187.168-.419a.644.644,0,0,0-.5-.419C768.437,318.41,768.362,318.6,768.454,318.829Z" transform="translate(-768.287 -291.461)"/><path class="i" d="M768.483,324.211a.588.588,0,0,0,.5.371c.172-.02.225-.218.12-.443a.591.591,0,0,0-.5-.371C768.43,323.788,768.376,323.986,768.483,324.211Z" transform="translate(-768.29 -292.977)"/><path class="i" d="M768.509,329.591c.119.218.344.363.5.323s.191-.249.072-.467-.343-.363-.5-.323S768.39,329.373,768.509,329.591Z" transform="translate(-768.293 -294.492)"/></g><path class="au" d="M819.455,278.985a2.1,2.1,0,0,0-1.117,1.675v25.021c0,.617.5.867,1.117.559a2.1,2.1,0,0,0,1.116-1.675V279.543C820.571,278.926,820.072,278.677,819.455,278.985Z" transform="translate(-769.103 -255.528)"/><path class="i" d="M819.757,278.882c0,.008,0,.014,0,.021v25.021a2.1,2.1,0,0,1-1.117,1.675,1.278,1.278,0,0,1-.3.1c.012.6.505.842,1.115.538a2.1,2.1,0,0,0,1.116-1.675V279.545A.621.621,0,0,0,819.757,278.882Z" transform="translate(-769.104 -255.53)"/><path class="au" d="M808.358,284.495a2.1,2.1,0,0,0-1.117,1.675v25.021c0,.617.5.867,1.117.558a2.1,2.1,0,0,0,1.116-1.675V285.053C809.474,284.436,808.974,284.187,808.358,284.495Z" transform="translate(-765.962 -257.088)"/><path class="i" d="M808.66,284.392c0,.007,0,.013,0,.02v25.022a2.1,2.1,0,0,1-1.117,1.675,1.245,1.245,0,0,1-.3.1c.011.6.505.843,1.115.538a2.1,2.1,0,0,0,1.116-1.675V285.055A.621.621,0,0,0,808.66,284.392Z" transform="translate(-765.963 -257.09)"/><path class="au" d="M797.261,290a2.1,2.1,0,0,0-1.117,1.675V316.7c0,.617.5.866,1.117.558a2.1,2.1,0,0,0,1.116-1.675V290.562C798.377,289.946,797.878,289.7,797.261,290Z" transform="translate(-762.82 -258.648)"/><path class="i" d="M797.563,289.9c0,.007,0,.013,0,.02v25.021a2.1,2.1,0,0,1-1.117,1.675,1.243,1.243,0,0,1-.3.1c.011.6.505.842,1.115.538a2.1,2.1,0,0,0,1.116-1.675V290.565A.621.621,0,0,0,797.563,289.9Z" transform="translate(-762.821 -258.65)"/></g></g></svg>