<svg xmlns="http://www.w3.org/2000/svg" width="51.115" height="52.165" viewBox="0 0 51.115 52.165">
  <g id="Group_5258" data-name="Group 5258" transform="translate(-1170.992 -3047.648)">
    <path id="Path_4461" data-name="Path 4461" d="M428.733,472.868V463.09a1.771,1.771,0,0,1,1.886-1.16c2.759.037,5.521.012,8.281.013,1.235,0,1.786.567,1.788,1.839q0,3.284,0,6.568v.581c.908,0,1.753.015,2.6-.013a.6.6,0,0,0,.385-.306q1.581-2.914,3.135-5.842a2.848,2.848,0,0,0,.119-.293c-.163-.087-.307-.168-.454-.242a18.315,18.315,0,0,1-9.1-21.989A17.758,17.758,0,0,1,458.3,430.215c.387.087.517-.027.679-.334,1.193-2.251,2.409-4.489,3.6-6.744a2.679,2.679,0,0,1,1.187-1.3h14.972a1.955,1.955,0,0,1,1.112,2.052c-.041,2.731-.013,5.464-.014,8.2,0,1.231-.557,1.793-1.773,1.795q-4.191,0-8.383,0c-1.241,0-1.8-.566-1.8-1.829q0-3.284,0-6.568v-.592c-.832,0-1.61.019-2.387-.009a.617.617,0,0,0-.65.4c-.983,1.867-1.986,3.723-2.982,5.581-.078.146-.148.3-.208.423,6.576,3.553,10.39,8.958,10.384,16.632s-3.808,13.081-10.4,16.615q1.659,3.1,3.325,6.19a.381.381,0,0,0,.253.194c.876.015,1.751.009,2.666.009v-.61q0-3.311,0-6.62a1.543,1.543,0,0,1,1.718-1.756q4.266,0,8.532,0a1.532,1.532,0,0,1,1.7,1.761q0,4.252,0,8.5a1.558,1.558,0,0,1-1.749,1.779c-4.541,0-9.08-.009-13.621.009a1.8,1.8,0,0,1-1.757-1.071c-1.241-2.361-2.514-4.7-3.766-7.057a.426.426,0,0,0-.575-.272,17.292,17.292,0,0,1-8.1.009.481.481,0,0,0-.657.294c-1.239,2.343-2.507,4.668-3.737,7.015a1.829,1.829,0,0,1-1.8,1.083c-4.441-.021-8.882-.028-13.322,0A1.911,1.911,0,0,1,428.733,472.868Zm25.534-32.8a7.849,7.849,0,1,0,7.705,7.856A7.75,7.75,0,0,0,454.267,440.066Zm-6.337-.94c.02-.013.09-.056.158-.1,6.664-4.681,15.474-.827,16.764,7.342.054.334.2.365.46.362,1.13-.006,2.262,0,3.393-.006a1.99,1.99,0,0,0,.323-.052A14.935,14.935,0,0,0,459.29,433.7a14.372,14.372,0,0,0-14.3,2.417Zm-5.13-.68a15.2,15.2,0,0,0-2.044,15.62c2.161,4.919,7.893,9.123,12.048,8.806V458.74a11.028,11.028,0,0,1-7.132-17.355Zm26.129,11.333c-1.2,0-2.367.025-3.528-.013-.455-.015-.618.128-.722.578a10.533,10.533,0,0,1-6.434,7.685,24.927,24.927,0,0,1-2.417.758v4.092C462.071,462.509,468.279,456.865,468.929,449.78Zm1.977-24.868v5.879h5.9v-5.879Zm-33.247,46v-5.879h-5.9v5.879Zm33.242-.007h5.913v-5.878H470.9Z" transform="translate(742.259 2625.811)" fill="#fff"/>
    <g id="Path_4462" data-name="Path 4462" transform="translate(1188.861 3065.89)" fill="none">
      <path d="M8.028-.24a7.889,7.889,0,0,1,7.608,8.228A8.041,8.041,0,0,1,7.449,15.9,7.888,7.888,0,0,1-.314,7.748,8.039,8.039,0,0,1,8.028-.24Z" stroke="none"/>
      <path d="M 7.660109996795654 2.151683807373047 C 6.190680503845215 2.151683807373047 4.79601001739502 2.740874290466309 3.733010292053223 3.810713768005371 C 2.670670509338379 4.879903793334961 2.085610389709473 6.278143882751465 2.085610389709473 7.747864246368408 C 2.085610389709473 9.317994117736816 2.643030166625977 10.77690410614014 3.655190467834473 11.85584449768066 C 4.647100448608398 12.91320419311523 5.994440078735352 13.49551391601562 7.449020385742188 13.49551391601562 C 8.997039794921875 13.49551391601562 10.45419025421143 12.92106437683105 11.55204963684082 11.87798404693604 C 12.63815021514893 10.84609413146973 13.23628997802734 9.464574813842773 13.23628997802734 7.987934112548828 C 13.23628997802734 6.396284103393555 12.71138000488281 4.940564155578613 11.75823974609375 3.888944625854492 C 10.79714965820312 2.828534126281738 9.468770027160645 2.229874610900879 7.916769981384277 2.15766429901123 C 7.831439971923828 2.153694152832031 7.745090007781982 2.151683807373047 7.660109996795654 2.151683807373047 M 7.66011381149292 -0.2483177185058594 C 7.782386779785156 -0.2483177185058594 7.90481424331665 -0.2454891204833984 8.028249740600586 -0.23974609375 C 12.57293033599854 -0.02830600738525391 15.63629055023193 3.51811408996582 15.63629055023193 7.987934112548828 C 15.63629055023193 12.45774459838867 11.88230991363525 15.89551448822021 7.449020385742188 15.89551448822021 C 3.015729904174805 15.89551448822021 -0.3143901824951172 12.21767425537109 -0.3143901824951172 7.747864246368408 C -0.3143901824951172 3.399447441101074 3.280529975891113 -0.2483177185058594 7.66011381149292 -0.2483177185058594 Z" stroke="none" fill="#0c9eda"/>
    </g>
  </g>
</svg>
