<svg xmlns="http://www.w3.org/2000/svg" width="60.23" height="49.917" viewBox="0 0 60.23 49.917">
  <g id="Group_5255" data-name="Group 5255" transform="translate(-234.431 -422.457)">
    <path id="Path_4448" data-name="Path 4448" d="M294.661,459.454a6.021,6.021,0,0,1-1.308,2.9,5.237,5.237,0,0,1-3.461,1.789,9.459,9.459,0,0,1-1,.04q-24.342,0-48.688.008a5.517,5.517,0,0,1-4.677-2.117,5.251,5.251,0,0,1-1.079-3.286c-.011-3.136-.037-6.272.006-9.408a8.721,8.721,0,0,1,8.282-8.68,61.779,61.779,0,0,1,7.34.077,1.988,1.988,0,0,0,2.168-.96,8.176,8.176,0,0,1,6.945-3.652c3.684-.043,7.372-.083,11.053.029a8.253,8.253,0,0,1,7.009,4.179c.283.454.529.643,1.055.475a3.485,3.485,0,0,1,1.044-.142c2.546,0,5.1-.137,7.633.078a8.625,8.625,0,0,1,7.558,7.287,4.4,4.4,0,0,0,.118.448Zm-19.641,1.171c.01-.2.022-.337.022-.473,0-4.994.014-9.99,0-14.984a5.256,5.256,0,0,0-5.519-5.495q-4.965-.024-9.931,0a6,6,0,0,0-1.623.2,5.218,5.218,0,0,0-3.9,5.349q-.014,7.434,0,14.867c0,.169.021.339.035.534Zm-24.486,0V445.553c0-1.334,0-1.355-1.382-1.371q-2.878-.031-5.757,0a5.586,5.586,0,0,0-1.391.179,5.254,5.254,0,0,0-4.028,5.317c-.014,2.957,0,5.914,0,8.87,0,1.457.649,2.1,2.122,2.1q4.905,0,9.811,0C250.1,460.652,250.285,460.634,250.534,460.621Zm28.038-.053a.917.917,0,0,0,.219.075c3.565,0,7.129.014,10.692-.011a1.665,1.665,0,0,0,1.641-1.732c.018-3.173.061-6.345-.013-9.517a5.088,5.088,0,0,0-4.764-5.12c-1.553-.152-3.128-.082-4.693-.082-.86,0-1.719.061-2.579.086-.387.011-.518.171-.517.582.018,5.013.013,10.027.014,15.04Z" transform="translate(0 8.185)" fill="#fff"/>
    <path id="Path_4449" data-name="Path 4449" d="M267.656,432.939a10.467,10.467,0,1,1-10.446-10.482A10.515,10.515,0,0,1,267.656,432.939Zm-10.438-6.953a6.94,6.94,0,1,0,6.908,6.976A6.934,6.934,0,0,0,257.219,425.986Z" transform="translate(7.364)" fill="#0c9eda"/>
    <path id="Path_4450" data-name="Path 4450" d="M244.722,428.542a7.837,7.837,0,1,1-7.826,7.815A7.865,7.865,0,0,1,244.722,428.542Zm-4.27,8.037a4.288,4.288,0,1,0,3.726-4.46A4.257,4.257,0,0,0,240.453,436.579Z" transform="translate(1.477 3.646)" fill="#fff"/>
    <path id="Path_4451" data-name="Path 4451" d="M275.516,436.38a7.843,7.843,0,1,1-7.8-7.837A7.878,7.878,0,0,1,275.516,436.38Zm-7.925-4.3a4.3,4.3,0,1,0,4.385,4.207A4.327,4.327,0,0,0,267.591,432.081Z" transform="translate(15.218 3.646)" fill="#fff"/>
  </g>
</svg>
