<svg xmlns="http://www.w3.org/2000/svg" width="52.269" height="52.5" viewBox="0 0 52.269 52.5">
  <g id="Group_5257" data-name="Group 5257" transform="translate(-704.497 -3101.5)">
    <path id="Subtraction_1" data-name="Subtraction 1" d="M33.161,48.231v-3.02a1.114,1.114,0,0,0,.208.017h.016c.45-.006.926-.008,1.544-.008h1.8q.478,0,.958,0a4.522,4.522,0,0,0,4.573-4.558c0-.33,0-.657,0-1v-.439H38.235c-.133,0-.267,0-.4,0a1.493,1.493,0,0,1-1.571-1.574c-.007-1.629-.006-3.281,0-4.879V19.885a1.547,1.547,0,0,1,1.772-1.778h4.094A16.456,16.456,0,0,0,26.418,3.027c-.267-.012-.536-.018-.8-.018a16.606,16.606,0,0,0-16.461,15.1H9.7l1.117,0h.023l1.14,0c.588,0,1.071,0,1.521.006a1.488,1.488,0,0,1,1.546,1.545c.007,5.758.007,11.817,0,18.008A1.486,1.486,0,0,1,13.5,39.212c-1.024.006-2.088.009-3.162.009-.885,0-1.807,0-2.74-.006a1.5,1.5,0,0,1-1.555-1.542c0-.223,0-.443,0-.656V37c0-.1,0-.191,0-.282-.222-.029-.441-.051-.653-.072a7.785,7.785,0,0,1-1.311-.2,4.991,4.991,0,0,1-3.5-3.78,14.482,14.482,0,0,1,0-8.093,4.923,4.923,0,0,1,3.711-3.8,7.736,7.736,0,0,1,1.153-.144c.19-.014.386-.029.585-.05A19.523,19.523,0,0,1,13.93,3.933,18.639,18.639,0,0,1,25.512,0c.377,0,.762.01,1.145.031A19.069,19.069,0,0,1,40.183,6.494a19.444,19.444,0,0,1,5.08,14.087c.189.018.376.032.558.044a8.665,8.665,0,0,1,1.159.133,4.475,4.475,0,0,1,3.365,2.852,13.9,13.9,0,0,1,.6,2.157c.071.32.143.647.223.965.029.114.051.231.073.343.009.045.017.09.026.136v2.8c-.01.047-.019.095-.028.142-.021.112-.043.226-.071.337-.082.323-.155.655-.226.977a13.644,13.644,0,0,1-.612,2.191,4.574,4.574,0,0,1-3.609,2.91,7.5,7.5,0,0,1-.988.083c-.152.006-.309.013-.467.023q0,.664,0,1.322c0,.875,0,1.738,0,2.6a7.5,7.5,0,0,1-7.6,7.622h-.213q-.957,0-1.913.005c-.812,0-1.488,0-2.126-.013H33.38a1.184,1.184,0,0,0-.216.017Zm6.124-27.082V36.193h2.941V21.149Zm-30.214,0V36.193h2.941V21.149Zm-3.656,2.5a2.24,2.24,0,0,0-.345.023c-1,.156-1.376.955-1.613,1.715a10.73,10.73,0,0,0-.352,4.4,10.964,10.964,0,0,0,.613,2.653,1.661,1.661,0,0,0,1.706,1.2,3.637,3.637,0,0,0,.6-.055V23.662c-.106,0-.211,0-.313-.008S5.512,23.646,5.414,23.646Zm40.573-.018v0a2.662,2.662,0,0,0-.69.1v9.855a3.582,3.582,0,0,0,.565.049A1.817,1.817,0,0,0,47.633,32.4a4.919,4.919,0,0,0,.326-.939,11.565,11.565,0,0,0-.422-6.755,1.576,1.576,0,0,0-1.55-1.074Z" transform="translate(705 3102)" fill="#fff" stroke="rgba(0,0,0,0)" stroke-width="1"/>
    <g id="Rectangle_7395" data-name="Rectangle 7395" transform="translate(726 3144)" fill="none" stroke="#0c9eda" stroke-width="2">
      <rect width="13" height="10" rx="3" stroke="none"/>
      <rect x="1" y="1" width="11" height="8" rx="2" fill="none"/>
    </g>
  </g>
</svg>
