<svg xmlns="http://www.w3.org/2000/svg" width="63.867" height="63.86" viewBox="0 0 63.867 63.86">
  <g id="Group_5254" data-name="Group 5254" transform="translate(-161.838 -418.424)">
    <path id="Path_4446" data-name="Path 4446" d="M207.459,440.856a20.715,20.715,0,0,1,14.682,9.049,20.078,20.078,0,0,1,3.512,13.01,20.77,20.77,0,0,1-18.488,19.243,20.2,20.2,0,0,1-15.1-4.365,20.6,20.6,0,0,1-7.779-13.752c-1.167,0-2.321,0-3.473,0-1.294,0-1.79-.434-1.955-1.722-.1-.794-.167-1.6-.3-2.385-.037-.217-.276-.4-.423-.6-.011-.015-.039-.018-.057-.026-.665-.257-1.362-.776-1.985-.7-.6.073-1.143.735-1.672,1.185-1.678,1.428-2.249,1.285-3.7-.23-1.59-1.663-3.246-3.262-4.874-4.89-.961-.963-1-1.588-.18-2.643.494-.634,1.009-1.252,1.465-1.908a1.067,1.067,0,0,0,.092-.722,4.259,4.259,0,0,0-.322-.821c-.515-1.239-.515-1.235-1.875-1.386-.629-.07-1.259-.136-1.882-.244a1.44,1.44,0,0,1-1.288-1.487q-.022-4.243,0-8.487a1.428,1.428,0,0,1,1.307-1.467c.915-.147,1.845-.219,2.757-.379a.976.976,0,0,0,.625-.461,4.236,4.236,0,0,0,.744-1.974c-.064-.6-.744-1.132-1.171-1.68-1.45-1.863-1.441-2.06.233-3.734q2.465-2.464,4.927-4.927a1.606,1.606,0,0,1,2.5-.176c.669.515,1.32,1.055,2.009,1.542.165.118.445.077.671.107.017,0,.037-.022.057-.026,1.5-.333,2.422-1.114,2.246-2.8a3.209,3.209,0,0,1,.07-.627c.151-1.535.608-1.955,2.126-1.955q3.8,0,7.6,0c1.215,0,1.718.437,1.887,1.654.112.816.173,1.637.312,2.448.037.217.276.4.423.6.011.015.039.017.059.024.663.261,1.356.783,1.981.709.6-.07,1.127-.752,1.676-1.178,1.834-1.424,2.049-1.413,3.688.226q2.484,2.484,4.969,4.971a1.6,1.6,0,0,1,.136,2.5c-.505.651-1.035,1.283-1.505,1.957a1.025,1.025,0,0,0-.094.722c.059.3.277.577.336.88.2,1.007.847,1.321,1.794,1.332a12.469,12.469,0,0,1,1.821.217,1.509,1.509,0,0,1,1.421,1.7C207.465,438.388,207.459,439.592,207.459,440.856Zm-2.531,2.911A17.74,17.74,0,1,0,222.665,461.5,17.768,17.768,0,0,0,204.928,443.767Zm-8.434-18.479c-.6.463-1.257.952-1.887,1.474a1.772,1.772,0,0,1-2,.263c-1.141-.5-2.283-.992-3.448-1.428a1.893,1.893,0,0,1-1.342-1.794c-.059-.77-.184-1.535-.279-2.306H181.76c-.1.818-.211,1.608-.287,2.4a1.813,1.813,0,0,1-1.244,1.661c-1.18.456-2.347.946-3.5,1.454a1.8,1.8,0,0,1-2.055-.274c-.625-.527-1.288-1.009-1.864-1.456l-4.1,4.106c.45.581.924,1.226,1.437,1.838a1.8,1.8,0,0,1,.3,2.053c-.507,1.16-1.005,2.323-1.456,3.5a1.838,1.838,0,0,1-1.707,1.274c-.79.074-1.575.191-2.363.29v5.773c.82.1,1.61.213,2.4.29a1.8,1.8,0,0,1,1.658,1.248c.452,1.18.946,2.345,1.456,3.5a1.807,1.807,0,0,1-.276,2.057c-.526.627-1.011,1.286-1.45,1.849l4.1,4.107c.564-.437,1.2-.891,1.788-1.4a1.849,1.849,0,0,1,2.159-.311q1.673.75,3.391,1.4a1.9,1.9,0,0,1,1.334,1.8c.059.77.184,1.535.281,2.3h2.275c.221-1.426.349-2.836.671-4.2s.827-2.67,1.252-4a11.6,11.6,0,1,1-2.351-23.073,11.376,11.376,0,0,1,8.413,2.645,11.585,11.585,0,0,1,4.122,10.332,21.53,21.53,0,0,1,8.239-1.955v-2.38c-.816-.1-1.606-.206-2.4-.283a1.8,1.8,0,0,1-1.661-1.242c-.452-1.182-.946-2.347-1.454-3.5a1.794,1.794,0,0,1,.27-2.055c.526-.627,1.011-1.288,1.467-1.873Zm-3.29,16.02a8.691,8.691,0,0,0-9.024-8.65,8.5,8.5,0,0,0-8.033,9.591,8.594,8.594,0,0,0,11.973,6.737,2.369,2.369,0,0,0,.623-.507,33.072,33.072,0,0,1,2.615-2.658,4.165,4.165,0,0,0,1.544-2.58C193.025,442.6,193.106,441.954,193.205,441.309Z" transform="translate(0 0)" fill="#fff"/>
    <path id="Path_4447" data-name="Path 4447" d="M198.092,443.419c.795,0,1.481-.01,2.167,0a2.154,2.154,0,0,1,2.2,2.2q.021,2.25,0,4.5a1.925,1.925,0,0,1-1.953,1.969c-1.193.019-2.387.014-3.58,0a1.308,1.308,0,0,1-1.4-1.437c-.006-2.858.019-5.714-.009-8.572a5.63,5.63,0,0,0-11.249-.319c-.077,3.579-.031,7.16-.022,10.741a1.284,1.284,0,0,0,1.4,1.323c1.953.01,3.906,0,5.859,0a1.325,1.325,0,0,1,1.386,1.053,1.279,1.279,0,0,1-1.216,1.534c-2.151.027-4.306.068-6.454-.014a3.844,3.844,0,0,1-3.587-3.756c0-.161,0-.321,0-.554-.729,0-1.427,0-2.125,0a1.985,1.985,0,0,1-2.219-2.2c0-1.393,0-2.785,0-4.178a2.171,2.171,0,0,1,2.317-2.3c.65,0,1.3,0,2.036,0a8.492,8.492,0,0,1,3.289-7.9,7.88,7.88,0,0,1,5.436-1.637,8.052,8.052,0,0,1,5.935,3.07A8.721,8.721,0,0,1,198.092,443.419Zm-16.5,6.052v-3.406h-1.67v3.406Zm16.568-3.424v3.4h1.671v-3.4Z" transform="translate(15.053 14.834)" fill="#0c9eda"/>
  </g>
</svg>
