<svg xmlns="http://www.w3.org/2000/svg" width="72.864" height="72.864" viewBox="0 0 72.864 72.864">
  <g id="Group_79" data-name="Group 79" transform="translate(-634.576 -4933.8)">
    <g id="Group_57" data-name="Group 57" transform="translate(634.776 4934)">
      <text id="Fake" transform="translate(37.332 43.486)" fill="#0c9eda" font-size="23" font-family="DMSans-Bold, DM Sans" font-weight="700"><tspan x="-25" y="0">Fake</tspan></text>
      <g id="no-pets">
        <path id="Path_171" data-name="Path 171" d="M248.831,1.415A1.415,1.415,0,1,1,247.415,0,1.415,1.415,0,0,1,248.831,1.415Zm0,0" transform="translate(-211.183)" stroke="#000" stroke-width="0.4"/>
        <path id="Path_172" data-name="Path 172" d="M42.83,4.084a1.415,1.415,0,0,0-.511,2.784,33.2,33.2,0,0,1,16.61,8.322c.071.128-47.222,47.09-47.2,47.2A33.386,33.386,0,0,1,30.144,6.868a1.415,1.415,0,0,0-.511-2.784,36.233,36.233,0,1,0,13.2,0Zm-6.6,69.035a33.272,33.272,0,0,1-22.5-8.733l.371-.2c-.08-.247,46.772-47.1,46.815-46.983a33.417,33.417,0,0,1-24.69,55.919Zm0,0" transform="translate(0.001 -3.485)" stroke="#000" stroke-width="0.4"/>
      </g>
    </g>
  </g>
</svg>
