<svg xmlns="http://www.w3.org/2000/svg" width="96.169" height="82.273" viewBox="0 0 96.169 82.273">
  <g id="Group_87" data-name="Group 87" transform="translate(-517 -2917)">
    <path id="Path_133" data-name="Path 133" d="M702.2,2877.98l-1.633,2.6.817,6.235,1.336,2,4.231.445h83.285l3.489-.445.668-2.747-1.113-7.5-1.93.371-1.781,2.45-5.048,3.117-3.563-1.262-4.38-1.188h-4.6l-2.746-2.6-2.3-1.411-40.381-.371-1.484,2.375-2.078,1.337h-3.637l-1.781.668-2.227,1.188h-4.231l-5.344-1.188-1.856-2.6Z" transform="translate(-182.349 82.004)" fill="#fff"/>
    <g id="BACKGROUND" transform="translate(517 2917)">
      <g id="Group_32" data-name="Group 32" transform="translate(0 0)">
        <path id="Path_113" data-name="Path 113" d="M.4,48.466a4.973,4.973,0,0,1,2.546-2.742c.2,0,.2-.392.392-.783.2-.783,0-1.567.2-2.35a5.291,5.291,0,0,1,5.092-3.721H17.44a16.317,16.317,0,0,1,2.938.783,2.831,2.831,0,0,0,1.371.392H23.12c3.526,0,5.288,1.567,5.484,5.288h6.268c-.2-.2-.2-.392-.392-.783a18.634,18.634,0,0,1-3.134-9.6c0-3.134,0-6.268.2-9.4.588-8.03,7.639-15.081,15.669-15.865a18.019,18.019,0,0,1,6.463.392c1.175.392,1.763.979,1.567,1.763-.2.979-.979,1.175-2.154.979a15.259,15.259,0,0,0-17.04,7.835c-.2.392-.392.588-.392.979h14.69A7,7,0,0,1,57.4,27.7a7.25,7.25,0,0,1-6.659,8.226c-5.288.2-10.381,0-15.669,0h-.783c.2.979.2,1.763.392,2.35A13.105,13.105,0,0,0,38.2,44.745a6.52,6.52,0,0,0,1.175.588H59.355a1.4,1.4,0,0,0,1.175-.588,13.58,13.58,0,0,0,3.917-9.206,81.683,81.683,0,0,0,0-9.793,13.926,13.926,0,0,0-4.9-9.6c-.2-.2-.588-.392-.783-.783a1.258,1.258,0,0,1,.2-1.763,1.239,1.239,0,0,1,1.763-.2,4.273,4.273,0,0,1,.979.783A18.438,18.438,0,0,1,66.993,23c0,.392.2.588.2.783a11.339,11.339,0,0,1,2.938-4.9c.783-.979,2.154-.783,3.33,0,.783.588,1.763,1.175,2.546,1.763a2.7,2.7,0,0,1,.588-.783c1.763-2.546,3.33-5.092,4.9-7.639a3.631,3.631,0,0,0,.392-1.371,6.584,6.584,0,1,1,9.01,5.876,2.879,2.879,0,0,0-1.175.979l-5.288,8.226a.607.607,0,0,1-.2.392c.783.588,1.567.979,2.35,1.567,1.959,1.175,2.154,2.742.979,4.7-.392.588-.979,1.371-1.371,1.959a2.873,2.873,0,0,1-4.309.979c-.392-.2-.588-.392-.979-.588h-.2c-.979,1.371-1.959,2.938-2.938,4.5,3.721-.588,7.443-.2,10.968-.2a5.157,5.157,0,0,1,5.092,5.484,1.713,1.713,0,0,0,.979,1.763,3.323,3.323,0,0,1,1.763,3.134v6.268a3.559,3.559,0,0,1-3.526,3.721H91.085V82.938c0,2.546-.783,3.33-3.33,3.33H46.624a2.484,2.484,0,0,1-1.175-.2,1.253,1.253,0,0,1-.979-1.371,1.467,1.467,0,0,1,1.175-1.371H64.839V77.454H32.326V83.33h6.855A1.716,1.716,0,0,1,40.944,84.7c0,.979-.588,1.371-1.763,1.371H7.647c-2.154,0-3.134-.979-3.134-3.134V60.61c0-.783,0-1.175-.979-1.371C1.967,59.043,1.183,57.867.6,56.5.4,53.95.4,51.208.4,48.466Zm68.356,0H28.213c-.979,2.742-2.938,3.721-5.68,3.526H20.378a3.631,3.631,0,0,0-1.371.392,32.5,32.5,0,0,1-3.134,1.175,40.94,40.94,0,0,1-4.9.2,7.456,7.456,0,0,1-7.051-4.5c0-.2-.2-.392-.392-.783a3.824,3.824,0,0,0-.2,1.371v4.5c0,2.546,0,2.546,2.546,2.546H92.651c1.175,0,1.371-.2,1.371-1.371v-5.68c0-.392-.2-.783-.2-1.175l-.2.2c0,.2-.2.2-.2.392a7.652,7.652,0,0,1-6.072,4.5c-1.959.2-3.917,0-6.072,0a4.8,4.8,0,0,1-2.35-.783,4.541,4.541,0,0,0-3.526-.783h-.979A5.545,5.545,0,0,1,68.756,48.466ZM64.839,59.63H32.13v5.876H64.839ZM47.211,68.444H17.44v6.072H47.211Zm32.513,6.072V68.444H49.953v6.072ZM42.9,33.385h7.051a4.392,4.392,0,0,0,4.5-4.309,4.273,4.273,0,0,0-4.5-4.309H37.222A2.8,2.8,0,0,0,34.088,27.9v4.113c0,1.175.392,1.567,1.567,1.567C38.2,33.385,40.552,33.385,42.9,33.385ZM29.388,59.63H7.255v5.876H29.388ZM7.255,83.134H29.388V77.258H7.255Q7.255,80.49,7.255,83.134Zm60.522-23.5v5.876H88.342V59.63Zm0,23.5H88.342V77.258H67.777ZM12.935,41.807H10c-2.938-.2-4.113.588-3.917,4.113.2,2.938,2.154,5.092,5.092,5.092H15.09a4.835,4.835,0,0,0,4.7-3.917,4.774,4.774,0,0,0,0-2.35A2.478,2.478,0,0,0,17.048,42,28.926,28.926,0,0,0,12.935,41.807Zm71.294,0H81.487c-3.134-.2-4.309.783-4.113,4.113a5.148,5.148,0,0,0,4.9,5.092h4.113c2.546-.2,4.5-1.763,4.7-4.309V44.549a2.478,2.478,0,0,0-2.742-2.742Zm-5.876-8.618c-2.154-1.371-4.113-2.742-6.268-4.113-1.567,2.546-3.134,4.9-4.7,7.247-.2.2-.2.392-.2.783a18.1,18.1,0,0,1-2.938,7.835c-.2.2-.2.392-.392.783h4.9c.392-3.526,1.371-4.5,4.7-5.288.2,0,.392-.2.588-.392C75.416,37.694,76.787,35.343,78.353,33.189Zm5.288,0c.588-.979,1.175-1.763,1.763-2.742-4.5-2.938-9.01-6.072-13.71-9.01-.588.979-1.175,1.763-1.763,2.742C74.632,27.313,79.137,30.251,83.642,33.189ZM7.255,68.248V74.32H14.5V68.248ZM88.734,14.386a3.853,3.853,0,0,0,3.721-3.721,3.853,3.853,0,0,0-3.721-3.721,3.719,3.719,0,0,0-3.721,3.721A3.6,3.6,0,0,0,88.734,14.386Zm-5.288.588c-1.567,2.35-3.33,4.9-4.9,7.443,1.175.783,2.154,1.371,3.33,2.154,1.763-2.546,3.33-5.092,4.9-7.443A31.9,31.9,0,0,1,83.446,14.974Zm-.783,59.542h5.484V68.444H82.662ZM22.728,43.178c-.2,1.959-.392,3.917-.392,5.876,2.546.392,3.526-.392,3.33-2.742v-.588C25.666,43.569,24.883,42.982,22.728,43.178Zm52.1,6.072c-.2-2.154-.2-4.113-.392-6.072Q71.5,42.59,71.5,45.528V47.1a1.757,1.757,0,0,0,1.959,1.959A3.824,3.824,0,0,0,74.828,49.25ZM67.385,30.838h.2c.783-1.175,1.371-2.154,2.154-3.134-.783-.783-1.763-1.371-2.35-1.959C67.385,27.313,67.385,29.076,67.385,30.838Z" transform="translate(-0.4 -3.995)" fill="#0c9eda"/>
        <path id="Path_114" data-name="Path 114" d="M18.7,17.563c0-1.175.588-1.763,1.371-1.763.979,0,1.371.588,1.371,1.763a1.582,1.582,0,0,1-1.371,1.763C19.288,19.326,18.7,18.738,18.7,17.563Z" transform="translate(17.143 7.322)" fill="#fff"/>
        <path id="Path_115" data-name="Path 115" d="M25.642,17.563c0,1.175-.588,1.763-1.371,1.763-.979,0-1.371-.588-1.371-1.763s.588-1.763,1.371-1.763A1.716,1.716,0,0,1,25.642,17.563Z" transform="translate(21.169 7.322)" fill="#fff"/>
      </g>
    </g>
  </g>
</svg>
