<svg xmlns="http://www.w3.org/2000/svg" width="96.832" height="95.498" viewBox="0 0 96.832 95.498">
  <g id="Group_69" data-name="Group 69" transform="translate(-521.871 -2957)">
    <g id="Group_53" data-name="Group 53" transform="translate(521.871 2957)">
      <rect id="Rectangle_27" data-name="Rectangle 27" width="43.422" height="10.856" transform="translate(2.452 82.503)" fill="#fff"/>
      <g id="BACKGROUND" transform="translate(0 0)">
        <path id="Path_132" data-name="Path 132" d="M99.532,10.8a1.484,1.484,0,0,0-1.52-1.52H86.939a10.9,10.9,0,0,1-2.605-.434l-13.9-4.994A14.03,14.03,0,0,0,59.366,4.5L54.155,7.108a14.217,14.217,0,0,0-8.033,13.027v6.73h-.434a9.809,9.809,0,0,0-8.9,5.645,10.263,10.263,0,0,0-.434,7.6v.217L33.1,46.84A11.963,11.963,0,0,1,29.4,51.182l-6.079,4.776h-.217a4.909,4.909,0,0,0-6.079,2.171l-1.52,2.822-.868-.434a1.491,1.491,0,0,0-1.954.651L9,68.551A1.491,1.491,0,0,0,9.648,70.5L35.7,84.183H4.22A1.484,1.484,0,0,0,2.7,85.7V97.427a1.481,1.481,0,0,0,1.52,1.086H93.887a1.484,1.484,0,0,0,1.52-1.52V85.269a1.484,1.484,0,0,0-1.52-1.52H79.558a1.52,1.52,0,1,0,0,3.04H92.584v8.684H49.6V86.788H62.84a1.52,1.52,0,0,0,0-3.04H42.214l3.04-5.862a1.491,1.491,0,0,0-.651-1.954l-.868-.434,1.52-2.822a4.851,4.851,0,0,0-1.737-6.3l-.217-.217.217-7.816a12.9,12.9,0,0,1,1.52-5.645l3.257-6.079h.217a.8.8,0,0,0,.651-.217,10.25,10.25,0,0,0,5.862-4.994l.651-1.3-.217-.217H79.775c3.04,0,6.3-1.086,9.77-2.822L93.453,34.9a8.2,8.2,0,0,1,4.559-.868,1.484,1.484,0,0,0,1.52-1.52Zm-87.5,57.535,2.388-4.776.434.217L41.78,77.887l-2.388,4.776-.434-.217ZM46.557,86.788v8.684H5.74V86.788ZM42.431,71.373,40.912,74.2l-.434-.217L18.115,62.255l1.52-2.822a1.443,1.443,0,0,1,1.086-.868,1.907,1.907,0,0,1,1.52.217l19.54,10.2a1.443,1.443,0,0,1,.868,1.086A3.82,3.82,0,0,1,42.431,71.373ZM42.214,51.4a15.666,15.666,0,0,0-1.737,6.948l-.217,6.3L26.148,57.261l4.994-3.908A15.655,15.655,0,0,0,35.7,47.925l2.388-4.776.434.434a13.532,13.532,0,0,0,2.605,1.954,15.075,15.075,0,0,0,2.822,1.086H44.6Zm9.77-11.073a6.884,6.884,0,0,1-4.125,3.257,6.693,6.693,0,0,1-2.171.217,6.127,6.127,0,0,1-3.257-.868,7.135,7.135,0,0,1-3.04-9.336,7.338,7.338,0,0,1,6.3-4.125h.434v2.388a7.409,7.409,0,0,0,5.645,7.382l.651.217Zm44.508-9.553h-.434a13.1,13.1,0,0,0-4.125,1.3l-3.908,2.171a19.977,19.977,0,0,1-8.25,2.605H53.287a4.355,4.355,0,0,1-4.342-4.342,5.333,5.333,0,0,1,1.086-3.257,3.527,3.527,0,0,1,3.04-1.086H70.656A5.667,5.667,0,0,0,76.3,22.958a6.044,6.044,0,0,0-3.908-6.079l-2.171-.868A8.877,8.877,0,0,0,62.189,17.1,8.754,8.754,0,0,0,58.5,24.26v.868H53.287A7.136,7.136,0,0,0,49.6,26l-.651.434v-6.3a11.41,11.41,0,0,1,6.3-10.421l5.211-2.605a11.5,11.5,0,0,1,8.9-.434l13.9,4.994a11.028,11.028,0,0,0,3.691.651h9.553ZM61.537,24.26A5.376,5.376,0,0,1,63.925,19.7a5.937,5.937,0,0,1,5.428-.651l2.605.868A2.809,2.809,0,0,1,73.7,23.175a2.579,2.579,0,0,1-2.605,2.171H61.537Z" transform="translate(-2.7 -3.014)" fill="#0c9eda"/>
      </g>
    </g>
  </g>
</svg>
