<svg xmlns="http://www.w3.org/2000/svg" width="66.757" height="66.757" viewBox="0 0 66.757 66.757"><defs><style>.a{fill:none;stroke:#000;stroke-width:2.2px;}.b{fill:#0c9eda;}</style></defs><g transform="translate(-1365.9 -2468.474)"><path class="a" d="M63.123,10.3V8.836a7.336,7.336,0,0,0-14.672,0V10.3a2.943,2.943,0,0,0-2.934,2.934V24.975A2.943,2.943,0,0,0,48.45,27.91H63.123a2.943,2.943,0,0,0,2.934-2.934V13.238A2.943,2.943,0,0,0,63.123,10.3ZM54.085,33.778a24.226,24.226,0,0,1,.235,2.934,23.35,23.35,0,0,1-6.162,15.816,5.822,5.822,0,0,0-5.575-4.079H39.647v-8.8a2.943,2.943,0,0,0-2.934-2.934H19.106V30.844h5.869A2.943,2.943,0,0,0,27.91,27.91V22.041h5.869a5.886,5.886,0,0,0,5.869-5.869V8.719A29.345,29.345,0,1,0,60.188,36.713c0-1-.059-1.966-.147-2.934ZM27.91,59.983A23.441,23.441,0,0,1,7.369,36.713a23.821,23.821,0,0,1,.616-5.253L22.041,45.516V48.45a5.886,5.886,0,0,0,5.869,5.869Z" transform="translate(1365.5 2468.074)"/><rect class="b" width="13.758" height="11.642" rx="3" transform="translate(1414.625 2481.667)"/></g></svg>